<svg width="70" height="55" viewBox="0 0 70 55" fill="none" xmlns="http://www.w3.org/2000/svg">
<path d="M18.9528 15.5779L1.65567 25.4933C-0.783725 26.8915 -0.494338 29.3317 2.30436 30.941L40.1499 52.6774C54.1473 60.7569 77.5138 43.9763 66.3229 37.7191L27.1741 15.1654C24.3754 13.5561 21.3942 14.1797 18.9528 15.5779Z" fill="#E0E0E0"/>
<path d="M6.54614 26.6903L12.3378 23.4369L9.12537 21.5874L6.55391 23.0728L6.54614 26.6903Z" fill="#263238"/>
<path d="M33.9116 42.4465V43.3122L37.5027 41.2458L39.7052 39.1872L36.4909 37.3378L33.9213 38.8231V42.4427L33.9116 42.4465Z" fill="#263238"/>
<path d="M36.3024 41.6912L35.4712 40.045L37.4483 38.9044C38.0757 38.5442 38.9128 38.5848 39.8334 39.1135C41.7853 40.2387 43.372 43.1359 43.372 45.5876C43.372 46.8716 42.9389 47.7779 42.2456 48.1885L42.2184 48.2039L40.1907 49.3659L39.3148 47.623C37.6464 46.3739 36.3665 43.8795 36.3024 41.6912Z" fill="#37474F"/>
<path d="M36.3024 41.6912L35.4712 40.045L37.4483 38.9044C38.0757 38.5442 38.9128 38.5848 39.8334 39.1135C41.7853 40.2387 43.372 43.1359 43.372 45.5876C43.372 46.8716 42.9389 47.7779 42.2456 48.1885L42.2184 48.2039L40.1907 49.3659L39.3148 47.623C37.6464 46.3739 36.3665 43.8795 36.3024 41.6912Z" fill="#263238"/>
<path d="M34.2437 42.7021C34.2437 44.8168 35.4206 47.2628 36.9957 48.6165C37.2369 48.8247 37.497 49.0102 37.7726 49.1703C39.7245 50.2955 41.3074 49.2187 41.3055 46.767C41.3055 44.9137 40.4023 42.8047 39.1205 41.4007L39.1088 41.391C38.7222 40.9592 38.2716 40.5889 37.7726 40.2929C35.8227 39.1755 34.2437 40.2503 34.2437 42.7021Z" fill="#37474F"/>
<path d="M37.7764 41.7784C36.5334 41.0618 35.5273 41.8074 35.5273 43.4419C35.5273 45.0764 36.5334 46.982 37.7764 47.7025C39.0194 48.4229 40.0255 47.6734 40.0255 46.0389C40.0255 44.4044 39.0175 42.493 37.7764 41.7784Z" fill="#455A64"/>
<path d="M36.7686 44.2842C36.8541 45.0976 37.3804 45.9594 37.9339 46.2092C38.0294 46.2627 38.1388 46.2863 38.2479 46.277C38.357 46.2677 38.4608 46.2259 38.5457 46.1569C38.7399 45.9904 38.8448 45.6457 38.7963 45.1886C38.7108 44.3772 38.1884 43.5154 37.631 43.2656C37.5036 43.2022 37.3587 43.1831 37.2192 43.2114C36.8851 43.2985 36.6968 43.6858 36.7686 44.2842Z" fill="#FAFAFA"/>
<path d="M36.9626 44.1797C37.0481 44.993 37.5724 45.8548 38.1279 46.1046C38.2547 46.1676 38.3991 46.186 38.5377 46.1569C38.7319 45.9904 38.8368 45.6457 38.7883 45.1886C38.7028 44.3772 38.1803 43.5154 37.6229 43.2656C37.4956 43.2022 37.3507 43.1831 37.2112 43.2114C37.0131 43.3818 36.9121 43.7246 36.9626 44.1797Z" fill="#E0E0E0"/>
<path d="M34.2437 42.7019C34.2437 44.8166 35.4206 47.2626 36.9957 48.6163C35.9029 47.3801 35.133 45.894 34.7545 44.2899C34.4554 42.8781 34.5602 40.8485 35.7838 40.3353C37.0074 39.8221 38.6078 40.9047 39.1147 41.3966C38.728 40.9648 38.2774 40.5945 37.7784 40.2985C35.8227 39.1753 34.2437 40.2501 34.2437 42.7019Z" fill="#455A64"/>
<path d="M8.93479 25.939L8.10547 24.2928L10.0807 23.158C10.7099 22.7959 11.547 22.8385 12.4657 23.3672C14.4079 24.4904 16.0005 27.3895 16.0005 29.8412C16.0005 31.1252 15.5654 32.0315 14.8721 32.4421L12.8153 33.6157L11.9394 31.8727C10.2807 30.6217 8.99499 28.1254 8.93479 25.939Z" fill="#37474F"/>
<path d="M8.93479 25.939L8.10547 24.2928L10.0807 23.158C10.7099 22.7959 11.547 22.8385 12.4657 23.3672C14.4079 24.4904 16.0005 27.3895 16.0005 29.8412C16.0005 31.1252 15.5654 32.0315 14.8721 32.4421L12.8153 33.6157L11.9394 31.8727C10.2807 30.6217 8.99499 28.1254 8.93479 25.939Z" fill="#263238"/>
<path d="M6.87427 26.9517C6.87427 29.0646 8.05318 31.5124 9.6283 32.8642C9.86982 33.072 10.1299 33.2574 10.4052 33.4181C12.3571 34.5413 13.9419 33.4645 13.94 31.0128C13.94 29.1614 13.0368 27.0524 11.7531 25.6484C11.7531 25.6484 11.7531 25.6484 11.7433 25.6368C11.3559 25.205 10.9047 24.8347 10.4052 24.5387C8.45715 23.4232 6.87427 24.5 6.87427 26.9517Z" fill="#37474F"/>
<path d="M10.409 26.0261C9.16791 25.3115 8.15991 26.0571 8.15991 27.6916C8.15991 29.3261 9.16791 31.2297 10.409 31.9521C11.65 32.6745 12.658 31.9211 12.658 30.2866C12.658 28.6521 11.652 26.7426 10.409 26.0261Z" fill="#455A64"/>
<path d="M9.39314 28.534C9.4786 29.3474 10.003 30.2092 10.5585 30.457C10.6537 30.5111 10.763 30.5352 10.8722 30.5262C10.9813 30.5172 11.0852 30.4755 11.1702 30.4067C11.3645 30.2382 11.4674 29.8954 11.4208 29.4384C11.3353 28.625 10.8109 27.7632 10.2555 27.5134C10.1282 27.4497 9.98294 27.4313 9.84373 27.4611C9.51938 27.5405 9.33099 27.9414 9.39314 28.534Z" fill="#FAFAFA"/>
<path d="M9.59342 28.4294C9.67887 29.2409 10.2033 30.1026 10.7587 30.3525C10.8864 30.4149 11.031 30.4339 11.1705 30.4067C11.3647 30.2382 11.4676 29.8954 11.421 29.4384C11.3356 28.625 10.8112 27.7632 10.2557 27.5134C10.1284 27.4497 9.98318 27.4313 9.84396 27.4611C9.64586 27.6296 9.5468 27.9743 9.59342 28.4294Z" fill="#E0E0E0"/>
<path d="M6.87427 26.9517C6.87427 29.0645 8.05318 31.5124 9.6283 32.8641C8.53473 31.6292 7.76474 30.1435 7.38701 28.5397C7.08791 27.126 7.19279 25.0964 8.41637 24.5852C9.63995 24.0739 11.2384 25.1526 11.7472 25.6445C11.3598 25.2127 10.9085 24.8424 10.4091 24.5464C8.45715 23.4232 6.87427 24.4999 6.87427 26.9517Z" fill="#455A64"/>
<path d="M57.5773 36.2298C48.5072 41.449 44.3839 39.0767 36.6598 34.6283C29.1727 30.3174 18.1022 22.3676 17.4321 21.8796L31.2217 30.453L28.6308 21.0275C28.2579 19.7552 27.6461 19.4782 26.7799 18.9747C25.1155 18.0161 18.6771 14.4431 14.278 11.9061C10.4752 9.71968 8.66508 8.7107 8.23779 7.7424V7.69593C8.23779 7.65719 8.23779 7.61846 8.23779 7.57973C8.23779 7.49258 8.23779 7.40737 8.23779 7.31441C8.30577 6.53977 8.76801 5.60827 13.6177 2.68787C16.3581 1.03788 18.7489 0.234192 20.9261 0.234192C23.1033 0.234192 24.9776 1.00883 27.1081 2.1708C29.7864 3.62519 42.3602 10.4808 43.8304 11.7473C48.3363 15.7503 51.3079 18.6765 53.1821 20.9617L53.3064 21.1108L53.3258 21.0604C54.2483 21.653 59.232 25.0343 61.8229 27.031C61.9025 27.091 61.9783 27.1472 62.0501 27.2053C62.122 27.2634 62.1511 27.2827 62.1977 27.3215C63.1611 28.557 64.8197 32.0661 57.5773 36.2298Z" fill="#FAFAFA"/>
<path d="M63.0173 27.8794C62.9122 27.7697 62.8013 27.6656 62.6852 27.5676C62.5803 27.4805 62.4638 27.3739 62.3317 27.2771C62.1997 27.1803 62.0521 27.0563 61.8948 26.9363C61.8637 26.9111 61.8307 26.8879 61.7957 26.8627C62.2055 27.25 66.1967 31.2646 57.5773 36.23C48.5053 41.4589 44.3839 39.0768 36.6598 34.6285C29.1727 30.3176 18.1022 22.3678 17.4321 21.8798L31.2217 30.4531L28.6308 21.0277C28.2579 19.7553 27.6461 19.4784 26.7799 18.9749C25.1154 18.0163 18.6771 14.4432 14.278 11.9063C9.87893 9.36933 8.16203 8.43977 8.13484 7.30298C8.12125 7.4734 8.13484 7.63995 8.13484 7.8123C8.13484 8.85613 8.13484 9.28412 9.77794 10.4209C10.749 11.0852 12.1474 12.0089 13.2176 12.7119C13.302 12.7677 13.3707 12.8441 13.4173 12.9338C13.464 13.0235 13.4869 13.1235 13.484 13.2245C13.4811 13.3254 13.4524 13.424 13.4007 13.5108C13.349 13.5977 13.2759 13.67 13.1884 13.7209L10.4946 15.2702C9.93041 15.5945 9.28138 15.7421 8.63193 15.6938C7.98248 15.6454 7.36264 15.4033 6.853 14.999L6.0567 14.0307L5.74789 13.7596C5.6902 13.715 5.63509 13.6671 5.5828 13.6163L6.07029 13.1593C5.8526 13.244 5.63991 13.341 5.43325 13.4498C5.3129 13.5122 5.19618 13.5814 5.08366 13.657C4.91112 13.7566 4.75244 13.8783 4.61171 14.0191C4.34563 14.3019 4.10479 14.7938 3.94942 15.9151C3.90863 16.2036 3.87561 16.5154 3.84648 16.8427C3.83677 16.9705 3.82512 17.1022 3.81541 17.23C3.79599 17.5205 3.7785 17.811 3.76297 18.1015C3.72024 18.9458 3.69888 19.8018 3.67751 20.5416C3.67751 20.5842 3.67751 20.6268 3.67751 20.6675C3.6678 20.987 3.65809 21.2833 3.64838 21.5448C3.62896 23.0088 3.66392 25.0307 5.71099 26.1926C6.08195 26.4056 5.87802 26.2914 6.56749 26.6864C6.56621 26.5267 6.57399 26.367 6.5908 26.2081C6.8161 23.7486 8.58932 22.7513 10.7413 23.9926C10.8748 24.0687 11.0045 24.1515 11.1297 24.2405C12.1956 25.0247 13.07 26.0389 13.6876 27.2074C14.1254 28.0004 14.4583 28.8467 14.6781 29.725C14.7597 30.0716 14.8179 30.4183 14.8626 30.7572C14.9325 31.3246 14.9325 31.5086 14.9325 31.5086L17.8458 33.1857H17.8555L17.8808 33.2012C17.8906 33.2048 17.8998 33.2101 17.908 33.2167L17.939 33.2341C17.9489 33.2377 17.9581 33.2429 17.9662 33.2496H17.9759H17.9915L18.0148 33.2632C18.0305 33.2708 18.0455 33.2798 18.0595 33.2903C18.0758 33.2978 18.0914 33.3069 18.1061 33.3174L18.1566 33.3445L18.1721 33.3561L18.2634 33.4065L18.3178 33.4374L18.3741 33.4723L18.5431 33.5691C18.578 33.5866 18.613 33.6079 18.6518 33.6311L18.7528 33.6892L18.8344 33.7357L18.8732 33.7589L18.9198 33.7841L18.9451 33.7977L18.9995 33.8286C19.0752 33.8713 19.151 33.9177 19.2287 33.9603L22.2701 35.7033L23.3714 36.3385C23.6491 36.4953 23.9288 36.66 24.2065 36.8188C24.4842 36.9776 24.7658 37.1383 25.0436 37.3029C25.3213 37.4675 25.6049 37.6225 25.8846 37.7871C26.3021 38.0253 26.7216 38.2654 27.1392 38.5094L27.8151 38.8967L33.8767 42.3826C33.8767 42.2161 33.8883 42.0553 33.9 41.9004C34.1292 39.4409 35.9004 38.4397 38.0543 39.6811C38.1864 39.7566 38.3185 39.8418 38.4428 39.9328C39.4372 40.6184 40.3325 41.6854 41.0006 42.8997C41.4398 43.6919 41.7722 44.5384 41.9892 45.4173C42.0762 45.7568 42.141 46.1016 42.1834 46.4495C42.2534 47.0189 42.2533 47.2009 42.2533 47.2009L43.3876 47.8535C44.9359 48.7443 46.6911 49.2154 48.4786 49.2198C50.2661 49.2242 52.0237 48.7618 53.5763 47.8787C55.4603 46.8078 57.4161 45.6923 58.5736 45.0396C61.3354 43.4729 64.7439 41.0754 64.7439 37.7309V33.0966C64.775 31.0109 64.2934 29.2292 63.0173 27.8794Z" fill="#E0E0E0"/>
<path d="M28.9086 6.25143C29.9748 6.84596 31.045 7.43663 32.1249 8.00599C31.0897 7.35723 30.0428 6.72783 28.994 6.10425C27.9453 5.48066 30.5381 6.97378 29.4835 6.35794C28.4289 5.7421 27.3645 5.14563 26.2983 4.55302L24.696 3.66606C24.158 3.37751 23.6219 3.08508 23.0801 2.79846C23.5967 3.12575 24.1211 3.43948 24.6338 3.76676L26.207 4.70602C27.2558 5.33154 28.3143 5.93964 29.3669 6.55547C30.4196 7.17132 27.8346 5.65883 28.9086 6.25143ZM14.012 8.01955C14.5286 8.34683 15.053 8.66056 15.5657 8.98785L17.137 9.92904C18.1877 10.5526 19.2442 11.1607 20.2988 11.7785C21.3535 12.3963 18.7665 10.8877 19.8347 11.4803C20.9029 12.0729 21.9711 12.6635 23.0509 13.2329C22.0157 12.5841 20.9689 11.9567 19.9201 11.3331C18.8713 10.7095 21.4642 12.2026 20.4095 11.5848C19.3549 10.9671 18.2906 10.3745 17.2243 9.77992L15.6201 8.89295C15.0879 8.59665 14.5538 8.30229 14.012 8.01955ZM26.6518 8.11638C27.7141 8.71672 25.1213 7.22554 26.1876 7.81814C27.2538 8.41074 28.324 9.0014 29.4038 9.57077C28.3687 8.922 27.3218 8.29454 26.273 7.67096C25.2242 7.04737 27.8171 8.54049 26.7644 7.92272C25.7117 7.30494 24.6435 6.71234 23.5773 6.1178L21.975 5.23084C21.437 4.94228 20.9029 4.64986 20.361 4.36518C20.8757 4.69246 21.4001 5.00619 21.9147 5.33348L23.486 6.27467C24.5328 6.89051 25.5991 7.4986 26.6518 8.11638ZM22.5596 9.9058C23.6278 10.5003 24.696 11.091 25.7778 11.6604C24.7426 11.0116 23.6938 10.3822 22.645 9.75862C21.5962 9.13503 24.1891 10.6282 23.1364 10.0123C22.0837 9.39647 21.0175 8.8 19.9492 8.2074L18.3469 7.32043C17.8089 7.03188 17.2748 6.73945 16.733 6.45284C17.2496 6.78012 17.772 7.09385 18.2867 7.42114L19.858 8.36233C20.9067 8.98785 21.9652 9.59594 23.0199 10.2118C24.0745 10.8276 21.4933 9.3132 22.5596 9.9058Z" fill="#E0E0E0"/>
<path d="M63.0173 27.8774C62.9377 27.7941 62.8231 27.6837 62.6852 27.5694C62.6075 27.5017 62.5182 27.4281 62.4249 27.3525L62.3317 27.277L62.1239 27.1124L61.8947 26.9362C59.0572 24.7594 53.2772 20.8862 53.2772 20.8862C51.1155 18.2524 47.7439 15.0609 43.9119 11.6583C42.4592 10.4073 30.2137 3.71823 27.1702 2.0663C25.1484 0.966313 23.2218 0.1297 20.9339 0.1297C18.881 0.1297 16.5348 0.809448 13.5671 2.59887C8.83011 5.45149 8.21055 6.45078 8.12898 7.31063C8.11344 7.48105 8.12898 7.64372 8.12898 7.81608C8.12898 8.39706 8.12898 8.78438 8.40477 9.20075C8.55237 9.26853 8.70192 9.33244 8.84953 9.39441L8.82622 9.37117C8.74585 9.28754 8.67245 9.19752 8.60676 9.10199C8.35233 8.72435 8.35233 8.38157 8.35233 7.81221V7.69601C8.35233 7.5682 8.35233 7.44813 8.35233 7.32612C8.41642 6.61345 8.88643 5.67614 13.6798 2.78866C16.3988 1.14836 18.7722 0.352411 20.93 0.352411C23.0877 0.352411 24.9425 1.12705 27.0595 2.26965C30.773 4.29146 42.3698 10.6338 43.7624 11.8345C48.2605 15.8297 51.2282 18.754 53.1005 21.0334L53.3413 21.3278L53.3801 21.229C54.5726 22.0172 59.2533 25.199 61.7549 27.1182L61.9821 27.2944L62.188 27.4571L62.2501 27.5055L62.2812 27.5307L62.5337 27.7418C62.6638 27.8541 62.7726 27.9548 62.8503 28.0362C63.9923 29.2446 64.5477 30.9023 64.5477 33.1043V37.8025C64.5477 41.0947 61.0906 43.4418 58.49 44.9175L57.7598 45.33L56.5848 45.9982L56.3905 46.1105L56.2682 46.1802L55.6001 46.5675L54.9106 46.9548L53.4967 47.7527C51.9857 48.6124 50.276 49.0643 48.5363 49.0638C48.313 49.0638 48.0877 49.0638 47.8662 49.0406C47.2198 48.9976 46.5791 48.8919 45.9532 48.7249C45.7434 48.6707 45.5337 48.6068 45.3297 48.5312C44.7045 48.3215 44.102 48.0496 43.5313 47.7198L42.8165 47.3092L42.6398 47.2085L42.5019 47.1291C42.5019 47.0129 42.4786 46.8096 42.4378 46.4784C42.3946 46.1217 42.3298 45.768 42.2436 45.4191C42.021 44.5222 41.6815 43.6582 41.2337 42.8492C40.5989 41.6533 39.7021 40.6154 38.6098 39.8127C38.4622 39.71 38.3262 39.619 38.1961 39.5512C37.6341 39.204 36.9904 39.0103 36.3296 38.9896C34.8827 38.9896 33.8805 40.1206 33.7115 41.9429C33.7115 41.9855 33.7115 42.0281 33.7115 42.0688L28.9104 39.3091L28.8735 39.2898L28.6793 39.1794L27.9549 38.763L27.2829 38.3757L26.6497 38.0116L26.4885 37.9187L23.5616 36.228L23.5403 36.2164L23.517 36.2028L23.4684 36.1757L23.4257 36.1505L18.341 33.2282L18.2536 33.1778L18.1526 33.1197L18.0944 33.0868L18.0419 33.0558L18.2672 33.1856L17.5972 32.7983L17.5195 32.7537L17.434 32.7053L16.4008 32.1088L16.3037 32.0546L15.1384 31.3826C15.1384 31.2645 15.1131 31.0611 15.0723 30.7339C15.0278 30.378 14.9629 30.025 14.8781 29.6765C14.6541 28.78 14.3146 27.9162 13.8682 27.1066C13.4932 26.4263 13.0417 25.7908 12.5222 25.2126C12.5222 25.3346 12.5378 25.4566 12.5475 25.5767C12.9751 26.0841 13.3518 26.6323 13.672 27.2131C14.1094 28.0061 14.4417 28.8524 14.6606 29.7307C14.7455 30.0707 14.8103 30.4153 14.8548 30.7629C14.9247 31.3303 14.9247 31.5162 14.9247 31.5162L16.1988 32.2483L17.3291 32.9009L17.4923 32.9939L17.9351 33.2495L18.0478 33.3134L18.242 33.4219L23.3208 36.3461L23.414 36.4004L23.4568 36.4255L26.3914 38.1143L27.1838 38.5713L27.8597 38.9586L28.7745 39.4834H28.7648L28.8094 39.5105L33.9232 42.4542C33.9232 42.2876 33.9232 42.1269 33.9446 41.972C34.1058 40.229 35.0439 39.2201 36.3413 39.2201C36.9606 39.2421 37.5633 39.4257 38.0892 39.7526C38.2233 39.8281 38.3553 39.9134 38.4874 40.0044C39.5506 40.7872 40.4235 41.7986 41.0414 42.9635C41.4805 43.7557 41.8129 44.6022 42.03 45.4811C42.1159 45.8209 42.1808 46.1656 42.2242 46.5133C42.2922 47.0807 42.2922 47.2647 42.2922 47.2647L43.4264 47.9173C44.0107 48.2532 44.6267 48.5308 45.2657 48.7462C45.4773 48.8179 45.689 48.8818 45.9027 48.9399C46.5425 49.1109 47.1976 49.2192 47.8585 49.2633C48.0857 49.2788 48.3149 49.2865 48.5441 49.2865C50.3201 49.2874 52.0656 48.8254 53.6074 47.9464L55.0213 47.1427L55.7108 46.7554L56.3789 46.3681L56.6993 46.186L57.8744 45.5179L58.6027 45.1054C61.3645 43.5387 64.773 41.1431 64.773 37.7966V33.0984C64.773 31.0108 64.2933 29.2291 63.0173 27.8774Z" fill="#E0E0E0"/>
<path d="M43.6321 30.3794C44.5955 30.7811 45.5369 31.2336 46.4521 31.735C47.365 32.2346 48.2681 32.7614 49.1285 33.3482C49.7823 33.7542 50.4078 34.2039 51.0008 34.6941C51.8243 35.3351 52.5934 36.0498 53.3644 36.7469L52.8264 36.1756C52.6458 35.982 52.4691 35.7883 52.2768 35.6179C51.8883 35.2577 51.5135 34.8975 51.1115 34.5644C50.5298 34.0482 49.9076 33.5793 49.2508 33.1623C48.3757 32.5845 47.4678 32.0575 46.5318 31.5839C46.0618 31.3477 45.5859 31.1288 45.1062 30.9197C44.6265 30.7105 44.1332 30.5304 43.6321 30.3794ZM51.6436 25.6192C52.4865 26.2002 53.3023 26.8005 54.1005 27.4299C54.8987 28.0593 55.6834 28.7042 56.4311 29.3898C57.1789 30.0753 57.3168 30.1431 58.0315 30.8655C58.7462 31.5878 59.4357 32.3334 60.1252 33.0848C59.8125 32.682 59.5017 32.2772 59.1716 31.888C58.8414 31.4987 58.5054 31.1133 58.1539 30.7473C57.6609 30.2074 57.1348 29.6983 56.5787 29.2232C55.8135 28.5493 55.025 27.9005 54.2015 27.2866C53.7898 26.9845 53.3702 26.6921 52.9468 26.4074C52.5234 26.1227 52.0923 25.869 51.6436 25.6192Z" fill="#E0E0E0"/>
<path d="M50.6921 18.2039L50.8378 18.8139C51.1757 19.4453 51.9235 20.2431 52.1973 20.1695C52.4712 20.0959 52.5858 19.7629 52.6596 19.3329C52.6954 19.1275 52.7162 18.9197 52.7217 18.7113C52.745 18.0354 52.444 16.4571 51.502 16.0388C51.4077 15.998 51.3029 15.9882 51.2027 16.0108C51.1024 16.0334 51.012 16.0873 50.9446 16.1646C50.819 16.2896 50.7257 16.4431 50.6727 16.612C50.5096 17.0884 50.6708 18.1787 50.6921 18.2039Z" fill="#263238"/>
<path d="M50.8378 18.8139C51.1757 19.4453 51.9235 20.2431 52.1973 20.1695C52.4712 20.0959 52.5857 19.7629 52.6595 19.3329C52.6954 19.1275 52.7162 18.9197 52.7217 18.7113C52.745 18.0354 52.444 16.4571 51.502 16.0388C51.4077 15.998 51.3029 15.9882 51.2026 16.0108C51.1024 16.0334 51.012 16.0873 50.9446 16.1646L51.0728 16.4551C51.7312 16.734 51.9079 17.7468 51.8496 18.5176C51.7914 19.2884 51.2165 19.2129 50.8378 18.8139Z" fill="#455A64"/>
<path d="M50.6688 16.6142C50.9058 16.3624 51.4962 16.3508 51.9934 17.0325C52.4906 17.7141 52.6537 18.8819 52.6557 19.3351C52.6907 19.1289 52.7115 18.9205 52.7178 18.7115C52.7411 18.0356 52.4401 16.4592 51.4981 16.0409C51.1058 15.8666 50.7815 16.2656 50.6688 16.6142Z" fill="#37474F"/>
<path d="M13.1785 13.7209L10.4847 15.2702C9.33295 15.9345 7.80444 15.9054 6.84306 14.9991L5.46216 13.7016C5.8506 13.0431 7.28782 10.6243 8.59103 9.44104C8.94419 9.80842 9.33919 10.1334 9.768 10.4093C10.7391 11.0736 12.1375 11.9974 13.2076 12.7003C13.2947 12.7556 13.3659 12.8324 13.4143 12.9233C13.4626 13.0142 13.4865 13.116 13.4836 13.2189C13.4806 13.3217 13.451 13.4221 13.3975 13.5101C13.344 13.5981 13.2686 13.6707 13.1785 13.7209Z" fill="#37474F"/>
<path d="M34.1969 34.0765L35.4788 34.886C35.5063 34.9039 35.5293 34.9278 35.5458 34.9561C35.5623 34.9843 35.572 35.0161 35.574 35.0487L35.6012 35.6839C35.6027 35.7071 35.5976 35.7303 35.5866 35.7507C35.5755 35.7712 35.5589 35.7882 35.5387 35.7997C35.5184 35.8112 35.4953 35.8168 35.472 35.8159C35.4487 35.8149 35.4262 35.8074 35.4069 35.7943L34.127 34.9984C34.0993 34.9808 34.0762 34.9569 34.0596 34.9286C34.0431 34.9003 34.0336 34.8684 34.0319 34.8357L34.0008 34.1889C33.9986 34.1652 34.0032 34.1414 34.0142 34.1203C34.0251 34.0992 34.042 34.0816 34.0626 34.0698C34.0833 34.058 34.107 34.0523 34.1308 34.0535C34.1546 34.0547 34.1776 34.0627 34.1969 34.0765Z" fill="#2B6F7D"/>
<path d="M14.9187 31.5125V32.3782L33.9114 43.3122V42.4466L14.9187 31.5125Z" fill="#37474F"/>
<g opacity="0.2">
<path d="M20.6482 34.3901C20.6592 34.3896 20.67 34.387 20.6799 34.3823C20.6899 34.3777 20.6988 34.3711 20.7062 34.363C20.7136 34.3549 20.7193 34.3455 20.723 34.3352C20.7267 34.3249 20.7284 34.3139 20.7279 34.303C20.7279 34.2468 20.4249 28.6713 20.588 24.7168C20.5886 24.695 20.5805 24.6739 20.5656 24.658C20.5507 24.6421 20.5302 24.6326 20.5084 24.6316C20.4869 24.6316 20.4662 24.6398 20.4507 24.6546C20.4351 24.6694 20.4259 24.6896 20.4249 24.711C20.2617 28.6733 20.5608 34.2565 20.5647 34.3107C20.5657 34.3321 20.575 34.3523 20.5905 34.3671C20.6061 34.3819 20.6267 34.3902 20.6482 34.3901Z" fill="black"/>
</g>
<path opacity="0.2" d="M11.0519 22.3193C12.2067 22.7885 13.226 23.5373 14.0177 24.498C14.8382 25.4595 15.4736 26.5638 15.8919 27.7554C16.1308 28.4235 16.3658 29.1497 16.3813 29.8624C16.3813 29.9263 16.2726 29.9863 16.2473 29.9089C16.1424 29.5951 16.0745 29.2737 15.9909 28.9561C15.9074 28.6385 15.8161 28.3421 15.7132 28.04C15.5068 27.4309 15.2469 26.8412 14.9363 26.2777C14.3556 25.2224 13.58 24.286 12.6504 23.5181C12.1363 23.1069 11.5894 22.7383 11.015 22.4161C10.9704 22.3832 11.0053 22.3019 11.0519 22.3193Z" fill="black"/>
<path d="M28.6306 21.0277L31.2157 30.4609L32.9015 31.4292C33.7968 31.9445 34.802 32.2407 35.8344 32.2936C36.8669 32.3465 37.8972 32.1544 38.8407 31.7332C41.0742 30.7301 44.1313 29.2892 46.6328 27.8484C49.0173 26.4729 51.2803 24.898 53.3975 23.1405C53.6277 22.9478 53.7897 22.6864 53.8596 22.3949C53.9296 22.1034 53.9037 21.7972 53.7859 21.5215C51.667 18.7773 48.0584 15.3457 43.9176 11.6661C45.3723 12.9172 41.0451 15.4096 38.0231 17.1487C35.001 18.8877 31.3225 21.0064 29.4094 21.0606C29.1494 21.0705 28.8889 21.0594 28.6306 21.0277Z" fill="#37474F"/>
<path d="M13.8234 19.4784L31.2158 30.4589L28.6307 21.0277C27.044 20.834 25.5621 19.8967 23.0566 18.4539L18.5779 15.8763C18.293 15.7111 17.9694 15.6241 17.6399 15.6241C17.3103 15.6241 16.9867 15.7111 16.7018 15.8763L13.8506 17.5069C13.6777 17.6061 13.5337 17.7484 13.4326 17.9199C13.3316 18.0913 13.277 18.2861 13.2743 18.4849C13.2715 18.6838 13.3207 18.8799 13.417 19.0541C13.5133 19.2283 13.6534 19.3745 13.8234 19.4784Z" fill="#263238"/>
<path d="M29.4036 21.0547C29.6132 21.0444 29.8216 21.0178 30.027 20.9753C29.9047 21.4111 30.0484 21.9824 30.3106 23.0165C30.7495 24.7478 32.0411 28.9561 32.3946 30.0871C32.7481 31.218 33.8163 31.83 34.5951 32.1031C34.0015 31.9563 33.4315 31.7275 32.9015 31.4233L31.2157 30.455L28.6306 21.0276C28.8871 21.0571 29.1456 21.0662 29.4036 21.0547Z" fill="black"/>
<path d="M21.6467 24.5134L20.1299 23.5703L20.9592 17.2473L22.0235 17.8612L21.6467 24.5134Z" fill="black"/>
<path d="M43.904 12.9927C45.3316 13.8913 47.9555 16.5212 49.3538 18.0859C50.9775 19.9025 51.6981 21.5718 49.4471 20.1736C47.6991 19.0814 43.2321 16.3101 41.3442 15.1384C42.4688 14.3987 43.4379 13.6511 43.904 12.9927Z" fill="#455A64"/>
<path d="M43.0649 46.1493V48.5042C45.5509 50.1909 47.2212 50.2084 48.5031 50.2336C50.5696 50.2742 53.1643 48.9476 57.3517 46.5714C60.4942 44.7917 63.4211 42.4213 64.6738 41.1218L64.6874 41.1102C65.0953 40.6758 65.3205 40.1018 65.3166 39.5067V37.8954C65.3166 38.4493 61.5235 41.85 57.3537 44.2165C53.1838 46.583 50.5715 47.9154 48.505 47.8786C47.2212 47.8515 45.5509 47.836 43.0649 46.1493Z" fill="#37474F"/>
<path d="M43.0649 46.1494C45.5509 47.8361 47.2212 47.8516 48.5031 47.8787C50.5696 47.9155 53.1643 46.5928 57.3517 44.2166C61.5391 41.8404 65.3186 38.4572 65.3186 37.8956C65.3186 36.9427 64.7709 36.8207 64.7709 36.8207V37.5295C64.7709 37.5295 62.9258 39.7973 58.0839 42.7952C53.0769 45.8937 50.7968 47.0673 48.2622 47.0673C45.7277 47.0673 43.7952 45.6362 43.7952 45.6362L43.0649 46.1494Z" fill="#455A64"/>
<path opacity="0.2" d="M51.364 39.3092L52.6692 40.7133C52.8323 40.8893 53.0439 41.0134 53.2775 41.0699C53.5111 41.1264 53.7562 41.1128 53.9821 41.0309C55.4021 40.4956 56.7737 39.8406 58.0821 39.073C59.2858 38.3992 60.4323 37.6285 61.51 36.7684C61.6983 36.6128 61.8519 36.4199 61.9613 36.2018C62.0706 35.9837 62.1332 35.7454 62.1451 35.5019L62.2539 33.3968C62.2552 33.3787 62.2507 33.3607 62.2411 33.3453C62.2314 33.33 62.2171 33.3181 62.2002 33.3114C62.1833 33.3047 62.1647 33.3035 62.1472 33.3081C62.1296 33.3127 62.1139 33.3227 62.1024 33.3368C61.2576 34.3477 59.9407 35.4419 57.9539 36.5864C55.5223 37.9865 53.3858 38.8038 51.4106 39.1679C51.3957 39.1708 51.3818 39.1776 51.3704 39.1876C51.359 39.1976 51.3505 39.2105 51.3457 39.2249C51.341 39.2393 51.3401 39.2547 51.3434 39.2696C51.3466 39.2844 51.3537 39.2981 51.364 39.3092Z" fill="black"/>
<path d="M4.34548 16.833C4.174 16.8553 4.00034 16.8553 3.82886 16.833C3.85799 16.5057 3.89101 16.194 3.93179 15.9054C4.08717 14.7802 4.32023 14.2922 4.59408 14.0095L4.63098 14.0443C5.11975 14.4637 5.52781 14.9683 5.83514 15.5336C5.8804 15.6307 5.91178 15.7337 5.92837 15.8396C6.0313 16.6026 4.87376 16.7672 4.34548 16.833Z" fill="#2B6F7D"/>
<path d="M62.3315 37.516C62.3524 37.4952 62.3641 37.4669 62.3641 37.4375C62.3641 37.4081 62.3524 37.3799 62.3315 37.3591C62.3107 37.3383 62.2824 37.3266 62.2529 37.3266C62.2234 37.3266 62.1951 37.3383 62.1742 37.3591C60.1252 39.4119 55.9281 41.5848 53.2945 42.3226C53.2803 42.3264 53.2669 42.333 53.2553 42.342C53.2436 42.351 53.2339 42.3623 53.2267 42.3751C53.2194 42.3879 53.2148 42.402 53.2131 42.4166C53.2114 42.4312 53.2127 42.446 53.2168 42.4601C53.2229 42.4836 53.2368 42.5044 53.2561 42.5192C53.2755 42.5339 53.2993 42.5418 53.3236 42.5414C53.3339 42.5435 53.3445 42.5435 53.3547 42.5414C56.0155 41.79 60.2573 39.5939 62.3315 37.516ZM53.2168 43.3432C53.2236 43.3662 53.2376 43.3864 53.2569 43.4007C53.2762 43.415 53.2996 43.4227 53.3236 43.4226C53.3339 43.4246 53.3445 43.4246 53.3547 43.4226C56.0155 42.677 60.2573 40.479 62.3315 38.401C62.3524 38.3802 62.3641 38.352 62.3641 38.3225C62.3641 38.2931 62.3524 38.2649 62.3315 38.2441C62.3107 38.2233 62.2824 38.2116 62.2529 38.2116C62.2234 38.2116 62.1951 38.2233 62.1742 38.2441C60.1252 40.2989 55.9281 42.4698 53.2945 43.2096C53.2666 43.2173 53.2428 43.2356 53.2283 43.2606C53.2138 43.2856 53.2097 43.3152 53.2168 43.3432Z" fill="#455A64"/>
<path d="M51.1912 39.8125C51.0577 39.6569 50.8882 39.5359 50.6974 39.46C50.5066 39.3841 50.3001 39.3555 50.0958 39.3768C48.6625 39.524 46.2988 39.5221 44.7664 39.0766C42.9854 38.5557 42.6553 38.5131 42.9854 39.464C43.3156 40.4148 44.176 41.6775 45.7278 41.9448C48.5071 42.4231 50.7367 42.1384 51.8535 41.6194C52.4109 41.3502 51.7234 40.4284 51.1912 39.8125Z" fill="#2B6F7D"/>
<path opacity="0.8" d="M51.1912 39.8125C51.0577 39.6569 50.8882 39.5359 50.6974 39.46C50.5066 39.3841 50.3001 39.3555 50.0958 39.3768C48.6625 39.524 46.2988 39.5221 44.7664 39.0766C42.9854 38.5557 42.6553 38.5131 42.9854 39.464C43.3156 40.4148 44.176 41.6775 45.7278 41.9448C48.5071 42.4231 50.7367 42.1384 51.8535 41.6194C52.4109 41.3502 51.7234 40.4284 51.1912 39.8125Z" fill="white"/>
<path d="M45.7278 41.943C44.174 41.6758 43.3136 40.4131 42.9854 39.4622C42.6746 38.5656 42.9504 38.554 44.475 38.9897C45.0791 40.1381 45.889 41.18 46.9999 41.8404C47.1825 41.9488 47.3728 42.0476 47.5554 42.158C46.9427 42.1189 46.3327 42.0472 45.7278 41.943Z" fill="#2B6F7D"/>
<path d="M62.6968 33.1546C62.7029 32.8085 62.7978 32.4698 62.9726 32.1708C63.4349 31.3379 63.6618 30.3954 63.6291 29.444C63.5669 28.3731 64.0311 28.5842 64.2836 29.0044C64.5361 29.4247 65.1828 30.9526 64.773 32.4128C64.4331 33.629 63.5183 34.8723 62.8988 35.5559C62.8749 35.5824 62.8434 35.6008 62.8086 35.6087C62.7738 35.6165 62.7374 35.6134 62.7044 35.5999C62.6714 35.5863 62.6435 35.5629 62.6244 35.5328C62.6053 35.5028 62.596 35.4675 62.5977 35.432C62.6327 34.8588 62.6871 33.8692 62.6968 33.1546Z" fill="#2B6F7D"/>
<path opacity="0.8" d="M62.6968 33.1546C62.7029 32.8085 62.7978 32.4698 62.9726 32.1708C63.4349 31.3379 63.6618 30.3954 63.6291 29.444C63.5669 28.3731 64.0311 28.5842 64.2836 29.0044C64.5361 29.4247 65.1828 30.9526 64.773 32.4128C64.4331 33.629 63.5183 34.8723 62.8988 35.5559C62.8749 35.5824 62.8434 35.6008 62.8086 35.6087C62.7738 35.6165 62.7374 35.6134 62.7044 35.5999C62.6714 35.5863 62.6435 35.5629 62.6244 35.5328C62.6053 35.5028 62.596 35.4675 62.5977 35.432C62.6327 34.8588 62.6871 33.8692 62.6968 33.1546Z" fill="white"/>
<path d="M63.7454 35.523C63.5656 35.8914 63.4745 36.2966 63.4794 36.7063C63.4724 36.8186 63.4952 36.9308 63.5454 37.0316C63.6697 37.2369 63.9144 37.1536 64.0931 37.0742C64.1838 37.0334 64.2698 36.9827 64.3495 36.9232C64.5033 36.8086 64.6452 36.6788 64.7729 36.5359V34.1577C64.7107 34.2081 64.6466 34.272 64.5786 34.3359C64.2324 34.6791 63.9502 35.0811 63.7454 35.523ZM45.6131 45.2177C45.9422 45.5799 46.3758 45.8316 46.8542 45.9381C47.4912 46.0583 48.148 46.0211 48.7673 45.8296C50.6687 45.3416 50.7561 44.4953 48.6682 43.9589C47.6155 43.6877 45.9686 43.4844 45.3335 43.9027C44.9081 44.1835 45.3898 44.962 45.6131 45.2177Z" fill="#2B6F7D"/>
<path d="M27.2787 30.0485C27.5817 31.4854 29.1762 31.7914 30.3726 31.7527C30.8204 31.7588 31.2655 31.6826 31.6856 31.528C32.1459 31.2608 31.9342 30.7108 31.6856 30.3912C31.266 29.8509 29.3879 28.7664 28.209 28.7296C27.5215 28.7064 27.069 29.0414 27.2787 30.0485Z" fill="#263238"/>
<path d="M27.2787 30.0485C27.5817 31.4854 29.1762 31.7914 30.3726 31.7527C30.8204 31.7588 31.2655 31.6826 31.6856 31.528C32.1459 31.2608 31.9342 30.7108 31.6856 30.3912C31.9167 30.8309 30.6873 31.102 29.5899 30.7088C28.4926 30.3157 27.6769 29.4714 28.209 28.7296C27.5215 28.7064 27.069 29.0414 27.2787 30.0485Z" fill="#455A64"/>
<path d="M27.2787 30.0485C27.5817 31.4854 29.1762 31.7914 30.3726 31.7527C29.1821 31.7178 28.2362 31.0361 27.8769 30.2905C27.5176 29.5449 27.7914 28.8226 28.211 28.7296C27.5215 28.7064 27.069 29.0414 27.2787 30.0485Z" fill="#37474F"/>
<path d="M4.45818 26.2759L5.68953 26.9847V24.5814C3.90854 23.5569 4.14937 23.7951 3.67936 23.1483C3.50714 22.9296 3.39712 22.6687 3.36084 22.393C3.36278 24.5446 3.47931 25.7123 4.45818 26.2759Z" fill="#263238"/>
<path d="M3.36279 22.3928C3.39907 22.6685 3.50909 22.9293 3.68131 23.148C4.15132 23.7949 3.91049 23.5567 5.69148 24.5811L6.37125 24.1822C6.37125 24.1822 6.0974 24.0118 5.04279 23.4075C3.98818 22.8033 3.74541 22.3443 3.68326 21.9473C3.64247 21.6685 3.62887 21.5406 3.62887 21.5406C3.40164 21.7227 3.36279 21.9764 3.36279 22.3928Z" fill="#455A64"/>
<path d="M6.36922 24.1822V26.5933L5.68945 26.9845V24.5831L6.36922 24.1822Z" fill="#37474F"/>
</svg>
