<svg width="70" height="58" viewBox="0 0 70 58" fill="none" xmlns="http://www.w3.org/2000/svg">
<path d="M33.7133 57.0895C51.05 57.0895 65.1041 56.2561 65.1041 55.228C65.1041 54.1999 51.05 53.3665 33.7133 53.3665C16.3767 53.3665 2.32251 54.1999 2.32251 55.228C2.32251 56.2561 16.3767 57.0895 33.7133 57.0895Z" fill="#2B6F7D"/>
<path opacity="0.6" d="M33.7133 57.0895C51.05 57.0895 65.1041 56.2561 65.1041 55.228C65.1041 54.1999 51.05 53.3665 33.7133 53.3665C16.3767 53.3665 2.32251 54.1999 2.32251 55.228C2.32251 56.2561 16.3767 57.0895 33.7133 57.0895Z" fill="white"/>
<path d="M8.07578 15.7874H60.3491C60.8144 15.7874 61.2606 15.9717 61.5897 16.2998C61.9187 16.6279 62.1035 17.0729 62.1035 17.5368V51.8896H6.323V17.5368C6.323 17.0731 6.50761 16.6284 6.83628 16.3004C7.16494 15.9724 7.61076 15.7879 8.07578 15.7874Z" fill="#2B6F7D" stroke="#263238" stroke-width="0.920603" stroke-miterlimit="10"/>
<path d="M59.8409 18.6089H8.58569V47.491H59.8409V18.6089Z" fill="white"/>
<g style="mix-blend-mode:multiply" opacity="0.4">
<path d="M59.8409 47.4912V22.8372L17.4436 47.4912H59.8409Z" fill="#2B6F7D"/>
</g>
<path d="M59.8409 18.6089H8.58569V47.491H59.8409V18.6089Z" stroke="#263238" stroke-width="0.690452" stroke-miterlimit="10"/>
<path d="M53.5074 50.152H15.1725V52.0352H53.5074V50.152Z" fill="#2B6F7D" stroke="#263238" stroke-width="0.691688" stroke-miterlimit="10"/>
<path d="M53.5074 51.0602H15.1725V52.0369H53.5074V51.0602Z" fill="#2B6F7D" stroke="#263238" stroke-width="0.691688" stroke-miterlimit="10"/>
<path d="M1.81104 53.1525C1.81104 53.1525 2.4417 53.9202 4.327 54.5474H64.3511C64.3511 54.5474 65.75 54.1978 66.3807 53.2211L1.81104 53.1525Z" fill="#2B6F7D" stroke="#263238" stroke-width="0.920603" stroke-miterlimit="10"/>
<path d="M66.0637 51.7776H2.13647C1.88635 51.7776 1.68359 51.9798 1.68359 52.2292V52.7928C1.68359 53.0422 1.88635 53.2444 2.13647 53.2444H66.0637C66.3138 53.2444 66.5166 53.0422 66.5166 52.7928V52.2292C66.5166 51.9798 66.3138 51.7776 66.0637 51.7776Z" fill="#2B6F7D" stroke="#263238" stroke-width="0.920603" stroke-miterlimit="10"/>
<path d="M34.2016 17.368C34.4721 17.368 34.6913 17.1493 34.6913 16.8796C34.6913 16.6099 34.4721 16.3912 34.2016 16.3912C33.9311 16.3912 33.7118 16.6099 33.7118 16.8796C33.7118 17.1493 33.9311 17.368 34.2016 17.368Z" fill="#263238"/>
<path d="M27.7304 16.3913H15.4861C15.4539 16.3913 15.4221 16.3849 15.3924 16.3727C15.3627 16.3604 15.3357 16.3424 15.3129 16.3197C15.2902 16.2971 15.2722 16.2701 15.2599 16.2405C15.2475 16.2109 15.2412 16.1791 15.2412 16.1471C15.2412 16.115 15.2475 16.0833 15.2599 16.0536C15.2722 16.024 15.2902 15.9971 15.3129 15.9744C15.3357 15.9517 15.3627 15.9338 15.3924 15.9215C15.4221 15.9092 15.4539 15.9029 15.4861 15.9029H27.7304C27.7953 15.9033 27.8573 15.9292 27.9031 15.9749C27.9489 16.0206 27.9749 16.0824 27.9753 16.1471C27.9753 16.2118 27.9495 16.2739 27.9036 16.3197C27.8577 16.3655 27.7954 16.3913 27.7304 16.3913Z" fill="#2B6F7D" stroke="#263238" stroke-width="0.691688" stroke-miterlimit="10"/>
<path d="M52.7038 16.3913H40.4595C40.3945 16.3913 40.3322 16.3655 40.2863 16.3197C40.2404 16.2739 40.2146 16.2118 40.2146 16.1471C40.215 16.0824 40.241 16.0206 40.2868 15.9749C40.3326 15.9292 40.3947 15.9033 40.4595 15.9029H52.7038C52.7688 15.9029 52.8311 15.9286 52.877 15.9744C52.9229 16.0202 52.9487 16.0823 52.9487 16.1471C52.9487 16.2118 52.9229 16.2739 52.877 16.3197C52.8311 16.3655 52.7688 16.3913 52.7038 16.3913Z" fill="#2B6F7D" stroke="#263238" stroke-width="0.691688" stroke-miterlimit="10"/>
<path d="M61.6234 25.9478C61.5864 25.9478 61.5509 25.9332 61.5246 25.9072C61.4983 25.8812 61.4834 25.8459 61.4829 25.809V21.7632C61.4833 21.7261 61.4983 21.6906 61.5245 21.6644C61.5508 21.6381 61.5863 21.6232 61.6234 21.6227C61.6604 21.6232 61.6957 21.6382 61.7217 21.6645C61.7476 21.6908 61.7622 21.7263 61.7622 21.7632V25.809C61.7622 25.8458 61.7476 25.8811 61.7216 25.9071C61.6955 25.9332 61.6602 25.9478 61.6234 25.9478Z" fill="#2B6F7D" stroke="#263238" stroke-width="0.691688" stroke-miterlimit="10"/>
<path d="M6.84756 25.9478C6.82933 25.9478 6.81127 25.9442 6.79443 25.9372C6.77759 25.9302 6.76229 25.92 6.7494 25.9071C6.73651 25.8942 6.72628 25.8789 6.71931 25.8621C6.71233 25.8452 6.70874 25.8272 6.70874 25.809V21.7632C6.70874 21.7263 6.72331 21.6908 6.74929 21.6645C6.77528 21.6382 6.81059 21.6232 6.84756 21.6227C6.88468 21.6232 6.92016 21.6381 6.94642 21.6644C6.97267 21.6906 6.98761 21.7261 6.98804 21.7632V25.809C6.9876 25.8459 6.97261 25.8812 6.94631 25.9072C6.92001 25.9332 6.88453 25.9478 6.84756 25.9478Z" fill="#2B6F7D" stroke="#263238" stroke-width="0.691688" stroke-miterlimit="10"/>
<path d="M29.3574 30.2446H19.0587C18.3482 30.2446 17.7722 30.8189 17.7722 31.5274V53.2061C17.7722 53.9145 18.3482 54.4888 19.0587 54.4888H29.3574C30.0679 54.4888 30.6439 53.9145 30.6439 53.2061V31.5274C30.6439 30.8189 30.0679 30.2446 29.3574 30.2446Z" fill="#263238"/>
<path d="M30.072 32.9073H18.3442V51.8281H30.072V32.9073Z" fill="white"/>
<mask id="mask0_839_2864" style="mask-type:luminance" maskUnits="userSpaceOnUse" x="18" y="32" width="13" height="20">
<path d="M30.072 32.9073H18.3442V51.8281H30.072V32.9073Z" fill="white"/>
</mask>
<g mask="url(#mask0_839_2864)">
<g style="mix-blend-mode:multiply" opacity="0.4">
<path d="M30.0721 45.469L19.1394 51.8261H30.0721V45.469Z" fill="#2B6F7D"/>
</g>
</g>
<path d="M30.072 32.9073H18.3442V51.8281H30.072V32.9073Z" stroke="#263238" stroke-width="0.52825" stroke-miterlimit="10"/>
<path d="M25.4829 31.5828H22.9334C22.8889 31.5828 22.8462 31.5652 22.8148 31.5339C22.7833 31.5025 22.7656 31.46 22.7656 31.4156C22.7656 31.3712 22.7833 31.3287 22.8148 31.2973C22.8462 31.266 22.8889 31.2484 22.9334 31.2484H25.4829C25.5273 31.2484 25.57 31.266 25.6015 31.2973C25.6329 31.3287 25.6506 31.3712 25.6506 31.4156C25.6506 31.46 25.6329 31.5025 25.6015 31.5339C25.57 31.5652 25.5273 31.5828 25.4829 31.5828Z" fill="#2B6F7D"/>
<path opacity="0.4" d="M25.4829 31.5828H22.9334C22.8889 31.5828 22.8462 31.5652 22.8148 31.5339C22.7833 31.5025 22.7656 31.46 22.7656 31.4156C22.7656 31.3712 22.7833 31.3287 22.8148 31.2973C22.8462 31.266 22.8889 31.2484 22.9334 31.2484H25.4829C25.5273 31.2484 25.57 31.266 25.6015 31.2973C25.6329 31.3287 25.6506 31.3712 25.6506 31.4156C25.6506 31.46 25.6329 31.5025 25.6015 31.5339C25.57 31.5652 25.5273 31.5828 25.4829 31.5828Z" fill="white"/>
<path d="M24.9043 52.8952C24.9043 52.7579 24.8634 52.6237 24.7869 52.5096C24.7105 52.3954 24.6017 52.3065 24.4745 52.2539C24.3474 52.2014 24.2074 52.1877 24.0724 52.2144C23.9373 52.2412 23.8133 52.3073 23.716 52.4044C23.6186 52.5015 23.5523 52.6251 23.5255 52.7598C23.4986 52.8944 23.5124 53.034 23.5651 53.1608C23.6178 53.2876 23.707 53.396 23.8214 53.4723C23.9359 53.5486 24.0705 53.5893 24.2082 53.5893C24.3928 53.5893 24.5698 53.5161 24.7004 53.386C24.8309 53.2558 24.9043 53.0793 24.9043 52.8952Z" fill="#2B6F7D" stroke="#263238" stroke-width="0.704333" stroke-miterlimit="10"/>
<path d="M24.5604 52.544H23.856V53.2465H24.5604V52.544Z" fill="#2B6F7D" stroke="#263238" stroke-width="0.52825" stroke-linecap="round" stroke-linejoin="round"/>
<path opacity="0.6" d="M24.5604 52.544H23.856V53.2465H24.5604V52.544Z" fill="white" stroke="#263238" stroke-width="0.52825" stroke-linecap="round" stroke-linejoin="round"/>
<path d="M24.5604 52.544H23.856V53.2465H24.5604V52.544Z" stroke="#263238" stroke-width="0.52825" stroke-linecap="round" stroke-linejoin="round"/>
<path d="M64.2018 52.6791V37.7154C64.2018 36.6827 63.3622 35.8456 62.3266 35.8456H30.6472C29.6116 35.8456 28.772 36.6827 28.772 37.7154V52.6791C28.772 53.7118 29.6116 54.5489 30.6472 54.5489H62.3266C63.3622 54.5489 64.2018 53.7118 64.2018 52.6791Z" fill="#D9D9D9" stroke="#263238" stroke-width="0.868674" stroke-miterlimit="10"/>
<path d="M62.3131 53.7175V36.6766H30.6606V53.7175H62.3131Z" fill="white"/>
<mask id="mask1_839_2864" style="mask-type:luminance" maskUnits="userSpaceOnUse" x="30" y="36" width="33" height="18">
<path d="M62.313 53.7174V36.6765H30.6605V53.7174H62.313Z" fill="white"/>
</mask>
<g mask="url(#mask1_839_2864)">
<g style="mix-blend-mode:multiply" opacity="0.4">
<path d="M62.3131 40.0966L38.8928 53.7156H62.3131V40.0966Z" fill="#D9D9D9"/>
</g>
</g>
<path d="M62.3131 53.7175V36.6766H30.6606V53.7175H62.3131Z" stroke="#263238" stroke-width="0.651505" stroke-miterlimit="10"/>
<path d="M63.1652 45.4522C63.114 45.4522 63.064 45.437 63.0215 45.4087C62.979 45.3803 62.9459 45.34 62.9264 45.2928C62.9069 45.2456 62.9018 45.1938 62.9119 45.1438C62.9221 45.0938 62.9468 45.0479 62.9831 45.0119C63.0194 44.976 63.0656 44.9516 63.1158 44.9418C63.166 44.9321 63.218 44.9374 63.2652 44.9572C63.3123 44.9769 63.3526 45.0102 63.3808 45.0528C63.4089 45.0953 63.4238 45.1453 63.4235 45.1963C63.423 45.2643 63.3956 45.3294 63.3472 45.3773C63.2988 45.4253 63.2334 45.4522 63.1652 45.4522Z" fill="#263238"/>
<path d="M58.5794 36.0161H59.7116C59.7459 36.0161 59.7737 35.9884 59.7737 35.9542V35.9074C59.7737 35.8732 59.7459 35.8455 59.7116 35.8455H58.5794C58.5452 35.8455 58.5174 35.8732 58.5174 35.9074V35.9542C58.5174 35.9884 58.5452 36.0161 58.5794 36.0161Z" fill="#D9D9D9" stroke="#263238" stroke-width="0.652671" stroke-miterlimit="10"/>
<path d="M54.5807 36.0143H56.7494C56.7608 36.0145 56.7721 36.0125 56.7827 36.0083C56.7932 36.0041 56.8029 35.9979 56.811 35.9899C56.8191 35.982 56.8256 35.9725 56.83 35.962C56.8344 35.9516 56.8366 35.9403 56.8366 35.929C56.8366 35.9177 56.8344 35.9064 56.83 35.896C56.8256 35.8855 56.8191 35.876 56.811 35.8681C56.8029 35.8601 56.7932 35.8539 56.7827 35.8497C56.7721 35.8455 56.7608 35.8435 56.7494 35.8437H54.5807C54.558 35.8437 54.5362 35.8527 54.5202 35.8687C54.5041 35.8847 54.4951 35.9064 54.4951 35.929C54.4951 35.9516 54.5041 35.9733 54.5202 35.9893C54.5362 36.0053 54.558 36.0143 54.5807 36.0143Z" fill="#D9D9D9" stroke="#263238" stroke-width="0.652671" stroke-miterlimit="10"/>
</svg>
