<svg width="61" height="62" viewBox="0 0 61 62" fill="none" xmlns="http://www.w3.org/2000/svg">
<g opacity="0.3">
<path d="M45.5201 55.0632V48.6815" stroke="black" stroke-miterlimit="10"/>
<path d="M45.0331 55.0632V48.7091" stroke="black" stroke-miterlimit="10"/>
<path d="M47.6281 17.7707C47.6288 17.7799 47.6288 17.7891 47.6281 17.7983C47.6163 17.9577 47.5649 18.7529 47.7598 19.1927C47.8481 19.3237 47.9818 19.4174 48.135 19.456" stroke="black" stroke-miterlimit="10"/>
<path d="M50.343 22.2881V22.2868" stroke="black" stroke-miterlimit="10"/>
<path d="M42.5459 19.2229C42.5546 19.2138 42.5621 19.2037 42.5683 19.1927C42.7447 18.8819 42.8316 17.7707 42.8316 17.7707" stroke="black" stroke-miterlimit="10"/>
<path d="M51.3134 48.0126V48.0481C51.3134 48.0481 48.7512 48.4826 45.5202 48.6814C45.3596 48.6906 45.1976 48.7012 45.033 48.7091H44.9211C41.4136 48.8868 39.016 48.0429 39.016 48.0429L39.0278 47.8677" stroke="black" stroke-miterlimit="10"/>
<path d="M50.2574 20.0077V20.009L50.2627 20.1499" stroke="black" stroke-miterlimit="10"/>
<path d="M37.4505 46.4418L37.4268 46.95V46.9777C36.8998 47.0012 36.3718 46.9871 35.8468 46.9355C35.5103 46.8813 35.1859 46.7686 34.8883 46.6024V46.0376" stroke="black" stroke-miterlimit="10"/>
<path d="M36.2998 20.7529C36.2994 20.7573 36.2994 20.7617 36.2998 20.7661C35.966 22.1864 35.7576 23.6332 35.677 25.0899C35.5519 27.4599 34.9278 43.8928 34.8028 44.5617C34.7252 45.0297 34.6965 45.5045 34.7172 45.9784C34.7172 45.9784 34.7791 46.0021 34.8857 46.039C35.3859 46.2192 35.9022 46.3515 36.4275 46.434C36.7682 46.4716 37.1119 46.4738 37.4531 46.4405C37.4619 46.4393 37.4707 46.4393 37.4795 46.4405" stroke="black" stroke-miterlimit="10"/>
<path d="M37.9614 41.3162V41.307C38.0931 37.3873 38.2511 32.5474 38.3011 32.0102C38.3275 31.7218 38.3617 31.2887 38.3972 30.8252" stroke="black" stroke-miterlimit="10"/>
<path d="M42.8883 31.8442C42.8883 32.0523 42.1378 48.0218 42.1378 48.0218C42.1378 48.0218 39.8995 48.135 39.016 47.869C38.4339 47.6765 37.8941 47.3744 37.4255 46.979C37.4255 46.979 38.7962 32.7856 38.7198 32.3274C38.6434 31.8693 36.9318 23.9628 36.5566 22.6291C36.1813 21.2953 36.3064 20.7529 36.3064 20.7529C36.3064 20.7529 38.7053 20.0498 40.5354 19.5363C41.6085 19.2348 42.488 19.0018 42.5749 19.0097C42.5749 19.0097 41.8521 25.6692 42.2694 28.3394C42.6868 31.0095 42.8883 31.6362 42.8883 31.8442Z" stroke="black" stroke-miterlimit="10"/>
<path d="M42.8883 31.8442C42.1188 30.4624 41.4495 29.0271 40.8857 27.5494C40.0101 25.215 39.4677 22.1696 39.4677 22.1696L40.8857 20.5896L40.1352 20.1301L40.5302 19.5389C41.6032 19.2374 42.4828 19.0044 42.5697 19.0123C42.5697 19.0123 41.8468 25.6718 42.2642 28.342C42.6816 31.0121 42.8883 31.6362 42.8883 31.8442Z" stroke="black" stroke-miterlimit="10"/>
<path d="M53.6872 47.2318L53.6649 47.241C52.9034 47.5624 52.117 47.8209 51.3133 48.0139C50.8067 48.1379 50.2888 48.2106 49.7676 48.2311C48.5843 48.2471 47.4011 48.1912 46.2245 48.0639C46.2245 48.0639 45.1818 32.4683 45.0988 32.1326C45.0159 31.7968 45.3068 31.0898 46.0205 29.0885C46.0797 28.92 46.1521 28.7106 46.214 28.4671C46.2259 28.4276 46.2377 28.3854 46.2482 28.3433C46.2693 28.2669 46.293 28.1879 46.3141 28.105C46.3957 27.7956 46.4826 27.4467 46.5708 27.0754C46.5998 26.9529 46.6301 26.8278 46.659 26.7001C46.7275 26.4052 46.7964 26.098 46.8657 25.7785C46.8868 25.6837 46.9079 25.5876 46.9276 25.4928C46.9882 25.2163 47.0488 24.9358 47.108 24.6541C47.1343 24.529 47.162 24.4039 47.1883 24.2788C47.32 23.6626 47.4411 23.0504 47.557 22.4737C47.557 22.4395 47.5688 22.4079 47.5767 22.375C47.5965 22.2736 47.6162 22.1748 47.6347 22.0774C47.6465 22.0208 47.6584 21.9629 47.6689 21.9063C47.819 21.1479 47.948 20.4803 48.0389 19.9984C48.0389 19.9682 48.0507 19.9379 48.056 19.9089C48.0929 19.7167 48.1218 19.5587 48.1442 19.4402L48.189 19.2006C48.3417 19.2703 49.1225 19.3981 50.0665 19.5429C51.7531 19.8062 53.9585 20.1222 53.9848 20.2842C54.0111 20.4461 53.5266 24.5988 53.1277 27.9773L53.1119 28.1089C52.8485 30.3801 52.6181 32.2603 52.6181 32.2603L53.4226 43.428V43.4372" stroke="black" stroke-miterlimit="10"/>
<path d="M50.5603 21.5863C50.5603 21.5863 49.3503 25.7996 47.6822 28.0497C46.7154 29.3406 45.8512 30.7053 45.0976 32.1313C45.0146 31.7969 45.3056 31.0885 46.0192 29.0872C46.7329 27.0859 48.1877 19.2045 48.1877 19.2045C48.3378 19.2756 49.1199 19.4033 50.064 19.5482L50.3128 20.1222L49.1041 20.7068L50.5603 21.5863Z" stroke="black" stroke-miterlimit="10"/>
<path d="M53.6636 47.2318V47.241L53.6846 47.8559C54.1523 47.9676 54.6263 48.0512 55.104 48.1061C55.8531 48.1903 56.8959 47.8559 56.8959 47.8559V47.0659" stroke="black" stroke-miterlimit="10"/>
<path d="M53.9783 20.2947C53.9783 20.2947 54.9381 20.6278 55.3963 22.5041C55.8545 24.3803 57.6477 33.2623 57.6477 34.4289C57.6477 35.5954 57.2304 47.0212 57.2304 47.0212C56.4011 47.1381 55.5659 47.2076 54.7288 47.2292H53.395C53.395 47.2292 53.4371 38.4736 53.478 37.806C53.5188 37.1385 52.8407 30.4895 52.8407 30.4895L53.9783 20.2947Z" stroke="black" stroke-miterlimit="10"/>
<path d="M45.5202 17.2427C46.7052 17.2743 47.6268 17.4982 47.6268 17.7694C47.6275 17.7786 47.6275 17.7878 47.6268 17.797C47.5623 18.0788 46.5169 18.3026 45.2332 18.3026C43.9165 18.3026 42.8356 18.0643 42.8356 17.776C42.8356 17.4876 43.8046 17.2678 45.0344 17.2493" stroke="black" stroke-miterlimit="10"/>
<path d="M45.2767 18.0591C45.2121 18.0591 45.1501 18.0334 45.1044 17.9877C45.0587 17.942 45.0331 17.8801 45.0331 17.8155V15.2849C45.0331 15.2203 45.0587 15.1583 45.1044 15.1127C45.1501 15.067 45.2121 15.0413 45.2767 15.0413C45.3413 15.0413 45.4032 15.067 45.4489 15.1127C45.4946 15.1583 45.5202 15.2203 45.5202 15.2849V17.8155C45.5202 17.8801 45.4946 17.942 45.4489 17.9877C45.4032 18.0334 45.3413 18.0591 45.2767 18.0591Z" stroke="black" stroke-miterlimit="10"/>
</g>
<path d="M13.5061 55.0631V47.8664H13.9906V55.0631" fill="white"/>
<path d="M13.5061 55.0631V47.8664H13.9906V55.0631" stroke="#263238" stroke-miterlimit="10"/>
<path d="M11.3205 17.9721C11.3205 17.9721 11.2323 19.0754 11.0572 19.3849C10.8821 19.6943 9.2468 20.1353 9.2468 20.1353L7.52332 48.0863C7.52332 48.0863 9.90775 48.9263 13.3955 48.7446C15.5249 48.6364 17.6472 48.4166 19.7536 48.0863L18.7003 19.9589C18.7003 19.9589 16.4475 19.8707 16.2263 19.3849C16.0051 18.899 16.0946 17.9721 16.0946 17.9721H11.3205Z" fill="white" stroke="#263238" stroke-miterlimit="10"/>
<path d="M3.4115 45.5715V46.6499C3.70759 46.8149 4.03015 46.9272 4.36474 46.9817C4.88979 47.0323 5.41775 47.046 5.94471 47.0225L5.98553 46.11L3.4115 45.5715Z" fill="white" stroke="#263238" stroke-miterlimit="10"/>
<path d="M4.82026 20.9372C4.48648 22.3539 4.27852 23.7973 4.1988 25.2505C4.06714 27.6205 3.45227 43.9534 3.32851 44.617C3.25187 45.0828 3.22407 45.5554 3.24556 46.0271C3.24556 46.0271 4.23962 46.401 4.94534 46.484C5.40116 46.5313 5.86128 46.5171 6.31332 46.4418C6.31332 46.4418 6.72543 33.0477 6.81101 32.1352C6.8966 31.2228 7.05986 28.8581 7.05986 28.8581C7.05986 28.8581 6.14743 22.7213 5.61156 21.8088C5.07568 20.8964 4.82026 20.9372 4.82026 20.9372Z" fill="#2B6F7D" stroke="#263238" stroke-miterlimit="10"/>
<path d="M11.3732 31.9693C11.3732 32.1761 10.6267 48.06 10.6267 48.06C10.6267 48.06 8.40025 48.1719 7.52205 47.9086C6.94395 47.7161 6.40775 47.4154 5.94209 47.0225C5.94209 47.0225 7.30481 32.9055 7.22186 32.4499C7.13891 31.9944 5.4444 24.1314 5.07179 22.8042C4.69918 21.4771 4.82163 20.9386 4.82163 20.9386C4.82163 20.9386 7.20738 20.2381 9.03487 19.7272C10.1027 19.4284 10.9769 19.2006 11.0638 19.2072C11.0638 19.2072 10.3436 25.8312 10.7597 28.4855C11.1757 31.1399 11.3732 31.7613 11.3732 31.9693Z" fill="#2B6F7D" stroke="#263238" stroke-miterlimit="10"/>
<path d="M11.3732 31.9693C10.6083 30.595 9.94296 29.1676 9.38241 27.6981C8.51079 25.3756 7.97229 22.3473 7.97229 22.3473L9.38241 20.7673L8.63588 20.3105L9.03087 19.7219C10.0987 19.4231 10.9729 19.1953 11.0598 19.2019C11.0598 19.2019 10.3396 25.8259 10.7557 28.4802C11.1717 31.1346 11.3732 31.7613 11.3732 31.9693Z" fill="#2B6F7D" stroke="#263238" stroke-miterlimit="10"/>
<path d="M21.0452 32.392L22.1143 47.27C22.1143 47.27 19.9577 48.2232 18.2158 48.264C17.0386 48.2797 15.8616 48.2243 14.6911 48.0981C14.6911 48.0981 13.6536 32.5908 13.572 32.2603C13.4904 31.9298 13.78 31.2228 14.4844 29.232C15.1888 27.2413 16.6411 19.4033 16.6411 19.4033C16.7912 19.4731 17.5627 19.6008 18.5081 19.7443C20.1855 20.0077 22.379 20.321 22.4053 20.4816C22.4448 20.7305 21.0452 32.392 21.0452 32.392Z" fill="#2B6F7D" stroke="#263238" stroke-miterlimit="10"/>
<path d="M19.0044 21.7667C19.0044 21.7667 17.801 25.9549 16.1421 28.1945C15.1804 29.4805 14.3211 30.84 13.572 32.2603C13.4904 31.9272 13.78 31.2228 14.4844 29.232C15.1888 27.2413 16.6411 19.4033 16.6411 19.4033C16.7912 19.4731 17.5627 19.6008 18.5081 19.7443L18.7556 20.3158L17.5522 20.899L19.0044 21.7667Z" fill="#2B6F7D" stroke="#263238" stroke-miterlimit="10"/>
<path d="M22.0721 46.7328L22.1143 47.8941C22.579 48.0049 23.0498 48.088 23.5244 48.1429C24.2709 48.2258 25.3071 47.8941 25.3071 47.8941V46.3141L22.0721 46.7328Z" fill="white" stroke="#263238" stroke-miterlimit="10"/>
<path d="M22.4039 20.4816C22.4039 20.4816 23.3585 20.8134 23.8141 22.6791C24.2696 24.5448 26.0523 33.3794 26.0523 34.5407C26.0523 35.702 25.6376 47.0646 25.6376 47.0646C24.8127 47.1807 23.9819 47.2497 23.1492 47.2713H21.8233C21.8233 47.2713 21.8654 38.563 21.9063 37.8994C21.9471 37.2358 21.2729 30.6211 21.2729 30.6211L22.4039 20.4816Z" fill="#2B6F7D" stroke="#263238" stroke-miterlimit="10"/>
<path d="M16.0894 17.9722C16.0894 18.2644 15.0216 18.4988 13.705 18.4988C12.3884 18.4988 11.3206 18.2618 11.3206 17.9722C11.3206 17.6825 12.3884 17.4455 13.705 17.4455C15.0216 17.4455 16.0894 17.6799 16.0894 17.9722Z" fill="white" stroke="#263238" stroke-miterlimit="10"/>
<path d="M13.7484 18.2657C13.6842 18.2654 13.6228 18.2398 13.5774 18.1944C13.5321 18.149 13.5064 18.0876 13.5061 18.0235V15.5008C13.5061 15.4366 13.5316 15.3749 13.5771 15.3295C13.6225 15.2841 13.6841 15.2585 13.7484 15.2585C13.8126 15.2585 13.8742 15.2841 13.9197 15.3295C13.9651 15.3749 13.9906 15.4366 13.9906 15.5008V18.0182C13.9913 18.0505 13.9856 18.0825 13.9737 18.1125C13.9619 18.1425 13.9441 18.1699 13.9216 18.1929C13.899 18.216 13.872 18.2343 13.8423 18.2468C13.8126 18.2593 13.7806 18.2658 13.7484 18.2657Z" fill="white" stroke="#263238" stroke-miterlimit="10"/>
<path d="M0 55.0632H60.7905" stroke="#263238" stroke-miterlimit="10"/>
</svg>
