<svg width="195" height="26" viewBox="0 0 195 26" fill="none" xmlns="http://www.w3.org/2000/svg">
<path d="M0.90943 13.058C0.90943 12.1047 1.08543 11.1733 1.43743 10.264C1.78943 9.34 2.30276 8.504 2.97743 7.756C3.6521 7.008 4.47343 6.414 5.44143 5.974C6.40943 5.51933 7.50943 5.292 8.74143 5.292C10.2081 5.292 11.4768 5.60733 12.5474 6.238C13.6328 6.86867 14.4394 7.69 14.9674 8.702L12.1954 10.638C11.9608 10.0807 11.6454 9.648 11.2494 9.34C10.8681 9.032 10.4428 8.81933 9.97343 8.702C9.51876 8.57 9.07876 8.504 8.65343 8.504C7.9641 8.504 7.36276 8.64333 6.84943 8.922C6.3361 9.186 5.91076 9.54533 5.57343 10C5.2361 10.4547 4.98676 10.9607 4.82543 11.518C4.6641 12.0753 4.58343 12.6327 4.58343 13.19C4.58343 13.806 4.67876 14.4 4.86943 14.972C5.0601 15.544 5.33143 16.05 5.68343 16.49C6.0501 16.93 6.4901 17.282 7.00343 17.546C7.51676 17.7953 8.08143 17.92 8.69743 17.92C9.13743 17.92 9.58476 17.8467 10.0394 17.7C10.4941 17.5533 10.9121 17.326 11.2934 17.018C11.6894 16.6953 11.9901 16.2773 12.1954 15.764L15.1434 17.502C14.8354 18.2647 14.3294 18.9173 13.6254 19.46C12.9214 20.0027 12.1221 20.4207 11.2274 20.714C10.3474 20.9927 9.47476 21.132 8.60943 21.132C7.4801 21.132 6.43876 20.9047 5.48543 20.45C4.54676 19.9807 3.73276 19.3647 3.04343 18.602C2.36876 17.8247 1.84076 16.9593 1.45943 16.006C1.09276 15.038 0.90943 14.0553 0.90943 13.058ZM23.5851 21.132C22.4117 21.132 21.3484 20.912 20.3951 20.472C19.4564 20.0173 18.6424 19.416 17.9531 18.668C17.2784 17.9053 16.7577 17.0547 16.3911 16.116C16.0244 15.1627 15.8411 14.18 15.8411 13.168C15.8411 12.1267 16.0317 11.1367 16.4131 10.198C16.8091 9.25933 17.3517 8.42333 18.0411 7.69C18.7451 6.942 19.5737 6.35533 20.5271 5.93C21.4804 5.50467 22.5217 5.292 23.6511 5.292C24.8097 5.292 25.8584 5.51933 26.7971 5.974C27.7504 6.414 28.5644 7.01533 29.2391 7.778C29.9284 8.54067 30.4564 9.39867 30.8231 10.352C31.1897 11.2907 31.3731 12.2513 31.3731 13.234C31.3731 14.2753 31.1824 15.2653 30.8011 16.204C30.4197 17.1427 29.8771 17.986 29.1731 18.734C28.4691 19.4673 27.6404 20.054 26.6871 20.494C25.7484 20.9193 24.7144 21.132 23.5851 21.132ZM19.5151 13.212C19.5151 13.8133 19.6031 14.4 19.7791 14.972C19.9551 15.5293 20.2117 16.028 20.5491 16.468C20.9011 16.908 21.3337 17.26 21.8471 17.524C22.3604 17.788 22.9471 17.92 23.6071 17.92C24.2964 17.92 24.8977 17.788 25.4111 17.524C25.9244 17.2453 26.3497 16.8787 26.6871 16.424C27.0244 15.9693 27.2737 15.4633 27.4351 14.906C27.6111 14.334 27.6991 13.7547 27.6991 13.168C27.6991 12.5667 27.6111 11.9873 27.4351 11.43C27.2591 10.8727 26.9951 10.374 26.6431 9.934C26.2911 9.47933 25.8584 9.12733 25.3451 8.878C24.8317 8.62867 24.2524 8.504 23.6071 8.504C22.9177 8.504 22.3164 8.636 21.8031 8.9C21.3044 9.164 20.8791 9.52333 20.5271 9.978C20.1897 10.418 19.9331 10.924 19.7571 11.496C19.5957 12.0533 19.5151 12.6253 19.5151 13.212ZM44.4359 17.832V21H33.4579V5.38H44.2379V8.548H37.0659V11.584H43.2259V14.51H37.0659V17.832H44.4359ZM45.468 13.058C45.468 12.1047 45.644 11.1733 45.996 10.264C46.348 9.34 46.8614 8.504 47.536 7.756C48.2107 7.008 49.032 6.414 50 5.974C50.968 5.51933 52.068 5.292 53.3 5.292C54.7667 5.292 56.0354 5.60733 57.106 6.238C58.1914 6.86867 58.998 7.69 59.526 8.702L56.754 10.638C56.5194 10.0807 56.204 9.648 55.808 9.34C55.4267 9.032 55.0014 8.81933 54.532 8.702C54.0774 8.57 53.6374 8.504 53.212 8.504C52.5227 8.504 51.9214 8.64333 51.408 8.922C50.8947 9.186 50.4694 9.54533 50.132 10C49.7947 10.4547 49.5454 10.9607 49.384 11.518C49.2227 12.0753 49.142 12.6327 49.142 13.19C49.142 13.806 49.2374 14.4 49.428 14.972C49.6187 15.544 49.89 16.05 50.242 16.49C50.6087 16.93 51.0487 17.282 51.562 17.546C52.0754 17.7953 52.64 17.92 53.256 17.92C53.696 17.92 54.1434 17.8467 54.598 17.7C55.0527 17.5533 55.4707 17.326 55.852 17.018C56.248 16.6953 56.5487 16.2773 56.754 15.764L59.702 17.502C59.394 18.2647 58.888 18.9173 58.184 19.46C57.48 20.0027 56.6807 20.4207 55.786 20.714C54.906 20.9927 54.0334 21.132 53.168 21.132C52.0387 21.132 50.9974 20.9047 50.044 20.45C49.1054 19.9807 48.2914 19.3647 47.602 18.602C46.9274 17.8247 46.3994 16.9593 46.018 16.006C45.6514 15.038 45.468 14.0553 45.468 13.058ZM73.4185 8.548H68.6665V21H65.0585V8.548H60.2845V5.38H73.4185V8.548Z" fill="#183D44"/>
<path d="M82.935 19V11.19H88.094V12.07H83.925V14.677H87.434V15.502H83.925V19H82.935ZM88.7846 16.701V13.258H89.7526V16.514C89.7526 17.1007 89.8553 17.5407 90.0606 17.834C90.2659 18.1273 90.5703 18.274 90.9736 18.274C91.2376 18.274 91.4906 18.219 91.7326 18.109C91.9819 17.9917 92.2056 17.8267 92.4036 17.614C92.6016 17.4013 92.7556 17.1483 92.8656 16.855V13.258H93.8336V17.9C93.8336 18.0173 93.8556 18.1053 93.8996 18.164C93.9509 18.2153 94.0316 18.2447 94.1416 18.252V19C94.0316 19.0147 93.9436 19.022 93.8776 19.022C93.8189 19.0293 93.7603 19.033 93.7016 19.033C93.5183 19.033 93.3606 18.978 93.2286 18.868C93.0966 18.7507 93.0269 18.6077 93.0196 18.439L92.9976 17.768C92.7483 18.1933 92.4109 18.5233 91.9856 18.758C91.5676 18.9927 91.1093 19.11 90.6106 19.11C90.0093 19.11 89.5546 18.9083 89.2466 18.505C88.9386 18.0943 88.7846 17.493 88.7846 16.701ZM97.415 19.11C96.9384 19.11 96.491 19.033 96.073 18.879C95.655 18.7177 95.2957 18.4793 94.995 18.164L95.369 17.482C95.699 17.79 96.029 18.01 96.359 18.142C96.689 18.274 97.0264 18.34 97.371 18.34C97.767 18.34 98.0897 18.2667 98.339 18.12C98.5884 17.966 98.713 17.7423 98.713 17.449C98.713 17.2363 98.647 17.0787 98.515 16.976C98.3904 16.8733 98.2107 16.789 97.976 16.723C97.7414 16.6497 97.4627 16.569 97.14 16.481C96.744 16.3637 96.4104 16.239 96.139 16.107C95.8677 15.975 95.6624 15.81 95.523 15.612C95.3837 15.414 95.314 15.1647 95.314 14.864C95.314 14.4973 95.4094 14.1893 95.6 13.94C95.7907 13.6833 96.051 13.489 96.381 13.357C96.7184 13.225 97.0997 13.159 97.525 13.159C97.9504 13.159 98.3354 13.225 98.68 13.357C99.0247 13.489 99.3217 13.6833 99.571 13.94L99.131 14.611C98.9037 14.3763 98.6544 14.204 98.383 14.094C98.1117 13.9767 97.8074 13.918 97.47 13.918C97.272 13.918 97.0777 13.9437 96.887 13.995C96.6964 14.039 96.5387 14.1233 96.414 14.248C96.2894 14.3653 96.227 14.534 96.227 14.754C96.227 14.9373 96.2747 15.084 96.37 15.194C96.4727 15.2967 96.6194 15.3847 96.81 15.458C97.008 15.5313 97.2464 15.612 97.525 15.7C97.9577 15.8247 98.3317 15.9493 98.647 16.074C98.9697 16.1987 99.219 16.36 99.395 16.558C99.571 16.756 99.659 17.031 99.659 17.383C99.659 17.9257 99.4537 18.351 99.043 18.659C98.6324 18.9597 98.0897 19.11 97.415 19.11ZM100.817 19V13.258H101.785V19H100.817ZM100.817 12.18V10.97H101.785V12.18H100.817ZM105.86 19.11C105.428 19.11 105.035 19.033 104.683 18.879C104.331 18.7177 104.027 18.5013 103.77 18.23C103.514 17.9513 103.316 17.6323 103.176 17.273C103.037 16.9137 102.967 16.536 102.967 16.14C102.967 15.7367 103.037 15.3553 103.176 14.996C103.316 14.6367 103.514 14.3213 103.77 14.05C104.027 13.7713 104.331 13.555 104.683 13.401C105.043 13.2397 105.435 13.159 105.86 13.159C106.293 13.159 106.685 13.2397 107.037 13.401C107.389 13.555 107.694 13.7713 107.95 14.05C108.214 14.3213 108.416 14.6367 108.555 14.996C108.695 15.3553 108.764 15.7367 108.764 16.14C108.764 16.536 108.695 16.9137 108.555 17.273C108.416 17.6323 108.218 17.9513 107.961 18.23C107.705 18.5013 107.397 18.7177 107.037 18.879C106.685 19.033 106.293 19.11 105.86 19.11ZM103.957 16.151C103.957 16.547 104.042 16.9063 104.21 17.229C104.386 17.5517 104.617 17.8083 104.903 17.999C105.189 18.1823 105.508 18.274 105.86 18.274C106.212 18.274 106.531 18.1787 106.817 17.988C107.111 17.7973 107.342 17.5407 107.51 17.218C107.686 16.888 107.774 16.525 107.774 16.129C107.774 15.733 107.686 15.3737 107.51 15.051C107.342 14.7283 107.111 14.4717 106.817 14.281C106.531 14.0903 106.212 13.995 105.86 13.995C105.508 13.995 105.189 14.094 104.903 14.292C104.617 14.4827 104.386 14.7393 104.21 15.062C104.042 15.3847 103.957 15.7477 103.957 16.151ZM114.92 19H113.952V15.788C113.952 15.1793 113.857 14.7357 113.666 14.457C113.483 14.171 113.201 14.028 112.819 14.028C112.555 14.028 112.291 14.094 112.027 14.226C111.771 14.358 111.54 14.5377 111.334 14.765C111.136 14.985 110.993 15.2417 110.905 15.535V19H109.937V13.258H110.817V14.49C110.971 14.2187 111.169 13.984 111.411 13.786C111.653 13.588 111.928 13.434 112.236 13.324C112.544 13.214 112.867 13.159 113.204 13.159C113.534 13.159 113.809 13.2213 114.029 13.346C114.257 13.4633 114.433 13.632 114.557 13.852C114.689 14.0647 114.781 14.3177 114.832 14.611C114.891 14.9043 114.92 15.2233 114.92 15.568V19ZM121.716 19.11C121.283 19.11 120.891 19.033 120.539 18.879C120.187 18.7177 119.882 18.5013 119.626 18.23C119.369 17.9513 119.171 17.6323 119.032 17.273C118.892 16.9137 118.823 16.536 118.823 16.14C118.823 15.7367 118.892 15.3553 119.032 14.996C119.171 14.6367 119.369 14.3213 119.626 14.05C119.882 13.7713 120.187 13.555 120.539 13.401C120.898 13.2397 121.29 13.159 121.716 13.159C122.148 13.159 122.541 13.2397 122.893 13.401C123.245 13.555 123.549 13.7713 123.806 14.05C124.07 14.3213 124.271 14.6367 124.411 14.996C124.55 15.3553 124.62 15.7367 124.62 16.14C124.62 16.536 124.55 16.9137 124.411 17.273C124.271 17.6323 124.073 17.9513 123.817 18.23C123.56 18.5013 123.252 18.7177 122.893 18.879C122.541 19.033 122.148 19.11 121.716 19.11ZM119.813 16.151C119.813 16.547 119.897 16.9063 120.066 17.229C120.242 17.5517 120.473 17.8083 120.759 17.999C121.045 18.1823 121.364 18.274 121.716 18.274C122.068 18.274 122.387 18.1787 122.673 17.988C122.966 17.7973 123.197 17.5407 123.366 17.218C123.542 16.888 123.63 16.525 123.63 16.129C123.63 15.733 123.542 15.3737 123.366 15.051C123.197 14.7283 122.966 14.4717 122.673 14.281C122.387 14.0903 122.068 13.995 121.716 13.995C121.364 13.995 121.045 14.094 120.759 14.292C120.473 14.4827 120.242 14.7393 120.066 15.062C119.897 15.3847 119.813 15.7477 119.813 16.151ZM126.004 19V14.017H125.223V13.258H126.004V13.137C126.004 12.6677 126.074 12.2643 126.213 11.927C126.36 11.5823 126.565 11.3183 126.829 11.135C127.093 10.9517 127.405 10.86 127.764 10.86C127.991 10.86 128.215 10.893 128.435 10.959C128.655 11.0177 128.853 11.102 129.029 11.212L128.787 11.927C128.684 11.8537 128.556 11.795 128.402 11.751C128.255 11.707 128.109 11.685 127.962 11.685C127.647 11.685 127.401 11.8097 127.225 12.059C127.056 12.301 126.972 12.6493 126.972 13.104V13.258H128.501V14.017H126.972V19H126.004ZM132 11.19L134.585 17.757L137.159 11.19H138.204L135.036 19H134.134L130.955 11.19H132ZM139.102 19V13.258H140.07V19H139.102ZM139.102 12.18V10.97H140.07V12.18H139.102ZM141.263 16.14C141.263 15.5973 141.373 15.1023 141.593 14.655C141.821 14.2003 142.129 13.8373 142.517 13.566C142.913 13.2947 143.364 13.159 143.87 13.159C144.332 13.159 144.747 13.28 145.113 13.522C145.48 13.764 145.766 14.0573 145.971 14.402V10.97H146.939V17.9C146.939 18.0173 146.961 18.1053 147.005 18.164C147.057 18.2153 147.137 18.2447 147.247 18.252V19C147.064 19.0293 146.921 19.044 146.818 19.044C146.628 19.044 146.459 18.978 146.312 18.846C146.173 18.714 146.103 18.5673 146.103 18.406V17.922C145.876 18.2887 145.572 18.5783 145.19 18.791C144.809 19.0037 144.413 19.11 144.002 19.11C143.606 19.11 143.24 19.033 142.902 18.879C142.572 18.7177 142.283 18.4977 142.033 18.219C141.791 17.9403 141.601 17.625 141.461 17.273C141.329 16.9137 141.263 16.536 141.263 16.14ZM145.971 16.987V15.337C145.883 15.0877 145.74 14.864 145.542 14.666C145.344 14.4607 145.121 14.2993 144.871 14.182C144.629 14.0573 144.387 13.995 144.145 13.995C143.859 13.995 143.599 14.0573 143.364 14.182C143.137 14.2993 142.939 14.4607 142.77 14.666C142.609 14.864 142.484 15.0913 142.396 15.348C142.308 15.6047 142.264 15.8723 142.264 16.151C142.264 16.437 142.312 16.7083 142.407 16.965C142.51 17.2217 142.649 17.449 142.825 17.647C143.009 17.845 143.218 17.999 143.452 18.109C143.694 18.219 143.955 18.274 144.233 18.274C144.409 18.274 144.589 18.241 144.772 18.175C144.963 18.109 145.143 18.0173 145.311 17.9C145.48 17.7827 145.623 17.647 145.74 17.493C145.858 17.3317 145.935 17.163 145.971 16.987ZM151.096 19.11C150.664 19.11 150.268 19.033 149.908 18.879C149.556 18.7177 149.248 18.5013 148.984 18.23C148.728 17.9513 148.526 17.6323 148.379 17.273C148.24 16.9137 148.17 16.5323 148.17 16.129C148.17 15.5863 148.295 15.0913 148.544 14.644C148.794 14.1967 149.138 13.8373 149.578 13.566C150.026 13.2947 150.535 13.159 151.107 13.159C151.687 13.159 152.189 13.2983 152.614 13.577C153.047 13.8483 153.381 14.2077 153.615 14.655C153.857 15.095 153.978 15.5717 153.978 16.085C153.978 16.1583 153.975 16.2317 153.967 16.305C153.967 16.371 153.964 16.4223 153.956 16.459H149.193C149.223 16.833 149.325 17.1667 149.501 17.46C149.685 17.746 149.919 17.9733 150.205 18.142C150.491 18.3033 150.799 18.384 151.129 18.384C151.481 18.384 151.811 18.296 152.119 18.12C152.435 17.944 152.651 17.713 152.768 17.427L153.604 17.658C153.48 17.9367 153.293 18.186 153.043 18.406C152.801 18.626 152.512 18.7983 152.174 18.923C151.844 19.0477 151.485 19.11 151.096 19.11ZM149.16 15.788H153.076C153.047 15.414 152.941 15.084 152.757 14.798C152.574 14.512 152.339 14.2883 152.053 14.127C151.767 13.9657 151.452 13.885 151.107 13.885C150.77 13.885 150.458 13.9657 150.172 14.127C149.886 14.2883 149.652 14.512 149.468 14.798C149.292 15.084 149.19 15.414 149.16 15.788ZM157.562 19.11C157.13 19.11 156.737 19.033 156.385 18.879C156.033 18.7177 155.729 18.5013 155.472 18.23C155.216 17.9513 155.018 17.6323 154.878 17.273C154.739 16.9137 154.669 16.536 154.669 16.14C154.669 15.7367 154.739 15.3553 154.878 14.996C155.018 14.6367 155.216 14.3213 155.472 14.05C155.729 13.7713 156.033 13.555 156.385 13.401C156.745 13.2397 157.137 13.159 157.562 13.159C157.995 13.159 158.387 13.2397 158.739 13.401C159.091 13.555 159.396 13.7713 159.652 14.05C159.916 14.3213 160.118 14.6367 160.257 14.996C160.397 15.3553 160.466 15.7367 160.466 16.14C160.466 16.536 160.397 16.9137 160.257 17.273C160.118 17.6323 159.92 17.9513 159.663 18.23C159.407 18.5013 159.099 18.7177 158.739 18.879C158.387 19.033 157.995 19.11 157.562 19.11ZM155.659 16.151C155.659 16.547 155.744 16.9063 155.912 17.229C156.088 17.5517 156.319 17.8083 156.605 17.999C156.891 18.1823 157.21 18.274 157.562 18.274C157.914 18.274 158.233 18.1787 158.519 17.988C158.813 17.7973 159.044 17.5407 159.212 17.218C159.388 16.888 159.476 16.525 159.476 16.129C159.476 15.733 159.388 15.3737 159.212 15.051C159.044 14.7283 158.813 14.4717 158.519 14.281C158.233 14.0903 157.914 13.995 157.562 13.995C157.21 13.995 156.891 14.094 156.605 14.292C156.319 14.4827 156.088 14.7393 155.912 15.062C155.744 15.3847 155.659 15.7477 155.659 16.151ZM169.801 19L165.973 14.963C165.657 14.6257 165.404 14.3397 165.214 14.105C165.03 13.863 164.898 13.6467 164.818 13.456C164.737 13.258 164.697 13.0563 164.697 12.851C164.697 12.5137 164.785 12.213 164.961 11.949C165.137 11.685 165.375 11.476 165.676 11.322C165.984 11.168 166.328 11.091 166.71 11.091C167.062 11.091 167.381 11.157 167.667 11.289C167.953 11.4137 168.18 11.597 168.349 11.839C168.525 12.0737 168.613 12.356 168.613 12.686C168.613 13.0233 168.521 13.324 168.338 13.588C168.154 13.8447 167.912 14.0867 167.612 14.314C167.318 14.534 166.992 14.7577 166.633 14.985C166.339 15.1757 166.072 15.37 165.83 15.568C165.595 15.766 165.408 15.9787 165.269 16.206C165.137 16.426 165.071 16.6717 165.071 16.943C165.071 17.2363 165.151 17.4893 165.313 17.702C165.474 17.9073 165.683 18.065 165.94 18.175C166.204 18.285 166.479 18.34 166.765 18.34C167.139 18.34 167.487 18.2557 167.81 18.087C168.132 17.911 168.415 17.669 168.657 17.361C168.906 17.053 169.097 16.6973 169.229 16.294C169.368 15.8833 169.438 15.4433 169.438 14.974H170.241C170.241 15.5753 170.145 16.129 169.955 16.635C169.771 17.1337 169.515 17.57 169.185 17.944C168.862 18.3107 168.484 18.5967 168.052 18.802C167.619 19.0073 167.157 19.11 166.666 19.11C166.189 19.11 165.756 19.0147 165.368 18.824C164.986 18.6333 164.686 18.3767 164.466 18.054C164.246 17.724 164.136 17.35 164.136 16.932C164.136 16.5287 164.227 16.1767 164.411 15.876C164.601 15.568 164.843 15.2967 165.137 15.062C165.437 14.82 165.745 14.6 166.061 14.402C166.383 14.1967 166.669 14.0097 166.919 13.841C167.168 13.665 167.362 13.4853 167.502 13.302C167.648 13.1187 167.722 12.9207 167.722 12.708C167.722 12.4513 167.626 12.2423 167.436 12.081C167.245 11.9123 167.003 11.828 166.71 11.828C166.49 11.828 166.295 11.8757 166.127 11.971C165.958 12.059 165.826 12.18 165.731 12.334C165.635 12.4807 165.588 12.6457 165.588 12.829C165.588 12.9463 165.617 13.0673 165.676 13.192C165.734 13.3167 165.844 13.4743 166.006 13.665C166.174 13.8557 166.409 14.1123 166.71 14.435L171.077 19H169.801ZM180.144 12.07H177.449V19H176.459V12.07H173.764V11.19H180.144V12.07ZM182.431 19.11C181.999 19.11 181.603 19.033 181.243 18.879C180.891 18.7177 180.583 18.5013 180.319 18.23C180.063 17.9513 179.861 17.6323 179.714 17.273C179.575 16.9137 179.505 16.5323 179.505 16.129C179.505 15.5863 179.63 15.0913 179.879 14.644C180.129 14.1967 180.473 13.8373 180.913 13.566C181.361 13.2947 181.87 13.159 182.442 13.159C183.022 13.159 183.524 13.2983 183.949 13.577C184.382 13.8483 184.716 14.2077 184.95 14.655C185.192 15.095 185.313 15.5717 185.313 16.085C185.313 16.1583 185.31 16.2317 185.302 16.305C185.302 16.371 185.299 16.4223 185.291 16.459H180.528C180.558 16.833 180.66 17.1667 180.836 17.46C181.02 17.746 181.254 17.9733 181.54 18.142C181.826 18.3033 182.134 18.384 182.464 18.384C182.816 18.384 183.146 18.296 183.454 18.12C183.77 17.944 183.986 17.713 184.103 17.427L184.939 17.658C184.815 17.9367 184.628 18.186 184.378 18.406C184.136 18.626 183.847 18.7983 183.509 18.923C183.179 19.0477 182.82 19.11 182.431 19.11ZM180.495 15.788H184.411C184.382 15.414 184.276 15.084 184.092 14.798C183.909 14.512 183.674 14.2883 183.388 14.127C183.102 13.9657 182.787 13.885 182.442 13.885C182.105 13.885 181.793 13.9657 181.507 14.127C181.221 14.2883 180.987 14.512 180.803 14.798C180.627 15.084 180.525 15.414 180.495 15.788ZM186.604 13.258L188.122 15.37L188.21 15.546L188.309 15.37L189.816 13.258H190.894L188.771 16.14L190.905 19H189.827L188.309 16.899L188.21 16.734L188.122 16.899L186.604 19H185.526L187.66 16.14L185.537 13.258H186.604ZM194.784 18.714C194.704 18.7507 194.594 18.7983 194.454 18.857C194.315 18.9157 194.154 18.967 193.97 19.011C193.787 19.055 193.593 19.077 193.387 19.077C193.153 19.077 192.936 19.0367 192.738 18.956C192.54 18.868 192.383 18.736 192.265 18.56C192.148 18.3767 192.089 18.1493 192.089 17.878V14.017H191.308V13.258H192.089V11.344H193.057V13.258H194.344V14.017H193.057V17.581C193.072 17.7863 193.142 17.9403 193.266 18.043C193.391 18.1383 193.538 18.186 193.706 18.186C193.897 18.186 194.073 18.153 194.234 18.087C194.396 18.021 194.502 17.9733 194.553 17.944L194.784 18.714Z" fill="#424242"/>
</svg>
