<svg width="68" height="20" viewBox="0 0 68 20" fill="none" xmlns="http://www.w3.org/2000/svg">
<path d="M14.402 0.933165V6.86002C13.9028 6.18747 13.2705 5.67465 12.505 5.32156C11.7396 4.96847 10.9409 4.79193 10.1089 4.79193C8.61125 4.79193 7.39652 5.30475 6.46468 6.33039C5.54947 7.33922 5.09187 8.58344 5.09187 10.0631C5.09187 11.5595 5.55779 12.7953 6.48964 13.7705C7.43812 14.7457 8.66949 15.2333 10.1837 15.2333C10.9825 15.2333 11.7562 15.0567 12.505 14.7037C13.2538 14.3338 13.8862 13.8377 14.402 13.2156V19.1173C13.9527 19.2686 13.5284 19.3947 13.129 19.4956C12.7297 19.6133 12.3386 19.7142 11.9559 19.7982C11.6564 19.8655 11.3485 19.9159 11.0324 19.9496C10.7329 19.9832 10.4167 20 10.0839 20C8.76933 20 7.50468 19.7646 6.28996 19.2938C5.09187 18.8062 4.00194 18.1169 3.02018 17.2257C1.98849 16.2842 1.22305 15.2081 0.723844 13.9975C0.241282 12.7701 0 11.4502 0 10.0378C0 8.74317 0.232961 7.49054 0.698884 6.27995C1.18145 5.06936 1.87201 4.00168 2.77058 3.07692C3.66914 2.15217 4.72579 1.42077 5.94051 0.882724C7.15524 0.32787 8.41157 0.0336281 9.7095 0C9.74278 0 9.77606 0 9.80934 0C9.85926 0 9.90086 0 9.93414 0C10.7162 0 11.4733 0.0840694 12.2055 0.252208C12.9543 0.420346 13.6865 0.655739 14.402 0.958387V0.933165Z" fill="#183D44"/>
<path d="M23.8408 6.12863C25.9042 6.14544 27.7013 6.75914 29.2322 7.96974C30.7798 9.16351 31.5535 10.8617 31.5535 13.0643C31.5535 15.2501 30.7798 16.9399 29.2322 18.1337C27.7013 19.3274 25.9042 19.9243 23.8408 19.9243C21.7941 19.9243 19.997 19.3359 18.4494 18.1589C16.9019 16.9651 16.1282 15.2669 16.1282 13.0643C16.1282 10.8617 16.8936 9.16351 18.4245 7.96974C19.972 6.75914 21.7775 6.15385 23.8408 6.15385V6.12863ZM23.8408 10.1135C22.9256 10.1303 22.2101 10.433 21.6943 11.0214C21.1784 11.5931 20.9205 12.2741 20.9205 13.0643C20.9205 13.8882 21.1784 14.5776 21.6943 15.1324C22.2101 15.6873 22.9256 15.9647 23.8408 15.9647C24.7727 15.9647 25.4882 15.6873 25.9874 15.1324C26.5033 14.5776 26.7612 13.8882 26.7612 13.0643C26.7612 12.2741 26.5033 11.5931 25.9874 11.0214C25.4882 10.433 24.7727 10.1387 23.8408 10.1387V10.1135Z" fill="#183D44"/>
<path d="M46.5074 13.3165V13.7957H36.9476C36.9476 14.7373 37.1889 15.4603 37.6715 15.9647C38.1541 16.4523 38.8613 16.6961 39.7931 16.6961C40.2757 16.6961 40.6917 16.6036 41.0411 16.4187C41.4072 16.2337 41.715 15.9311 41.9646 15.5107L46.3327 15.4855C45.9666 17.0324 45.1512 18.1589 43.8866 18.8651C42.6386 19.5712 41.2824 19.9243 39.8181 19.9243C37.7048 19.9243 35.9409 19.3443 34.5265 18.1841C33.1121 17.0071 32.4049 15.3005 32.4049 13.0643C32.4049 10.9121 33.0622 9.22236 34.3767 7.99496C35.708 6.76755 37.4136 6.15385 39.4936 6.15385C41.7234 6.15385 43.4456 6.80118 44.6603 8.09584C45.8917 9.3905 46.5074 11.1391 46.5074 13.3417V13.3165ZM37.0225 11.1475H42.2891C42.1726 10.5422 41.8648 10.0546 41.3656 9.68474C40.883 9.31484 40.3339 9.12989 39.7182 9.12989C39.0526 9.12989 38.4702 9.30643 37.971 9.65952C37.4718 9.9958 37.1556 10.5002 37.0225 11.1728V11.1475Z" fill="#183D44"/>
<path d="M57.5735 6.88525V10.7692C57.2407 10.5338 56.8746 10.3321 56.4753 10.1639C56.0759 9.97898 55.6599 9.88651 55.2272 9.88651C54.362 9.88651 53.6215 10.1892 53.0058 10.7945C52.4067 11.3997 52.1072 12.148 52.1072 13.0391C52.1072 13.9639 52.4067 14.7289 53.0058 15.3342C53.6048 15.9227 54.3703 16.2169 55.3021 16.2169C55.3853 16.2169 55.4685 16.2169 55.5517 16.2169C55.6516 16.2001 55.7431 16.1833 55.8263 16.1665C56.1424 16.116 56.4503 16.0235 56.7498 15.889C57.066 15.7377 57.3405 15.5528 57.5735 15.3342V19.1929C57.0743 19.4451 56.5501 19.6301 56.001 19.7478C55.4685 19.8655 54.9277 19.9243 54.3786 19.9243C52.4816 19.9243 50.8426 19.2938 49.4614 18.0328C48.097 16.7549 47.4147 15.1408 47.4147 13.1904C47.4147 11.1055 48.1053 9.41572 49.4864 8.12106C50.8675 6.80958 52.5648 6.15385 54.5783 6.15385C55.1108 6.15385 55.6266 6.2211 56.1258 6.35561C56.6416 6.47331 57.1242 6.65826 57.5735 6.91047V6.88525Z" fill="#183D44"/>
<path d="M65.1214 10.3405V19.4956H60.5787V10.3405H59.106V6.55738H60.5787V2.67339H65.1214V6.55738H67.6923V10.3405H65.1214Z" fill="#183D44"/>
</svg>
