<svg width="105" height="44" viewBox="0 0 105 44" fill="none" xmlns="http://www.w3.org/2000/svg">
<path d="M0.90943 13.058C0.90943 12.1047 1.08543 11.1733 1.43743 10.264C1.78943 9.34 2.30276 8.504 2.97743 7.756C3.6521 7.008 4.47343 6.414 5.44143 5.974C6.40943 5.51933 7.50943 5.292 8.74143 5.292C10.2081 5.292 11.4768 5.60733 12.5474 6.238C13.6328 6.86867 14.4394 7.69 14.9674 8.702L12.1954 10.638C11.9608 10.0807 11.6454 9.648 11.2494 9.34C10.8681 9.032 10.4428 8.81933 9.97343 8.702C9.51876 8.57 9.07876 8.504 8.65343 8.504C7.9641 8.504 7.36276 8.64333 6.84943 8.922C6.3361 9.186 5.91076 9.54533 5.57343 10C5.2361 10.4547 4.98676 10.9607 4.82543 11.518C4.6641 12.0753 4.58343 12.6327 4.58343 13.19C4.58343 13.806 4.67876 14.4 4.86943 14.972C5.0601 15.544 5.33143 16.05 5.68343 16.49C6.0501 16.93 6.4901 17.282 7.00343 17.546C7.51676 17.7953 8.08143 17.92 8.69743 17.92C9.13743 17.92 9.58476 17.8467 10.0394 17.7C10.4941 17.5533 10.9121 17.326 11.2934 17.018C11.6894 16.6953 11.9901 16.2773 12.1954 15.764L15.1434 17.502C14.8354 18.2647 14.3294 18.9173 13.6254 19.46C12.9214 20.0027 12.1221 20.4207 11.2274 20.714C10.3474 20.9927 9.47476 21.132 8.60943 21.132C7.4801 21.132 6.43876 20.9047 5.48543 20.45C4.54676 19.9807 3.73276 19.3647 3.04343 18.602C2.36876 17.8247 1.84076 16.9593 1.45943 16.006C1.09276 15.038 0.90943 14.0553 0.90943 13.058ZM23.5851 21.132C22.4117 21.132 21.3484 20.912 20.3951 20.472C19.4564 20.0173 18.6424 19.416 17.9531 18.668C17.2784 17.9053 16.7577 17.0547 16.3911 16.116C16.0244 15.1627 15.8411 14.18 15.8411 13.168C15.8411 12.1267 16.0317 11.1367 16.4131 10.198C16.8091 9.25933 17.3517 8.42333 18.0411 7.69C18.7451 6.942 19.5737 6.35533 20.5271 5.93C21.4804 5.50467 22.5217 5.292 23.6511 5.292C24.8097 5.292 25.8584 5.51933 26.7971 5.974C27.7504 6.414 28.5644 7.01533 29.2391 7.778C29.9284 8.54067 30.4564 9.39867 30.8231 10.352C31.1897 11.2907 31.3731 12.2513 31.3731 13.234C31.3731 14.2753 31.1824 15.2653 30.8011 16.204C30.4197 17.1427 29.8771 17.986 29.1731 18.734C28.4691 19.4673 27.6404 20.054 26.6871 20.494C25.7484 20.9193 24.7144 21.132 23.5851 21.132ZM19.5151 13.212C19.5151 13.8133 19.6031 14.4 19.7791 14.972C19.9551 15.5293 20.2117 16.028 20.5491 16.468C20.9011 16.908 21.3337 17.26 21.8471 17.524C22.3604 17.788 22.9471 17.92 23.6071 17.92C24.2964 17.92 24.8977 17.788 25.4111 17.524C25.9244 17.2453 26.3497 16.8787 26.6871 16.424C27.0244 15.9693 27.2737 15.4633 27.4351 14.906C27.6111 14.334 27.6991 13.7547 27.6991 13.168C27.6991 12.5667 27.6111 11.9873 27.4351 11.43C27.2591 10.8727 26.9951 10.374 26.6431 9.934C26.2911 9.47933 25.8584 9.12733 25.3451 8.878C24.8317 8.62867 24.2524 8.504 23.6071 8.504C22.9177 8.504 22.3164 8.636 21.8031 8.9C21.3044 9.164 20.8791 9.52333 20.5271 9.978C20.1897 10.418 19.9331 10.924 19.7571 11.496C19.5957 12.0533 19.5151 12.6253 19.5151 13.212ZM44.4359 17.832V21H33.4579V5.38H44.2379V8.548H37.0659V11.584H43.2259V14.51H37.0659V17.832H44.4359ZM45.468 13.058C45.468 12.1047 45.644 11.1733 45.996 10.264C46.348 9.34 46.8614 8.504 47.536 7.756C48.2107 7.008 49.032 6.414 50 5.974C50.968 5.51933 52.068 5.292 53.3 5.292C54.7667 5.292 56.0354 5.60733 57.106 6.238C58.1914 6.86867 58.998 7.69 59.526 8.702L56.754 10.638C56.5194 10.0807 56.204 9.648 55.808 9.34C55.4267 9.032 55.0014 8.81933 54.532 8.702C54.0774 8.57 53.6374 8.504 53.212 8.504C52.5227 8.504 51.9214 8.64333 51.408 8.922C50.8947 9.186 50.4694 9.54533 50.132 10C49.7947 10.4547 49.5454 10.9607 49.384 11.518C49.2227 12.0753 49.142 12.6327 49.142 13.19C49.142 13.806 49.2374 14.4 49.428 14.972C49.6187 15.544 49.89 16.05 50.242 16.49C50.6087 16.93 51.0487 17.282 51.562 17.546C52.0754 17.7953 52.64 17.92 53.256 17.92C53.696 17.92 54.1434 17.8467 54.598 17.7C55.0527 17.5533 55.4707 17.326 55.852 17.018C56.248 16.6953 56.5487 16.2773 56.754 15.764L59.702 17.502C59.394 18.2647 58.888 18.9173 58.184 19.46C57.48 20.0027 56.6807 20.4207 55.786 20.714C54.906 20.9927 54.0334 21.132 53.168 21.132C52.0387 21.132 50.9974 20.9047 50.044 20.45C49.1054 19.9807 48.2914 19.3647 47.602 18.602C46.9274 17.8247 46.3994 16.9593 46.018 16.006C45.6514 15.038 45.468 14.0553 45.468 13.058ZM73.4185 8.548H68.6665V21H65.0585V8.548H60.2845V5.38H73.4185V8.548Z" fill="#183D44"/>
<path d="M2.85 38V30.9H7.54V31.7H3.75V34.07H6.94V34.82H3.75V38H2.85ZM8.16781 35.91V32.78H9.04781V35.74C9.04781 36.2733 9.14115 36.6733 9.32781 36.94C9.51448 37.2067 9.79115 37.34 10.1578 37.34C10.3978 37.34 10.6278 37.29 10.8478 37.19C11.0745 37.0833 11.2778 36.9333 11.4578 36.74C11.6378 36.5467 11.7778 36.3167 11.8778 36.05V32.78H12.7578V37C12.7578 37.1067 12.7778 37.1867 12.8178 37.24C12.8645 37.2867 12.9378 37.3133 13.0378 37.32V38C12.9378 38.0133 12.8578 38.02 12.7978 38.02C12.7445 38.0267 12.6911 38.03 12.6378 38.03C12.4711 38.03 12.3278 37.98 12.2078 37.88C12.0878 37.7733 12.0245 37.6433 12.0178 37.49L11.9978 36.88C11.7711 37.2667 11.4645 37.5667 11.0778 37.78C10.6978 37.9933 10.2811 38.1 9.82781 38.1C9.28115 38.1 8.86781 37.9167 8.58781 37.55C8.30781 37.1767 8.16781 36.63 8.16781 35.91ZM16.0137 38.1C15.5803 38.1 15.1737 38.03 14.7937 37.89C14.4137 37.7433 14.087 37.5267 13.8137 37.24L14.1537 36.62C14.4537 36.9 14.7537 37.1 15.0537 37.22C15.3537 37.34 15.6603 37.4 15.9737 37.4C16.3337 37.4 16.627 37.3333 16.8537 37.2C17.0803 37.06 17.1937 36.8567 17.1937 36.59C17.1937 36.3967 17.1337 36.2533 17.0137 36.16C16.9003 36.0667 16.737 35.99 16.5237 35.93C16.3103 35.8633 16.057 35.79 15.7637 35.71C15.4037 35.6033 15.1003 35.49 14.8537 35.37C14.607 35.25 14.4203 35.1 14.2937 34.92C14.167 34.74 14.1037 34.5133 14.1037 34.24C14.1037 33.9067 14.1903 33.6267 14.3637 33.4C14.537 33.1667 14.7737 32.99 15.0737 32.87C15.3803 32.75 15.727 32.69 16.1137 32.69C16.5003 32.69 16.8503 32.75 17.1637 32.87C17.477 32.99 17.747 33.1667 17.9737 33.4L17.5737 34.01C17.367 33.7967 17.1403 33.64 16.8937 33.54C16.647 33.4333 16.3703 33.38 16.0637 33.38C15.8837 33.38 15.707 33.4033 15.5337 33.45C15.3603 33.49 15.217 33.5667 15.1037 33.68C14.9903 33.7867 14.9337 33.94 14.9337 34.14C14.9337 34.3067 14.977 34.44 15.0637 34.54C15.157 34.6333 15.2903 34.7133 15.4637 34.78C15.6437 34.8467 15.8603 34.92 16.1137 35C16.507 35.1133 16.847 35.2267 17.1337 35.34C17.427 35.4533 17.6537 35.6 17.8137 35.78C17.9737 35.96 18.0537 36.21 18.0537 36.53C18.0537 37.0233 17.867 37.41 17.4937 37.69C17.1203 37.9633 16.627 38.1 16.0137 38.1ZM19.1065 38V32.78H19.9865V38H19.1065ZM19.1065 31.8V30.7H19.9865V31.8H19.1065ZM23.6912 38.1C23.2978 38.1 22.9412 38.03 22.6212 37.89C22.3012 37.7433 22.0245 37.5467 21.7912 37.3C21.5578 37.0467 21.3778 36.7567 21.2512 36.43C21.1245 36.1033 21.0612 35.76 21.0612 35.4C21.0612 35.0333 21.1245 34.6867 21.2512 34.36C21.3778 34.0333 21.5578 33.7467 21.7912 33.5C22.0245 33.2467 22.3012 33.05 22.6212 32.91C22.9478 32.7633 23.3045 32.69 23.6912 32.69C24.0845 32.69 24.4412 32.7633 24.7612 32.91C25.0812 33.05 25.3578 33.2467 25.5912 33.5C25.8312 33.7467 26.0145 34.0333 26.1412 34.36C26.2678 34.6867 26.3312 35.0333 26.3312 35.4C26.3312 35.76 26.2678 36.1033 26.1412 36.43C26.0145 36.7567 25.8345 37.0467 25.6012 37.3C25.3678 37.5467 25.0878 37.7433 24.7612 37.89C24.4412 38.03 24.0845 38.1 23.6912 38.1ZM21.9612 35.41C21.9612 35.77 22.0378 36.0967 22.1912 36.39C22.3512 36.6833 22.5612 36.9167 22.8212 37.09C23.0812 37.2567 23.3712 37.34 23.6912 37.34C24.0112 37.34 24.3012 37.2533 24.5612 37.08C24.8278 36.9067 25.0378 36.6733 25.1912 36.38C25.3512 36.08 25.4312 35.75 25.4312 35.39C25.4312 35.03 25.3512 34.7033 25.1912 34.41C25.0378 34.1167 24.8278 33.8833 24.5612 33.71C24.3012 33.5367 24.0112 33.45 23.6912 33.45C23.3712 33.45 23.0812 33.54 22.8212 33.72C22.5612 33.8933 22.3512 34.1267 22.1912 34.42C22.0378 34.7133 21.9612 35.0433 21.9612 35.41ZM31.9275 38H31.0475V35.08C31.0475 34.5267 30.9608 34.1233 30.7875 33.87C30.6208 33.61 30.3642 33.48 30.0175 33.48C29.7775 33.48 29.5375 33.54 29.2975 33.66C29.0642 33.78 28.8542 33.9433 28.6675 34.15C28.4875 34.35 28.3575 34.5833 28.2775 34.85V38H27.3975V32.78H28.1975V33.9C28.3375 33.6533 28.5175 33.44 28.7375 33.26C28.9575 33.08 29.2075 32.94 29.4875 32.84C29.7675 32.74 30.0608 32.69 30.3675 32.69C30.6675 32.69 30.9175 32.7467 31.1175 32.86C31.3242 32.9667 31.4842 33.12 31.5975 33.32C31.7175 33.5133 31.8008 33.7433 31.8475 34.01C31.9008 34.2767 31.9275 34.5667 31.9275 34.88V38ZM38.1052 38.1C37.7119 38.1 37.3552 38.03 37.0352 37.89C36.7152 37.7433 36.4386 37.5467 36.2052 37.3C35.9719 37.0467 35.7919 36.7567 35.6652 36.43C35.5386 36.1033 35.4752 35.76 35.4752 35.4C35.4752 35.0333 35.5386 34.6867 35.6652 34.36C35.7919 34.0333 35.9719 33.7467 36.2052 33.5C36.4386 33.2467 36.7152 33.05 37.0352 32.91C37.3619 32.7633 37.7186 32.69 38.1052 32.69C38.4986 32.69 38.8552 32.7633 39.1752 32.91C39.4952 33.05 39.7719 33.2467 40.0052 33.5C40.2452 33.7467 40.4286 34.0333 40.5552 34.36C40.6819 34.6867 40.7452 35.0333 40.7452 35.4C40.7452 35.76 40.6819 36.1033 40.5552 36.43C40.4286 36.7567 40.2486 37.0467 40.0152 37.3C39.7819 37.5467 39.5019 37.7433 39.1752 37.89C38.8552 38.03 38.4986 38.1 38.1052 38.1ZM36.3752 35.41C36.3752 35.77 36.4519 36.0967 36.6052 36.39C36.7652 36.6833 36.9752 36.9167 37.2352 37.09C37.4952 37.2567 37.7852 37.34 38.1052 37.34C38.4252 37.34 38.7152 37.2533 38.9752 37.08C39.2419 36.9067 39.4519 36.6733 39.6052 36.38C39.7652 36.08 39.8452 35.75 39.8452 35.39C39.8452 35.03 39.7652 34.7033 39.6052 34.41C39.4519 34.1167 39.2419 33.8833 38.9752 33.71C38.7152 33.5367 38.4252 33.45 38.1052 33.45C37.7852 33.45 37.4952 33.54 37.2352 33.72C36.9752 33.8933 36.7652 34.1267 36.6052 34.42C36.4519 34.7133 36.3752 35.0433 36.3752 35.41ZM42.0037 38V33.47H41.2937V32.78H42.0037V32.67C42.0037 32.2433 42.067 31.8767 42.1937 31.57C42.327 31.2567 42.5137 31.0167 42.7537 30.85C42.9937 30.6833 43.277 30.6 43.6037 30.6C43.8103 30.6 44.0137 30.63 44.2137 30.69C44.4137 30.7433 44.5937 30.82 44.7537 30.92L44.5337 31.57C44.4403 31.5033 44.3237 31.45 44.1837 31.41C44.0503 31.37 43.917 31.35 43.7837 31.35C43.497 31.35 43.2737 31.4633 43.1137 31.69C42.9603 31.91 42.8837 32.2267 42.8837 32.64V32.78H44.2737V33.47H42.8837V38H42.0037ZM47.4543 30.9L49.8043 36.87L52.1443 30.9H53.0943L50.2143 38H49.3943L46.5043 30.9H47.4543ZM53.9112 38V32.78H54.7912V38H53.9112ZM53.9112 31.8V30.7H54.7912V31.8H53.9112ZM55.8759 35.4C55.8759 34.9067 55.9759 34.4567 56.1759 34.05C56.3825 33.6367 56.6625 33.3067 57.0159 33.06C57.3759 32.8133 57.7859 32.69 58.2459 32.69C58.6659 32.69 59.0425 32.8 59.3759 33.02C59.7092 33.24 59.9692 33.5067 60.1559 33.82V30.7H61.0359V37C61.0359 37.1067 61.0559 37.1867 61.0959 37.24C61.1425 37.2867 61.2159 37.3133 61.3159 37.32V38C61.1492 38.0267 61.0192 38.04 60.9259 38.04C60.7525 38.04 60.5992 37.98 60.4659 37.86C60.3392 37.74 60.2759 37.6067 60.2759 37.46V37.02C60.0692 37.3533 59.7925 37.6167 59.4459 37.81C59.0992 38.0033 58.7392 38.1 58.3659 38.1C58.0059 38.1 57.6725 38.03 57.3659 37.89C57.0659 37.7433 56.8025 37.5433 56.5759 37.29C56.3559 37.0367 56.1825 36.75 56.0559 36.43C55.9359 36.1033 55.8759 35.76 55.8759 35.4ZM60.1559 36.17V34.67C60.0759 34.4433 59.9459 34.24 59.7659 34.06C59.5859 33.8733 59.3825 33.7267 59.1559 33.62C58.9359 33.5067 58.7159 33.45 58.4959 33.45C58.2359 33.45 57.9992 33.5067 57.7859 33.62C57.5792 33.7267 57.3992 33.8733 57.2459 34.06C57.0992 34.24 56.9859 34.4467 56.9059 34.68C56.8259 34.9133 56.7859 35.1567 56.7859 35.41C56.7859 35.67 56.8292 35.9167 56.9159 36.15C57.0092 36.3833 57.1359 36.59 57.2959 36.77C57.4625 36.95 57.6525 37.09 57.8659 37.19C58.0859 37.29 58.3225 37.34 58.5759 37.34C58.7359 37.34 58.8992 37.31 59.0659 37.25C59.2392 37.19 59.4025 37.1067 59.5559 37C59.7092 36.8933 59.8392 36.77 59.9459 36.63C60.0525 36.4833 60.1225 36.33 60.1559 36.17ZM64.8149 38.1C64.4216 38.1 64.0616 38.03 63.7349 37.89C63.4149 37.7433 63.1349 37.5467 62.8949 37.3C62.6616 37.0467 62.4783 36.7567 62.3449 36.43C62.2183 36.1033 62.1549 35.7567 62.1549 35.39C62.1549 34.8967 62.2683 34.4467 62.4949 34.04C62.7216 33.6333 63.0349 33.3067 63.4349 33.06C63.8416 32.8133 64.3049 32.69 64.8249 32.69C65.3516 32.69 65.8083 32.8167 66.1949 33.07C66.5883 33.3167 66.8916 33.6433 67.1049 34.05C67.3249 34.45 67.4349 34.8833 67.4349 35.35C67.4349 35.4167 67.4316 35.4833 67.4249 35.55C67.4249 35.61 67.4216 35.6567 67.4149 35.69H63.0849C63.1116 36.03 63.2049 36.3333 63.3649 36.6C63.5316 36.86 63.7449 37.0667 64.0049 37.22C64.2649 37.3667 64.5449 37.44 64.8449 37.44C65.1649 37.44 65.4649 37.36 65.7449 37.2C66.0316 37.04 66.2283 36.83 66.3349 36.57L67.0949 36.78C66.9816 37.0333 66.8116 37.26 66.5849 37.46C66.3649 37.66 66.1016 37.8167 65.7949 37.93C65.4949 38.0433 65.1683 38.1 64.8149 38.1ZM63.0549 35.08H66.6149C66.5883 34.74 66.4916 34.44 66.3249 34.18C66.1583 33.92 65.9449 33.7167 65.6849 33.57C65.4249 33.4233 65.1383 33.35 64.8249 33.35C64.5183 33.35 64.2349 33.4233 63.9749 33.57C63.7149 33.7167 63.5016 33.92 63.3349 34.18C63.1749 34.44 63.0816 34.74 63.0549 35.08ZM70.6931 38.1C70.2998 38.1 69.9431 38.03 69.6231 37.89C69.3031 37.7433 69.0265 37.5467 68.7931 37.3C68.5598 37.0467 68.3798 36.7567 68.2531 36.43C68.1265 36.1033 68.0631 35.76 68.0631 35.4C68.0631 35.0333 68.1265 34.6867 68.2531 34.36C68.3798 34.0333 68.5598 33.7467 68.7931 33.5C69.0265 33.2467 69.3031 33.05 69.6231 32.91C69.9498 32.7633 70.3065 32.69 70.6931 32.69C71.0865 32.69 71.4431 32.7633 71.7631 32.91C72.0831 33.05 72.3598 33.2467 72.5931 33.5C72.8331 33.7467 73.0165 34.0333 73.1431 34.36C73.2698 34.6867 73.3331 35.0333 73.3331 35.4C73.3331 35.76 73.2698 36.1033 73.1431 36.43C73.0165 36.7567 72.8365 37.0467 72.6031 37.3C72.3698 37.5467 72.0898 37.7433 71.7631 37.89C71.4431 38.03 71.0865 38.1 70.6931 38.1ZM68.9631 35.41C68.9631 35.77 69.0398 36.0967 69.1931 36.39C69.3531 36.6833 69.5631 36.9167 69.8231 37.09C70.0831 37.2567 70.3731 37.34 70.6931 37.34C71.0131 37.34 71.3031 37.2533 71.5631 37.08C71.8298 36.9067 72.0398 36.6733 72.1931 36.38C72.3531 36.08 72.4331 35.75 72.4331 35.39C72.4331 35.03 72.3531 34.7033 72.1931 34.41C72.0398 34.1167 71.8298 33.8833 71.5631 33.71C71.3031 33.5367 71.0131 33.45 70.6931 33.45C70.3731 33.45 70.0831 33.54 69.8231 33.72C69.5631 33.8933 69.3531 34.1267 69.1931 34.42C69.0398 34.7133 68.9631 35.0433 68.9631 35.41ZM81.8188 38L78.3388 34.33C78.0521 34.0233 77.8221 33.7633 77.6488 33.55C77.4821 33.33 77.3621 33.1333 77.2888 32.96C77.2154 32.78 77.1788 32.5967 77.1788 32.41C77.1788 32.1033 77.2588 31.83 77.4188 31.59C77.5788 31.35 77.7954 31.16 78.0688 31.02C78.3488 30.88 78.6621 30.81 79.0088 30.81C79.3288 30.81 79.6188 30.87 79.8788 30.99C80.1388 31.1033 80.3454 31.27 80.4988 31.49C80.6588 31.7033 80.7388 31.96 80.7388 32.26C80.7388 32.5667 80.6554 32.84 80.4888 33.08C80.3221 33.3133 80.1021 33.5333 79.8288 33.74C79.5621 33.94 79.2654 34.1433 78.9388 34.35C78.6721 34.5233 78.4288 34.7 78.2088 34.88C77.9954 35.06 77.8254 35.2533 77.6988 35.46C77.5788 35.66 77.5188 35.8833 77.5188 36.13C77.5188 36.3967 77.5921 36.6267 77.7388 36.82C77.8854 37.0067 78.0754 37.15 78.3088 37.25C78.5488 37.35 78.7988 37.4 79.0588 37.4C79.3988 37.4 79.7154 37.3233 80.0088 37.17C80.3021 37.01 80.5588 36.79 80.7788 36.51C81.0054 36.23 81.1788 35.9067 81.2988 35.54C81.4254 35.1667 81.4888 34.7667 81.4888 34.34H82.2188C82.2188 34.8867 82.1321 35.39 81.9588 35.85C81.7921 36.3033 81.5588 36.7 81.2588 37.04C80.9654 37.3733 80.6221 37.6333 80.2288 37.82C79.8354 38.0067 79.4154 38.1 78.9688 38.1C78.5354 38.1 78.1421 38.0133 77.7888 37.84C77.4421 37.6667 77.1688 37.4333 76.9688 37.14C76.7688 36.84 76.6688 36.5 76.6688 36.12C76.6688 35.7533 76.7521 35.4333 76.9188 35.16C77.0921 34.88 77.3121 34.6333 77.5788 34.42C77.8521 34.2 78.1321 34 78.4188 33.82C78.7121 33.6333 78.9721 33.4633 79.1988 33.31C79.4254 33.15 79.6021 32.9867 79.7288 32.82C79.8621 32.6533 79.9288 32.4733 79.9288 32.28C79.9288 32.0467 79.8421 31.8567 79.6688 31.71C79.4954 31.5567 79.2754 31.48 79.0088 31.48C78.8088 31.48 78.6321 31.5233 78.4788 31.61C78.3254 31.69 78.2054 31.8 78.1188 31.94C78.0321 32.0733 77.9888 32.2233 77.9888 32.39C77.9888 32.4967 78.0154 32.6067 78.0688 32.72C78.1221 32.8333 78.2221 32.9767 78.3688 33.15C78.5221 33.3233 78.7354 33.5567 79.0088 33.85L82.9788 38H81.8188ZM91.222 31.7H88.772V38H87.872V31.7H85.422V30.9H91.222V31.7ZM93.3013 38.1C92.9079 38.1 92.5479 38.03 92.2213 37.89C91.9013 37.7433 91.6213 37.5467 91.3813 37.3C91.1479 37.0467 90.9646 36.7567 90.8313 36.43C90.7046 36.1033 90.6413 35.7567 90.6413 35.39C90.6413 34.8967 90.7546 34.4467 90.9813 34.04C91.2079 33.6333 91.5213 33.3067 91.9213 33.06C92.3279 32.8133 92.7913 32.69 93.3113 32.69C93.8379 32.69 94.2946 32.8167 94.6813 33.07C95.0746 33.3167 95.3779 33.6433 95.5913 34.05C95.8113 34.45 95.9213 34.8833 95.9213 35.35C95.9213 35.4167 95.9179 35.4833 95.9113 35.55C95.9113 35.61 95.9079 35.6567 95.9013 35.69H91.5713C91.5979 36.03 91.6913 36.3333 91.8513 36.6C92.0179 36.86 92.2313 37.0667 92.4913 37.22C92.7513 37.3667 93.0313 37.44 93.3313 37.44C93.6513 37.44 93.9513 37.36 94.2313 37.2C94.5179 37.04 94.7146 36.83 94.8213 36.57L95.5813 36.78C95.4679 37.0333 95.2979 37.26 95.0713 37.46C94.8513 37.66 94.5879 37.8167 94.2813 37.93C93.9813 38.0433 93.6546 38.1 93.3013 38.1ZM91.5413 35.08H95.1013C95.0746 34.74 94.9779 34.44 94.8113 34.18C94.6446 33.92 94.4313 33.7167 94.1713 33.57C93.9113 33.4233 93.6246 33.35 93.3113 33.35C93.0046 33.35 92.7213 33.4233 92.4613 33.57C92.2013 33.7167 91.9879 33.92 91.8213 34.18C91.6613 34.44 91.5679 34.74 91.5413 35.08ZM97.0941 32.78L98.4741 34.7L98.5541 34.86L98.6441 34.7L100.014 32.78H100.994L99.0641 35.4L101.004 38H100.024L98.6441 36.09L98.5541 35.94L98.4741 36.09L97.0941 38H96.1141L98.0541 35.4L96.1241 32.78H97.0941ZM104.531 37.74C104.458 37.7733 104.358 37.8167 104.231 37.87C104.104 37.9233 103.958 37.97 103.791 38.01C103.624 38.05 103.448 38.07 103.261 38.07C103.048 38.07 102.851 38.0333 102.671 37.96C102.491 37.88 102.348 37.76 102.241 37.6C102.134 37.4333 102.081 37.2267 102.081 36.98V33.47H101.371V32.78H102.081V31.04H102.961V32.78H104.131V33.47H102.961V36.71C102.974 36.8967 103.038 37.0367 103.151 37.13C103.264 37.2167 103.398 37.26 103.551 37.26C103.724 37.26 103.884 37.23 104.031 37.17C104.178 37.11 104.274 37.0667 104.321 37.04L104.531 37.74Z" fill="#424242"/>
</svg>
