<svg width="74" height="26" viewBox="0 0 74 26" fill="none" xmlns="http://www.w3.org/2000/svg">
<path d="M0.90943 13.058C0.90943 12.1047 1.08543 11.1733 1.43743 10.264C1.78943 9.34 2.30276 8.504 2.97743 7.756C3.6521 7.008 4.47343 6.414 5.44143 5.974C6.40943 5.51933 7.50943 5.292 8.74143 5.292C10.2081 5.292 11.4768 5.60733 12.5474 6.238C13.6328 6.86867 14.4394 7.69 14.9674 8.702L12.1954 10.638C11.9608 10.0807 11.6454 9.648 11.2494 9.34C10.8681 9.032 10.4428 8.81933 9.97343 8.702C9.51876 8.57 9.07876 8.504 8.65343 8.504C7.9641 8.504 7.36276 8.64333 6.84943 8.922C6.3361 9.186 5.91076 9.54533 5.57343 10C5.2361 10.4547 4.98676 10.9607 4.82543 11.518C4.6641 12.0753 4.58343 12.6327 4.58343 13.19C4.58343 13.806 4.67876 14.4 4.86943 14.972C5.0601 15.544 5.33143 16.05 5.68343 16.49C6.0501 16.93 6.4901 17.282 7.00343 17.546C7.51676 17.7953 8.08143 17.92 8.69743 17.92C9.13743 17.92 9.58476 17.8467 10.0394 17.7C10.4941 17.5533 10.9121 17.326 11.2934 17.018C11.6894 16.6953 11.9901 16.2773 12.1954 15.764L15.1434 17.502C14.8354 18.2647 14.3294 18.9173 13.6254 19.46C12.9214 20.0027 12.1221 20.4207 11.2274 20.714C10.3474 20.9927 9.47476 21.132 8.60943 21.132C7.4801 21.132 6.43876 20.9047 5.48543 20.45C4.54676 19.9807 3.73276 19.3647 3.04343 18.602C2.36876 17.8247 1.84076 16.9593 1.45943 16.006C1.09276 15.038 0.90943 14.0553 0.90943 13.058ZM23.5851 21.132C22.4117 21.132 21.3484 20.912 20.3951 20.472C19.4564 20.0173 18.6424 19.416 17.9531 18.668C17.2784 17.9053 16.7577 17.0547 16.3911 16.116C16.0244 15.1627 15.8411 14.18 15.8411 13.168C15.8411 12.1267 16.0317 11.1367 16.4131 10.198C16.8091 9.25933 17.3517 8.42333 18.0411 7.69C18.7451 6.942 19.5737 6.35533 20.5271 5.93C21.4804 5.50467 22.5217 5.292 23.6511 5.292C24.8097 5.292 25.8584 5.51933 26.7971 5.974C27.7504 6.414 28.5644 7.01533 29.2391 7.778C29.9284 8.54067 30.4564 9.39867 30.8231 10.352C31.1897 11.2907 31.3731 12.2513 31.3731 13.234C31.3731 14.2753 31.1824 15.2653 30.8011 16.204C30.4197 17.1427 29.8771 17.986 29.1731 18.734C28.4691 19.4673 27.6404 20.054 26.6871 20.494C25.7484 20.9193 24.7144 21.132 23.5851 21.132ZM19.5151 13.212C19.5151 13.8133 19.6031 14.4 19.7791 14.972C19.9551 15.5293 20.2117 16.028 20.5491 16.468C20.9011 16.908 21.3337 17.26 21.8471 17.524C22.3604 17.788 22.9471 17.92 23.6071 17.92C24.2964 17.92 24.8977 17.788 25.4111 17.524C25.9244 17.2453 26.3497 16.8787 26.6871 16.424C27.0244 15.9693 27.2737 15.4633 27.4351 14.906C27.6111 14.334 27.6991 13.7547 27.6991 13.168C27.6991 12.5667 27.6111 11.9873 27.4351 11.43C27.2591 10.8727 26.9951 10.374 26.6431 9.934C26.2911 9.47933 25.8584 9.12733 25.3451 8.878C24.8317 8.62867 24.2524 8.504 23.6071 8.504C22.9177 8.504 22.3164 8.636 21.8031 8.9C21.3044 9.164 20.8791 9.52333 20.5271 9.978C20.1897 10.418 19.9331 10.924 19.7571 11.496C19.5957 12.0533 19.5151 12.6253 19.5151 13.212ZM44.4359 17.832V21H33.4579V5.38H44.2379V8.548H37.0659V11.584H43.2259V14.51H37.0659V17.832H44.4359ZM45.468 13.058C45.468 12.1047 45.644 11.1733 45.996 10.264C46.348 9.34 46.8614 8.504 47.536 7.756C48.2107 7.008 49.032 6.414 50 5.974C50.968 5.51933 52.068 5.292 53.3 5.292C54.7667 5.292 56.0354 5.60733 57.106 6.238C58.1914 6.86867 58.998 7.69 59.526 8.702L56.754 10.638C56.5194 10.0807 56.204 9.648 55.808 9.34C55.4267 9.032 55.0014 8.81933 54.532 8.702C54.0774 8.57 53.6374 8.504 53.212 8.504C52.5227 8.504 51.9214 8.64333 51.408 8.922C50.8947 9.186 50.4694 9.54533 50.132 10C49.7947 10.4547 49.5454 10.9607 49.384 11.518C49.2227 12.0753 49.142 12.6327 49.142 13.19C49.142 13.806 49.2374 14.4 49.428 14.972C49.6187 15.544 49.89 16.05 50.242 16.49C50.6087 16.93 51.0487 17.282 51.562 17.546C52.0754 17.7953 52.64 17.92 53.256 17.92C53.696 17.92 54.1434 17.8467 54.598 17.7C55.0527 17.5533 55.4707 17.326 55.852 17.018C56.248 16.6953 56.5487 16.2773 56.754 15.764L59.702 17.502C59.394 18.2647 58.888 18.9173 58.184 19.46C57.48 20.0027 56.6807 20.4207 55.786 20.714C54.906 20.9927 54.0334 21.132 53.168 21.132C52.0387 21.132 50.9974 20.9047 50.044 20.45C49.1054 19.9807 48.2914 19.3647 47.602 18.602C46.9274 17.8247 46.3994 16.9593 46.018 16.006C45.6514 15.038 45.468 14.0553 45.468 13.058ZM73.4185 8.548H68.6665V21H65.0585V8.548H60.2845V5.38H73.4185V8.548Z" fill="#183D44"/>
</svg>
