<svg width="154" height="81" viewBox="0 0 154 81" fill="none" xmlns="http://www.w3.org/2000/svg">
<path d="M1.29746 77V66.35H8.33246V67.55H2.64746V71.105H7.43246V72.23H2.64746V77H1.29746ZM9.27418 73.865V69.17H10.5942V73.61C10.5942 74.41 10.7342 75.01 11.0142 75.41C11.2942 75.81 11.7092 76.01 12.2592 76.01C12.6192 76.01 12.9642 75.935 13.2942 75.785C13.6342 75.625 13.9392 75.4 14.2092 75.11C14.4792 74.82 14.6892 74.475 14.8392 74.075V69.17H16.1592V75.5C16.1592 75.66 16.1892 75.78 16.2492 75.86C16.3192 75.93 16.4292 75.97 16.5792 75.98V77C16.4292 77.02 16.3092 77.03 16.2192 77.03C16.1392 77.04 16.0592 77.045 15.9792 77.045C15.7292 77.045 15.5142 76.97 15.3342 76.82C15.1542 76.66 15.0592 76.465 15.0492 76.235L15.0192 75.32C14.6792 75.9 14.2192 76.35 13.6392 76.67C13.0692 76.99 12.4442 77.15 11.7642 77.15C10.9442 77.15 10.3242 76.875 9.90418 76.325C9.48418 75.765 9.27418 74.945 9.27418 73.865ZM21.043 77.15C20.393 77.15 19.783 77.045 19.213 76.835C18.643 76.615 18.153 76.29 17.743 75.86L18.253 74.93C18.703 75.35 19.153 75.65 19.603 75.83C20.053 76.01 20.513 76.1 20.983 76.1C21.523 76.1 21.963 76 22.303 75.8C22.643 75.59 22.813 75.285 22.813 74.885C22.813 74.595 22.723 74.38 22.543 74.24C22.373 74.1 22.128 73.985 21.808 73.895C21.488 73.795 21.108 73.685 20.668 73.565C20.128 73.405 19.673 73.235 19.303 73.055C18.933 72.875 18.653 72.65 18.463 72.38C18.273 72.11 18.178 71.77 18.178 71.36C18.178 70.86 18.308 70.44 18.568 70.1C18.828 69.75 19.183 69.485 19.633 69.305C20.093 69.125 20.613 69.035 21.193 69.035C21.773 69.035 22.298 69.125 22.768 69.305C23.238 69.485 23.643 69.75 23.983 70.1L23.383 71.015C23.073 70.695 22.733 70.46 22.363 70.31C21.993 70.15 21.578 70.07 21.118 70.07C20.848 70.07 20.583 70.105 20.323 70.175C20.063 70.235 19.848 70.35 19.678 70.52C19.508 70.68 19.423 70.91 19.423 71.21C19.423 71.46 19.488 71.66 19.618 71.81C19.758 71.95 19.958 72.07 20.218 72.17C20.488 72.27 20.813 72.38 21.193 72.5C21.783 72.67 22.293 72.84 22.723 73.01C23.163 73.18 23.503 73.4 23.743 73.67C23.983 73.94 24.103 74.315 24.103 74.795C24.103 75.535 23.823 76.115 23.263 76.535C22.703 76.945 21.963 77.15 21.043 77.15ZM25.6822 77V69.17H27.0022V77H25.6822ZM25.6822 67.7V66.05H27.0022V67.7H25.6822ZM32.5592 77.15C31.9692 77.15 31.4342 77.045 30.9542 76.835C30.4742 76.615 30.0592 76.32 29.7092 75.95C29.3592 75.57 29.0892 75.135 28.8992 74.645C28.7092 74.155 28.6142 73.64 28.6142 73.1C28.6142 72.55 28.7092 72.03 28.8992 71.54C29.0892 71.05 29.3592 70.62 29.7092 70.25C30.0592 69.87 30.4742 69.575 30.9542 69.365C31.4442 69.145 31.9792 69.035 32.5592 69.035C33.1492 69.035 33.6842 69.145 34.1642 69.365C34.6442 69.575 35.0592 69.87 35.4092 70.25C35.7692 70.62 36.0442 71.05 36.2342 71.54C36.4242 72.03 36.5192 72.55 36.5192 73.1C36.5192 73.64 36.4242 74.155 36.2342 74.645C36.0442 75.135 35.7742 75.57 35.4242 75.95C35.0742 76.32 34.6542 76.615 34.1642 76.835C33.6842 77.045 33.1492 77.15 32.5592 77.15ZM29.9642 73.115C29.9642 73.655 30.0792 74.145 30.3092 74.585C30.5492 75.025 30.8642 75.375 31.2542 75.635C31.6442 75.885 32.0792 76.01 32.5592 76.01C33.0392 76.01 33.4742 75.88 33.8642 75.62C34.2642 75.36 34.5792 75.01 34.8092 74.57C35.0492 74.12 35.1692 73.625 35.1692 73.085C35.1692 72.545 35.0492 72.055 34.8092 71.615C34.5792 71.175 34.2642 70.825 33.8642 70.565C33.4742 70.305 33.0392 70.175 32.5592 70.175C32.0792 70.175 31.6442 70.31 31.2542 70.58C30.8642 70.84 30.5492 71.19 30.3092 71.63C30.0792 72.07 29.9642 72.565 29.9642 73.115ZM44.9137 77H43.5937V72.62C43.5937 71.79 43.4637 71.185 43.2037 70.805C42.9537 70.415 42.5687 70.22 42.0487 70.22C41.6887 70.22 41.3287 70.31 40.9687 70.49C40.6187 70.67 40.3037 70.915 40.0237 71.225C39.7537 71.525 39.5587 71.875 39.4387 72.275V77H38.1187V69.17H39.3187V70.85C39.5287 70.48 39.7987 70.16 40.1287 69.89C40.4587 69.62 40.8337 69.41 41.2537 69.26C41.6737 69.11 42.1137 69.035 42.5737 69.035C43.0237 69.035 43.3987 69.12 43.6987 69.29C44.0087 69.45 44.2487 69.68 44.4187 69.98C44.5987 70.27 44.7237 70.615 44.7937 71.015C44.8737 71.415 44.9137 71.85 44.9137 72.32V77ZM54.1803 77.15C53.5903 77.15 53.0553 77.045 52.5753 76.835C52.0953 76.615 51.6803 76.32 51.3303 75.95C50.9803 75.57 50.7103 75.135 50.5203 74.645C50.3303 74.155 50.2353 73.64 50.2353 73.1C50.2353 72.55 50.3303 72.03 50.5203 71.54C50.7103 71.05 50.9803 70.62 51.3303 70.25C51.6803 69.87 52.0953 69.575 52.5753 69.365C53.0653 69.145 53.6003 69.035 54.1803 69.035C54.7703 69.035 55.3053 69.145 55.7853 69.365C56.2653 69.575 56.6803 69.87 57.0303 70.25C57.3903 70.62 57.6653 71.05 57.8553 71.54C58.0453 72.03 58.1403 72.55 58.1403 73.1C58.1403 73.64 58.0453 74.155 57.8553 74.645C57.6653 75.135 57.3953 75.57 57.0453 75.95C56.6953 76.32 56.2753 76.615 55.7853 76.835C55.3053 77.045 54.7703 77.15 54.1803 77.15ZM51.5853 73.115C51.5853 73.655 51.7003 74.145 51.9303 74.585C52.1703 75.025 52.4853 75.375 52.8753 75.635C53.2653 75.885 53.7003 76.01 54.1803 76.01C54.6603 76.01 55.0953 75.88 55.4853 75.62C55.8853 75.36 56.2003 75.01 56.4303 74.57C56.6703 74.12 56.7903 73.625 56.7903 73.085C56.7903 72.545 56.6703 72.055 56.4303 71.615C56.2003 71.175 55.8853 70.825 55.4853 70.565C55.0953 70.305 54.6603 70.175 54.1803 70.175C53.7003 70.175 53.2653 70.31 52.8753 70.58C52.4853 70.84 52.1703 71.19 51.9303 71.63C51.7003 72.07 51.5853 72.565 51.5853 73.115ZM60.028 77V70.205H58.963V69.17H60.028V69.005C60.028 68.365 60.123 67.815 60.313 67.355C60.513 66.885 60.793 66.525 61.153 66.275C61.513 66.025 61.938 65.9 62.428 65.9C62.738 65.9 63.043 65.945 63.343 66.035C63.643 66.115 63.913 66.23 64.153 66.38L63.823 67.355C63.683 67.255 63.508 67.175 63.298 67.115C63.098 67.055 62.898 67.025 62.698 67.025C62.268 67.025 61.933 67.195 61.693 67.535C61.463 67.865 61.348 68.34 61.348 68.96V69.17H63.433V70.205H61.348V77H60.028ZM68.2039 66.35L71.7289 75.305L75.2389 66.35H76.6639L72.3439 77H71.1139L66.7789 66.35H68.2039ZM77.8892 77V69.17H79.2092V77H77.8892ZM77.8892 67.7V66.05H79.2092V67.7H77.8892ZM80.8363 73.1C80.8363 72.36 80.9863 71.685 81.2863 71.075C81.5963 70.455 82.0163 69.96 82.5463 69.59C83.0863 69.22 83.7013 69.035 84.3913 69.035C85.0213 69.035 85.5863 69.2 86.0863 69.53C86.5863 69.86 86.9763 70.26 87.2563 70.73V66.05H88.5763V75.5C88.5763 75.66 88.6063 75.78 88.6663 75.86C88.7363 75.93 88.8463 75.97 88.9963 75.98V77C88.7463 77.04 88.5513 77.06 88.4113 77.06C88.1513 77.06 87.9213 76.97 87.7213 76.79C87.5313 76.61 87.4363 76.41 87.4363 76.19V75.53C87.1263 76.03 86.7113 76.425 86.1913 76.715C85.6713 77.005 85.1313 77.15 84.5713 77.15C84.0313 77.15 83.5313 77.045 83.0713 76.835C82.6213 76.615 82.2263 76.315 81.8863 75.935C81.5563 75.555 81.2963 75.125 81.1063 74.645C80.9263 74.155 80.8363 73.64 80.8363 73.1ZM87.2563 74.255V72.005C87.1363 71.665 86.9413 71.36 86.6713 71.09C86.4013 70.81 86.0963 70.59 85.7563 70.43C85.4263 70.26 85.0963 70.175 84.7663 70.175C84.3763 70.175 84.0213 70.26 83.7013 70.43C83.3913 70.59 83.1213 70.81 82.8913 71.09C82.6713 71.36 82.5013 71.67 82.3813 72.02C82.2613 72.37 82.2013 72.735 82.2013 73.115C82.2013 73.505 82.2663 73.875 82.3963 74.225C82.5363 74.575 82.7263 74.885 82.9663 75.155C83.2163 75.425 83.5013 75.635 83.8213 75.785C84.1513 75.935 84.5063 76.01 84.8863 76.01C85.1263 76.01 85.3713 75.965 85.6213 75.875C85.8813 75.785 86.1263 75.66 86.3563 75.5C86.5863 75.34 86.7813 75.155 86.9413 74.945C87.1013 74.725 87.2063 74.495 87.2563 74.255ZM94.2448 77.15C93.6548 77.15 93.1148 77.045 92.6248 76.835C92.1448 76.615 91.7248 76.32 91.3648 75.95C91.0148 75.57 90.7398 75.135 90.5398 74.645C90.3498 74.155 90.2548 73.635 90.2548 73.085C90.2548 72.345 90.4248 71.67 90.7648 71.06C91.1048 70.45 91.5748 69.96 92.1748 69.59C92.7848 69.22 93.4798 69.035 94.2598 69.035C95.0498 69.035 95.7348 69.225 96.3148 69.605C96.9048 69.975 97.3598 70.465 97.6798 71.075C98.0098 71.675 98.1748 72.325 98.1748 73.025C98.1748 73.125 98.1698 73.225 98.1598 73.325C98.1598 73.415 98.1548 73.485 98.1448 73.535H91.6498C91.6898 74.045 91.8298 74.5 92.0698 74.9C92.3198 75.29 92.6398 75.6 93.0298 75.83C93.4198 76.05 93.8398 76.16 94.2898 76.16C94.7698 76.16 95.2198 76.04 95.6398 75.8C96.0698 75.56 96.3648 75.245 96.5248 74.855L97.6648 75.17C97.4948 75.55 97.2398 75.89 96.8998 76.19C96.5698 76.49 96.1748 76.725 95.7148 76.895C95.2648 77.065 94.7748 77.15 94.2448 77.15ZM91.6048 72.62H96.9448C96.9048 72.11 96.7598 71.66 96.5098 71.27C96.2598 70.88 95.9398 70.575 95.5498 70.355C95.1598 70.135 94.7298 70.025 94.2598 70.025C93.7998 70.025 93.3748 70.135 92.9848 70.355C92.5948 70.575 92.2748 70.88 92.0248 71.27C91.7848 71.66 91.6448 72.11 91.6048 72.62ZM103.062 77.15C102.472 77.15 101.937 77.045 101.457 76.835C100.977 76.615 100.562 76.32 100.212 75.95C99.8621 75.57 99.5921 75.135 99.4021 74.645C99.2121 74.155 99.1171 73.64 99.1171 73.1C99.1171 72.55 99.2121 72.03 99.4021 71.54C99.5921 71.05 99.8621 70.62 100.212 70.25C100.562 69.87 100.977 69.575 101.457 69.365C101.947 69.145 102.482 69.035 103.062 69.035C103.652 69.035 104.187 69.145 104.667 69.365C105.147 69.575 105.562 69.87 105.912 70.25C106.272 70.62 106.547 71.05 106.737 71.54C106.927 72.03 107.022 72.55 107.022 73.1C107.022 73.64 106.927 74.155 106.737 74.645C106.547 75.135 106.277 75.57 105.927 75.95C105.577 76.32 105.157 76.615 104.667 76.835C104.187 77.045 103.652 77.15 103.062 77.15ZM100.467 73.115C100.467 73.655 100.582 74.145 100.812 74.585C101.052 75.025 101.367 75.375 101.757 75.635C102.147 75.885 102.582 76.01 103.062 76.01C103.542 76.01 103.977 75.88 104.367 75.62C104.767 75.36 105.082 75.01 105.312 74.57C105.552 74.12 105.672 73.625 105.672 73.085C105.672 72.545 105.552 72.055 105.312 71.615C105.082 71.175 104.767 70.825 104.367 70.565C103.977 70.305 103.542 70.175 103.062 70.175C102.582 70.175 102.147 70.31 101.757 70.58C101.367 70.84 101.052 71.19 100.812 71.63C100.582 72.07 100.467 72.565 100.467 73.115ZM119.751 77L114.531 71.495C114.101 71.035 113.756 70.645 113.496 70.325C113.246 69.995 113.066 69.7 112.956 69.44C112.846 69.17 112.791 68.895 112.791 68.615C112.791 68.155 112.911 67.745 113.151 67.385C113.391 67.025 113.716 66.74 114.126 66.53C114.546 66.32 115.016 66.215 115.536 66.215C116.016 66.215 116.451 66.305 116.841 66.485C117.231 66.655 117.541 66.905 117.771 67.235C118.011 67.555 118.131 67.94 118.131 68.39C118.131 68.85 118.006 69.26 117.756 69.62C117.506 69.97 117.176 70.3 116.766 70.61C116.366 70.91 115.921 71.215 115.431 71.525C115.031 71.785 114.666 72.05 114.336 72.32C114.016 72.59 113.761 72.88 113.571 73.19C113.391 73.49 113.301 73.825 113.301 74.195C113.301 74.595 113.411 74.94 113.631 75.23C113.851 75.51 114.136 75.725 114.486 75.875C114.846 76.025 115.221 76.1 115.611 76.1C116.121 76.1 116.596 75.985 117.036 75.755C117.476 75.515 117.861 75.185 118.191 74.765C118.531 74.345 118.791 73.86 118.971 73.31C119.161 72.75 119.256 72.15 119.256 71.51H120.351C120.351 72.33 120.221 73.085 119.961 73.775C119.711 74.455 119.361 75.05 118.911 75.56C118.471 76.06 117.956 76.45 117.366 76.73C116.776 77.01 116.146 77.15 115.476 77.15C114.826 77.15 114.236 77.02 113.706 76.76C113.186 76.5 112.776 76.15 112.476 75.71C112.176 75.26 112.026 74.75 112.026 74.18C112.026 73.63 112.151 73.15 112.401 72.74C112.661 72.32 112.991 71.95 113.391 71.63C113.801 71.3 114.221 71 114.651 70.73C115.091 70.45 115.481 70.195 115.821 69.965C116.161 69.725 116.426 69.48 116.616 69.23C116.816 68.98 116.916 68.71 116.916 68.42C116.916 68.07 116.786 67.785 116.526 67.565C116.266 67.335 115.936 67.22 115.536 67.22C115.236 67.22 114.971 67.285 114.741 67.415C114.511 67.535 114.331 67.7 114.201 67.91C114.071 68.11 114.006 68.335 114.006 68.585C114.006 68.745 114.046 68.91 114.126 69.08C114.206 69.25 114.356 69.465 114.576 69.725C114.806 69.985 115.126 70.335 115.536 70.775L121.491 77H119.751ZM133.855 67.55H130.18V77H128.83V67.55H125.155V66.35H133.855V67.55ZM136.974 77.15C136.384 77.15 135.844 77.045 135.354 76.835C134.874 76.615 134.454 76.32 134.094 75.95C133.744 75.57 133.469 75.135 133.269 74.645C133.079 74.155 132.984 73.635 132.984 73.085C132.984 72.345 133.154 71.67 133.494 71.06C133.834 70.45 134.304 69.96 134.904 69.59C135.514 69.22 136.209 69.035 136.989 69.035C137.779 69.035 138.464 69.225 139.044 69.605C139.634 69.975 140.089 70.465 140.409 71.075C140.739 71.675 140.904 72.325 140.904 73.025C140.904 73.125 140.899 73.225 140.889 73.325C140.889 73.415 140.884 73.485 140.874 73.535H134.379C134.419 74.045 134.559 74.5 134.799 74.9C135.049 75.29 135.369 75.6 135.759 75.83C136.149 76.05 136.569 76.16 137.019 76.16C137.499 76.16 137.949 76.04 138.369 75.8C138.799 75.56 139.094 75.245 139.254 74.855L140.394 75.17C140.224 75.55 139.969 75.89 139.629 76.19C139.299 76.49 138.904 76.725 138.444 76.895C137.994 77.065 137.504 77.15 136.974 77.15ZM134.334 72.62H139.674C139.634 72.11 139.489 71.66 139.239 71.27C138.989 70.88 138.669 70.575 138.279 70.355C137.889 70.135 137.459 70.025 136.989 70.025C136.529 70.025 136.104 70.135 135.714 70.355C135.324 70.575 135.004 70.88 134.754 71.27C134.514 71.66 134.374 72.11 134.334 72.62ZM142.664 69.17L144.734 72.05L144.854 72.29L144.989 72.05L147.044 69.17H148.514L145.619 73.1L148.529 77H147.059L144.989 74.135L144.854 73.91L144.734 74.135L142.664 77H141.194L144.104 73.1L141.209 69.17H142.664ZM153.819 76.61C153.709 76.66 153.559 76.725 153.369 76.805C153.179 76.885 152.959 76.955 152.709 77.015C152.459 77.075 152.194 77.105 151.914 77.105C151.594 77.105 151.299 77.05 151.029 76.94C150.759 76.82 150.544 76.64 150.384 76.4C150.224 76.15 150.144 75.84 150.144 75.47V70.205H149.079V69.17H150.144V66.56H151.464V69.17H153.219V70.205H151.464V75.065C151.484 75.345 151.579 75.555 151.749 75.695C151.919 75.825 152.119 75.89 152.349 75.89C152.609 75.89 152.849 75.845 153.069 75.755C153.289 75.665 153.434 75.6 153.504 75.56L153.819 76.61Z" fill="#183D44"/>
<path d="M10.3808 36.56C10.3808 34.8267 10.7008 33.1333 11.3408 31.48C11.9808 29.8 12.9141 28.28 14.1408 26.92C15.3674 25.56 16.8608 24.48 18.6208 23.68C20.3808 22.8533 22.3808 22.44 24.6208 22.44C27.2874 22.44 29.5941 23.0133 31.5408 24.16C33.5141 25.3067 34.9808 26.8 35.9408 28.64L30.9008 32.16C30.4741 31.1467 29.9008 30.36 29.1808 29.8C28.4874 29.24 27.7141 28.8533 26.8608 28.64C26.0341 28.4 25.2341 28.28 24.4608 28.28C23.2074 28.28 22.1141 28.5333 21.1808 29.04C20.2474 29.52 19.4741 30.1733 18.8608 31C18.2474 31.8267 17.7941 32.7467 17.5008 33.76C17.2074 34.7733 17.0608 35.7867 17.0608 36.8C17.0608 37.92 17.2341 39 17.5808 40.04C17.9274 41.08 18.4208 42 19.0608 42.8C19.7274 43.6 20.5274 44.24 21.4608 44.72C22.3941 45.1733 23.4208 45.4 24.5408 45.4C25.3408 45.4 26.1541 45.2667 26.9808 45C27.8074 44.7333 28.5674 44.32 29.2608 43.76C29.9808 43.1733 30.5274 42.4133 30.9008 41.48L36.2608 44.64C35.7008 46.0267 34.7808 47.2133 33.5008 48.2C32.2208 49.1867 30.7674 49.9467 29.1408 50.48C27.5408 50.9867 25.9541 51.24 24.3808 51.24C22.3274 51.24 20.4341 50.8267 18.7008 50C16.9941 49.1467 15.5141 48.0267 14.2608 46.64C13.0341 45.2267 12.0741 43.6533 11.3808 41.92C10.7141 40.16 10.3808 38.3733 10.3808 36.56ZM51.6092 51.24C49.4759 51.24 47.5426 50.84 45.8092 50.04C44.1026 49.2133 42.6226 48.12 41.3692 46.76C40.1426 45.3733 39.1959 43.8267 38.5292 42.12C37.8626 40.3867 37.5292 38.6 37.5292 36.76C37.5292 34.8667 37.8759 33.0667 38.5692 31.36C39.2892 29.6533 40.2759 28.1333 41.5292 26.8C42.8092 25.44 44.3159 24.3733 46.0492 23.6C47.7826 22.8267 49.6759 22.44 51.7292 22.44C53.8359 22.44 55.7426 22.8533 57.4492 23.68C59.1826 24.48 60.6626 25.5733 61.8892 26.96C63.1426 28.3467 64.1026 29.9067 64.7692 31.64C65.4359 33.3467 65.7692 35.0933 65.7692 36.88C65.7692 38.7733 65.4226 40.5733 64.7292 42.28C64.0359 43.9867 63.0492 45.52 61.7692 46.88C60.4892 48.2133 58.9826 49.28 57.2492 50.08C55.5426 50.8533 53.6626 51.24 51.6092 51.24ZM44.2092 36.84C44.2092 37.9333 44.3692 39 44.6892 40.04C45.0092 41.0533 45.4759 41.96 46.0892 42.76C46.7292 43.56 47.5159 44.2 48.4492 44.68C49.3826 45.16 50.4492 45.4 51.6492 45.4C52.9026 45.4 53.9959 45.16 54.9292 44.68C55.8626 44.1733 56.6359 43.5067 57.2492 42.68C57.8626 41.8533 58.3159 40.9333 58.6092 39.92C58.9292 38.88 59.0892 37.8267 59.0892 36.76C59.0892 35.6667 58.9292 34.6133 58.6092 33.6C58.2892 32.5867 57.8092 31.68 57.1692 30.88C56.5292 30.0533 55.7426 29.4133 54.8092 28.96C53.8759 28.5067 52.8226 28.28 51.6492 28.28C50.3959 28.28 49.3026 28.52 48.3692 29C47.4626 29.48 46.6892 30.1333 46.0492 30.96C45.4359 31.76 44.9692 32.68 44.6492 33.72C44.3559 34.7333 44.2092 35.7733 44.2092 36.84ZM89.5198 45.24V51H69.5598V22.6H89.1598V28.36H76.1198V33.88H87.3198V39.2H76.1198V45.24H89.5198ZM91.3964 36.56C91.3964 34.8267 91.7164 33.1333 92.3564 31.48C92.9964 29.8 93.9297 28.28 95.1564 26.92C96.3831 25.56 97.8764 24.48 99.6364 23.68C101.396 22.8533 103.396 22.44 105.636 22.44C108.303 22.44 110.61 23.0133 112.556 24.16C114.53 25.3067 115.996 26.8 116.956 28.64L111.916 32.16C111.49 31.1467 110.916 30.36 110.196 29.8C109.503 29.24 108.73 28.8533 107.876 28.64C107.05 28.4 106.25 28.28 105.476 28.28C104.223 28.28 103.13 28.5333 102.196 29.04C101.263 29.52 100.49 30.1733 99.8764 31C99.2631 31.8267 98.8097 32.7467 98.5164 33.76C98.2231 34.7733 98.0764 35.7867 98.0764 36.8C98.0764 37.92 98.2497 39 98.5964 40.04C98.9431 41.08 99.4364 42 100.076 42.8C100.743 43.6 101.543 44.24 102.476 44.72C103.41 45.1733 104.436 45.4 105.556 45.4C106.356 45.4 107.17 45.2667 107.996 45C108.823 44.7333 109.583 44.32 110.276 43.76C110.996 43.1733 111.543 42.4133 111.916 41.48L117.276 44.64C116.716 46.0267 115.796 47.2133 114.516 48.2C113.236 49.1867 111.783 49.9467 110.156 50.48C108.556 50.9867 106.97 51.24 105.396 51.24C103.343 51.24 101.45 50.8267 99.7164 50C98.0097 49.1467 96.5297 48.0267 95.2764 46.64C94.0497 45.2267 93.0897 43.6533 92.3964 41.92C91.7297 40.16 91.3964 38.3733 91.3964 36.56ZM142.215 28.36H133.575V51H127.015V28.36H118.335V22.6H142.215V28.36Z" fill="#183D44"/>
</svg>
