<svg width="10" height="16" viewBox="0 0 10 16" fill="none" xmlns="http://www.w3.org/2000/svg">
<path d="M3 3.5C3.13261 3.5 3.25979 3.55268 3.35355 3.64645C3.44732 3.74021 3.5 3.86739 3.5 4V12C3.5 12.1326 3.44732 12.2598 3.35355 12.3536C3.25979 12.4473 3.13261 12.5 3 12.5C2.86739 12.5 2.74021 12.4473 2.64645 12.3536C2.55268 12.2598 2.5 12.1326 2.5 12V4C2.5 3.86739 2.55268 3.74021 2.64645 3.64645C2.74021 3.55268 2.86739 3.5 3 3.5ZM7 3.5C7.13261 3.5 7.25979 3.55268 7.35355 3.64645C7.44732 3.74021 7.5 3.86739 7.5 4V12C7.5 12.1326 7.44732 12.2598 7.35355 12.3536C7.25979 12.4473 7.13261 12.5 7 12.5C6.86739 12.5 6.74021 12.4473 6.64645 12.3536C6.55268 12.2598 6.5 12.1326 6.5 12V4C6.5 3.86739 6.55268 3.74021 6.64645 3.64645C6.74021 3.55268 6.86739 3.5 7 3.5Z" fill="#99D0DC" stroke="#99D0DC"/>
</svg>
