<svg width="16" height="16" viewBox="0 0 16 16" fill="none" xmlns="http://www.w3.org/2000/svg">
<g clip-path="url(#clip0_704_462)">
<path fill-rule="evenodd" clip-rule="evenodd" d="M7.00005 1.33337C6.09644 1.33345 5.20596 1.54962 4.40288 1.96384C3.59981 2.37806 2.90744 2.97832 2.38354 3.71454C1.85963 4.45077 1.51939 5.30161 1.39119 6.19607C1.26298 7.09053 1.35055 8.00269 1.64657 8.85643C1.94259 9.71017 2.43848 10.4807 3.09287 11.1039C3.74727 11.727 4.54118 12.1846 5.40839 12.4384C6.2756 12.6923 7.19094 12.7351 8.07806 12.5633C8.96518 12.3915 9.79835 12.01 10.508 11.4507L12.9427 13.8854C13.0684 14.0068 13.2369 14.074 13.4116 14.0725C13.5864 14.071 13.7537 14.0009 13.8773 13.8773C14.0009 13.7536 14.071 13.5864 14.0725 13.4116C14.074 13.2368 14.0068 13.0684 13.8854 12.9427L11.4507 10.508C12.1094 9.67245 12.5195 8.66831 12.6341 7.61052C12.7487 6.55274 12.5632 5.48405 12.0989 4.52677C11.6345 3.56948 10.91 2.76228 10.0082 2.19753C9.10653 1.63278 8.06402 1.3333 7.00005 1.33337ZM2.66671 7.00004C2.66671 5.85077 3.12326 4.74857 3.93592 3.93591C4.74858 3.12325 5.85078 2.66671 7.00005 2.66671C8.14932 2.66671 9.25152 3.12325 10.0642 3.93591C10.8768 4.74857 11.3334 5.85077 11.3334 7.00004C11.3334 8.14931 10.8768 9.25151 10.0642 10.0642C9.25152 10.8768 8.14932 11.3334 7.00005 11.3334C5.85078 11.3334 4.74858 10.8768 3.93592 10.0642C3.12326 9.25151 2.66671 8.14931 2.66671 7.00004Z" fill="#919191"/>
</g>
<defs>
<clipPath id="clip0_704_462">
<rect width="16" height="16" fill="white"/>
</clipPath>
</defs>
</svg>
