<svg width="61" height="53" viewBox="0 0 61 53" fill="none" xmlns="http://www.w3.org/2000/svg">
<path d="M30.4097 52.7341C47.2044 52.7341 60.8193 51.9393 60.8193 50.9587C60.8193 49.9782 47.2044 49.1833 30.4097 49.1833C13.6149 49.1833 0 49.9782 0 50.9587C0 51.9393 13.6149 52.7341 30.4097 52.7341Z" fill="#F5F5F5"/>
<path d="M39.6632 37.3105H39.5063V38.3912H39.6632V37.3105Z" fill="#2B6F7D"/>
<path d="M39.6632 32.5363H39.5063V36.1954H39.6632V32.5363Z" fill="#2B6F7D"/>
<path d="M38.7222 0H36.735C36.5184 0 36.3429 0.175549 36.3429 0.392099V49.7449C36.3429 49.9614 36.5184 50.1369 36.735 50.1369H38.7222C38.9387 50.1369 39.1143 49.9614 39.1143 49.7449V0.392099C39.1143 0.175549 38.9387 0 38.7222 0Z" fill="#2B6F7D"/>
<path opacity="0.4" d="M39.1143 30.9507L36.3429 29.4074V26.8979H39.1143V30.9507Z" fill="#263238"/>
<path d="M55.0444 27.3072H18.8145L20.4142 1.30792H56.6442L55.0444 27.3072Z" fill="#2B6F7D"/>
<path opacity="0.8" d="M55.0444 27.3072H18.8145L20.4142 1.30792H56.6442L55.0444 27.3072Z" fill="white"/>
<path d="M19.4795 26.68L21.0024 1.93536H55.9777L54.4548 26.68H19.4795Z" fill="white"/>
<path d="M55.3236 27.3072H55.0444L56.6442 1.30792H56.9218L55.3236 27.3072Z" fill="#2B6F7D"/>
<path opacity="0.4" d="M29.4685 5.5646C29.2072 5.62767 28.9723 5.77144 28.7973 5.97552C28.4961 6.34567 28.4412 6.85226 28.1417 7.21142C27.8766 7.5251 27.4187 7.62862 27.2006 7.99562C27.0438 8.25911 27.072 8.59004 26.9309 8.86138C26.7521 9.20015 26.3851 9.34601 26.0996 9.57343C25.7342 9.86672 25.6056 10.2776 25.3405 10.6525C24.8904 11.2924 24.1485 11.6672 23.6231 12.2491C23.0977 12.831 22.8201 13.6873 23.1291 14.3586C23.3879 14.9201 23.976 15.2259 24.4512 15.6133C24.8528 15.9411 25.2041 16.454 25.0864 17.0249C24.9688 17.5958 24.3948 17.9424 24.0842 18.3988C23.8004 18.8176 23.6733 19.3132 23.5526 19.7978C23.4152 20.2516 23.3439 20.7227 23.3408 21.1968C23.402 22.6507 24.7759 23.7188 26.1185 23.9839C26.6531 24.1067 27.2129 24.0579 27.7182 23.8443C28.0154 23.7071 28.2685 23.4899 28.4491 23.2169C28.7957 22.6758 28.4491 22.119 29.2694 21.9795C29.5182 21.9213 29.7758 21.9111 30.0285 21.9496C30.152 21.9702 30.2672 22.0253 30.3607 22.1086C30.4542 22.1918 30.5223 22.2999 30.557 22.4202C30.5852 22.5535 30.557 22.6978 30.5962 22.828C30.6212 22.9079 30.6639 22.9812 30.7212 23.0423C30.7785 23.1035 30.8489 23.1508 30.9272 23.1808C31.313 23.3377 31.6674 23.173 31.8933 22.8029C32.0721 22.5127 32.1678 22.2022 32.4046 21.9496C32.8687 21.4964 33.378 21.0917 33.9244 20.742C34.3949 20.4173 34.9187 20.1444 35.4739 20.0895C35.9821 20.0378 36.5389 20.1993 36.8494 20.5961C37.1882 21.0306 37.0063 21.6658 37.4235 22.0814C37.6318 22.2717 37.8924 22.3951 38.1716 22.4359C38.9193 22.5587 39.6859 22.397 40.3203 21.9826C40.6317 21.7908 40.8871 21.5203 41.0606 21.1984C41.288 20.7388 41.1327 20.3217 41.2174 19.8527C41.3382 19.1407 41.9671 19.0136 42.56 18.9305C43.2735 18.8251 43.9361 18.4987 44.4546 17.9973C44.8247 17.6397 45.3313 17.3339 45.8175 17.577C46.0129 17.6864 46.1845 17.8335 46.3225 18.0098C46.6111 18.3439 46.8605 18.7125 47.1554 19.0418C47.8737 19.8433 49.4735 20.4895 50.1981 19.1673C50.3093 18.9636 50.3675 18.7352 50.3675 18.5031C50.3675 18.271 50.3093 18.0426 50.1981 17.8389C49.9848 17.4703 49.5895 17.1049 49.7997 16.6155C50.0381 16.0635 50.7046 16.0431 50.8035 15.3483C50.8897 14.7444 50.5431 14.1735 50.9352 13.6073C51.1705 13.2686 51.5469 13.0882 51.8386 12.8075C52.6228 12.0499 52.4565 10.952 52.7436 10.011C53.1153 8.79394 54.599 8.57906 54.1222 7.11261C54.016 6.74115 53.8626 6.38483 53.6658 6.05238C53.4669 5.71975 53.1612 5.46433 52.7985 5.32778C52.0252 5.06586 51.7696 5.58499 51.2144 5.97239C50.6592 6.35978 50.0553 5.87672 49.6789 5.54108C48.6202 4.60004 47.0848 4.37733 45.852 5.32621C45.4913 5.60538 45.1431 5.91749 44.7275 6.09629C43.7002 6.53701 41.782 6.16844 41.0778 5.35444C40.9351 5.15344 40.7817 4.96025 40.6183 4.7757C40.407 4.59732 40.1417 4.49547 39.8653 4.48665C39.5889 4.47782 39.3176 4.56254 39.0954 4.72708C38.8287 4.9247 38.6374 5.22269 38.3457 5.3764C37.8501 5.63832 37.2588 5.56147 36.7773 5.85476C36.2566 6.16844 35.8064 6.62014 35.1603 6.40683C34.7823 6.28136 34.5329 5.95043 34.2522 5.67126C33.9714 5.39208 33.5966 5.14114 33.1982 5.24152C32.6273 5.38424 32.5457 6.20451 31.9435 6.27509C31.7082 6.30175 31.4981 6.17314 31.3036 6.05394C30.9303 5.79644 30.5053 5.62355 30.0583 5.54735C29.8623 5.51742 29.6625 5.52327 29.4685 5.5646Z" fill="#2B6F7D"/>
<path opacity="0.4" d="M47.4032 21.9858C47.0707 21.5827 47.157 20.5648 46.4889 20.6574C46.0826 20.7138 46.1187 20.8926 45.7564 20.6354C45.5149 20.4645 45.402 20.2245 44.9628 20.2214C43.2721 20.2088 43.2595 22.6336 44.5299 23.2358C44.9016 23.4131 45.1369 23.0617 45.471 23.079C45.805 23.0962 46.0011 23.4664 46.1909 23.6812C46.4031 23.9466 46.6938 24.138 47.0214 24.2282C47.3491 24.3183 47.6968 24.3026 48.0149 24.1831C48.5811 23.9996 49.0783 23.286 48.8132 22.7088C48.5717 22.1975 47.7702 22.4312 47.4032 21.9858Z" fill="#2B6F7D"/>
<path d="M24.7885 16.5292L24.6991 16.4524C24.972 16.1387 24.9547 15.7905 24.9359 15.4267C24.9144 15.1994 24.925 14.9703 24.9673 14.746C25.0645 14.3351 25.3421 14.1688 25.6119 14.0073C25.824 13.9057 26.0041 13.7478 26.1326 13.5509C26.3224 13.2089 26.1452 12.9125 25.957 12.5988C25.9068 12.5157 25.855 12.4279 25.8142 12.3432C25.7103 12.1218 25.6666 11.8769 25.6876 11.6332C25.7085 11.3895 25.7933 11.1556 25.9334 10.9552C26.0632 10.7528 26.2402 10.5851 26.4492 10.4665C26.6583 10.348 26.893 10.282 27.1332 10.2745C27.9535 10.2478 28.7895 10.814 29.2161 11.3535C29.3729 11.5464 29.5094 11.7519 29.6443 11.9511C29.7603 12.1205 29.8795 12.2961 30.0066 12.4624C30.1339 12.6493 30.2971 12.8092 30.4865 12.9329C30.968 13.2168 31.5138 12.9329 31.8871 12.6412C32.4916 12.1734 33.2252 11.9024 33.9887 11.8648C34.6459 11.8335 35.2513 11.7535 35.4207 11.1057C35.4592 10.9394 35.4813 10.7698 35.4865 10.5991C35.4793 10.3039 35.5525 10.0122 35.6983 9.75534C35.9145 9.43356 36.2136 9.17616 36.564 9.01035C37.2869 8.6455 38.1166 8.55201 38.9025 8.74686C39.2011 8.81465 39.4735 8.96776 39.6867 9.18758C39.911 9.44323 39.9455 9.74593 39.9769 10.0377C39.9829 10.282 40.0503 10.521 40.1729 10.7324C40.427 11.1026 40.9571 11.341 41.5107 11.341H41.528C42.0252 11.341 42.5663 11.17 43.1842 10.8328L43.2438 10.7999C43.8195 10.5118 44.3644 10.1661 44.8703 9.76789C45.0263 9.62187 45.1596 9.45321 45.2655 9.26757C45.3282 9.16876 45.3925 9.06681 45.4678 8.968C45.7705 8.57277 46.1893 8.45827 46.5892 8.65432C46.676 8.69392 46.7526 8.75278 46.8132 8.82644C46.8738 8.90009 46.9168 8.98659 46.939 9.07936C46.951 9.15613 46.9536 9.23407 46.9468 9.31148C46.9405 9.37249 46.9405 9.43398 46.9468 9.49498C46.9732 9.60964 47.0313 9.71456 47.1145 9.79776C47.1978 9.88096 47.3027 9.93909 47.4173 9.9655C47.6741 10.0267 47.9402 10.039 48.2015 10.0016C48.7238 9.95923 48.7834 9.73809 48.8665 9.43068C48.9102 9.22334 48.9985 9.028 49.1253 8.85821C49.3474 8.58793 49.6408 8.38527 49.9722 8.2732C50.5342 8.09936 51.1355 8.09936 51.6975 8.2732C53.0996 8.66373 54.4877 9.85572 54.4328 11.3755H54.3151C54.3685 9.931 52.9898 8.75941 51.6661 8.39554C51.1259 8.23031 50.5486 8.23031 50.0083 8.39554C49.6974 8.50023 49.4219 8.68983 49.2131 8.94291C49.0966 9.10013 49.0163 9.28115 48.9779 9.47303C48.8932 9.78671 48.8116 10.08 48.2094 10.1302C47.9348 10.1681 47.6555 10.1543 47.386 10.0894C47.2495 10.0576 47.1249 9.9878 47.0264 9.88818C46.9279 9.78856 46.8595 9.66313 46.8292 9.52635C46.8221 9.45752 46.8221 9.38815 46.8292 9.31932C46.8371 9.25159 46.8371 9.18316 46.8292 9.11543C46.8096 9.04053 46.7735 8.97095 46.7236 8.91179C46.6737 8.85263 46.6111 8.80539 46.5406 8.77352C46.1955 8.59786 45.8317 8.70138 45.5666 9.04799C45.4945 9.1421 45.4302 9.2409 45.369 9.33814C45.2569 9.53401 45.1157 9.7117 44.9502 9.86513C44.4386 10.2686 43.8874 10.6191 43.305 10.9112L43.2454 10.9442C42.6102 11.2908 42.0503 11.4602 41.5343 11.4665C40.9226 11.4665 40.3642 11.2187 40.0804 10.8077C39.9468 10.5799 39.8729 10.322 39.8655 10.058C39.8326 9.77102 39.8028 9.50126 39.6036 9.27384C39.4051 9.07078 39.1516 8.93013 38.8743 8.86919C38.117 8.68084 37.3173 8.77044 36.6205 9.12171C36.2887 9.27836 36.0053 9.52165 35.8002 9.82592C35.6663 10.0652 35.5991 10.336 35.6057 10.6101C35.6019 10.7882 35.5793 10.9653 35.5383 11.1387C35.3313 11.9229 34.5282 11.9605 33.9966 11.9856C33.256 12.0213 32.5443 12.2835 31.9576 12.7369C31.5561 13.0505 30.9648 13.3532 30.4253 13.038C30.2242 12.9078 30.0501 12.7401 29.9124 12.5439C29.7838 12.3746 29.6631 12.1973 29.5454 12.0264C29.4121 11.8288 29.2725 11.6249 29.122 11.4351C28.7001 10.9034 27.8798 10.3717 27.1364 10.4015C26.9145 10.407 26.6973 10.4672 26.5042 10.5766C26.3111 10.686 26.1479 10.8414 26.0291 11.0289C25.9007 11.2122 25.8227 11.4262 25.8032 11.6492C25.7836 11.8722 25.8232 12.0964 25.9177 12.2993C25.957 12.3808 26.0056 12.4561 26.0558 12.5455C26.244 12.8592 26.4557 13.2152 26.233 13.6152C26.0958 13.8307 25.9014 14.004 25.6715 14.1155C25.4111 14.2723 25.1665 14.4182 25.0802 14.7805C25.0403 14.994 25.0308 15.2121 25.052 15.4282C25.0771 15.789 25.0928 16.1779 24.7885 16.5292Z" fill="white"/>
<path d="M35.9288 20.6763L35.8127 20.6575C35.8494 20.5024 35.9244 20.3589 36.0307 20.2403C36.1069 20.1525 36.1684 20.0529 36.2127 19.9454C36.2521 19.8052 36.2685 19.6595 36.2613 19.5141C36.2533 19.3554 36.2713 19.1965 36.3146 19.0436C36.3773 18.8632 36.496 18.7077 36.6534 18.5997C36.7697 18.5168 36.8998 18.4552 37.0377 18.4178C37.3441 18.3499 37.6613 18.3462 37.9693 18.4068C38.1087 18.4441 38.2564 18.4364 38.3912 18.3849C38.548 18.2986 38.5951 18.1292 38.6406 17.952C38.665 17.7608 38.7601 17.5857 38.9072 17.4611C39.1095 17.3168 39.395 17.3042 39.7337 17.4454L39.8718 17.5034C40.0532 17.6015 40.2553 17.6553 40.4615 17.6602C40.8097 17.6336 40.9822 17.3889 41.1641 17.1286C41.2065 17.0674 41.2504 17.0078 41.2943 16.9482C41.4251 16.7977 41.5818 16.6718 41.757 16.5765C41.9059 16.4921 42.0417 16.3864 42.16 16.2628C42.2335 16.1676 42.2922 16.0618 42.3341 15.9491C42.3702 15.8614 42.4126 15.7765 42.4612 15.695C42.5703 15.5285 42.7304 15.4017 42.9176 15.3339C43.1048 15.266 43.309 15.2607 43.4995 15.3186C43.5929 15.3564 43.6826 15.4026 43.7677 15.4567C43.8225 15.4896 43.879 15.5241 43.937 15.5523C44.5644 15.8488 45.8191 15.6088 46.3477 15.0928C46.5104 14.9191 46.6491 14.7245 46.7602 14.514L46.8511 14.3572C47.3656 13.5165 48.3787 13.1731 49.3747 13.5009C49.7025 13.6091 50.1589 13.7173 50.38 13.3973C50.4342 13.3143 50.484 13.2285 50.529 13.1401C50.6717 12.8735 50.8051 12.621 51.2568 12.5896C51.5288 12.579 51.7967 12.6584 52.019 12.8155L51.9531 12.9127C51.7519 12.7714 51.5103 12.6993 51.2646 12.7073C50.8788 12.7339 50.7753 12.9268 50.6372 13.195C50.5898 13.2872 50.5375 13.3767 50.4804 13.4632C50.22 13.849 49.7056 13.733 49.3417 13.6122C48.4007 13.2985 47.4393 13.6248 46.9546 14.4184L46.8652 14.5674C46.7488 14.7867 46.6031 14.9893 46.4324 15.1696C45.8756 15.7139 44.5503 15.9648 43.89 15.6511C43.8282 15.6208 43.768 15.5873 43.7096 15.5508C43.631 15.501 43.5481 15.4585 43.4618 15.4237C43.2966 15.3755 43.1204 15.3813 42.9587 15.4403C42.7971 15.4992 42.6585 15.6083 42.5631 15.7515C42.5186 15.8283 42.4793 15.9079 42.4455 15.9899C42.3993 16.1145 42.3337 16.231 42.251 16.335C42.1248 16.4658 41.98 16.5773 41.8213 16.6659C41.6587 16.7538 41.5131 16.8702 41.3915 17.0094C41.3476 17.0674 41.3053 17.1254 41.2645 17.185C41.0731 17.4564 40.8771 17.7355 40.4803 17.7669C40.2553 17.7681 40.0335 17.7143 39.8341 17.6101C39.7886 17.5912 39.7447 17.5709 39.6992 17.5536C39.4906 17.4705 39.1973 17.3968 38.984 17.5536C38.8617 17.6633 38.7836 17.8139 38.7645 17.9771C38.7143 18.1731 38.6625 18.3739 38.4508 18.4852C38.2942 18.5498 38.1208 18.5619 37.9567 18.5197C37.6644 18.462 37.3634 18.4646 37.0722 18.5276C36.9489 18.5595 36.8322 18.6125 36.7271 18.6844C36.5902 18.7779 36.4864 18.9125 36.4307 19.0687C36.392 19.2101 36.3761 19.3567 36.3836 19.5031C36.3913 19.6619 36.3728 19.8209 36.3287 19.9736C36.2811 20.0926 36.215 20.2032 36.1327 20.3014C36.034 20.4071 35.9639 20.5361 35.9288 20.6763Z" fill="white"/>
<path d="M25.4708 3.24183H21.8885L21.9105 2.90149H25.4912L25.4708 3.24183Z" fill="#2B6F7D"/>
<path d="M25.4017 4.35377H21.821L21.8414 4.01343H25.4237L25.4017 4.35377Z" fill="#2B6F7D"/>
</svg>
