<svg width="495" height="495" viewBox="0 0 495 495" fill="none" xmlns="http://www.w3.org/2000/svg">
<path d="M386.573 172C369.312 172 353.284 177.676 340.215 187.3C327.146 177.676 311.118 172 293.858 172C276.597 172 260.569 177.676 247.5 187.3C234.431 177.676 218.65 172 201.142 172C183.882 172 167.854 177.676 154.785 187.3C141.962 177.676 125.934 172 108.427 172C65.7682 172 31 206.302 31 248.5C31 290.698 65.7682 325 108.427 325C125.688 325 141.716 319.324 154.785 309.7C167.854 319.324 183.882 325 201.142 325C218.403 325 234.431 319.324 247.5 309.7C260.322 319.324 276.35 325 293.858 325C311.118 325 327.146 319.324 340.215 309.7C353.038 319.324 369.065 325 386.573 325C429.232 325 464 290.698 464 248.5C464 206.302 429.232 172 386.573 172ZM340.215 287.984C330.845 277.373 325.174 263.553 325.174 248.5C325.174 233.447 330.845 219.627 340.215 209.016C349.585 219.627 355.257 233.447 355.257 248.5C355.257 263.553 349.585 277.373 340.215 287.984ZM247.5 287.984C238.13 277.373 232.458 263.553 232.458 248.5C232.458 233.447 238.13 219.627 247.5 209.016C256.87 219.627 262.542 233.447 262.542 248.5C262.542 263.553 256.87 277.373 247.5 287.984ZM154.785 287.984C145.415 277.373 139.743 263.553 139.743 248.5C139.743 233.447 145.415 219.627 154.785 209.016C164.155 219.627 169.826 233.447 169.826 248.5C170.073 263.553 164.155 277.373 154.785 287.984ZM47.0279 248.5C47.0279 215.185 74.6452 188.04 108.427 188.04C121.003 188.04 132.839 191.742 142.702 198.405C130.866 211.731 123.715 229.252 123.715 248.5C123.715 267.748 130.866 285.269 142.702 298.595C132.839 305.011 121.249 308.96 108.427 308.96C74.6452 308.96 47.0279 281.814 47.0279 248.5ZM166.867 298.595C178.703 285.269 185.854 267.748 185.854 248.5C185.854 229.252 178.703 211.731 166.867 198.405C176.731 191.989 188.32 188.04 201.142 188.04C213.965 188.04 225.554 191.742 235.417 198.405C223.581 211.731 216.184 229.252 216.184 248.5C216.184 267.748 223.335 285.269 235.417 298.595C225.554 305.011 213.965 308.96 201.142 308.96C188.567 308.96 176.731 305.011 166.867 298.595ZM259.583 298.595C271.419 285.269 278.816 267.748 278.816 248.5C278.816 229.252 271.665 211.731 259.583 198.405C269.446 191.989 281.035 188.04 293.858 188.04C306.68 188.04 318.269 191.742 328.133 198.405C316.297 211.731 308.899 229.252 308.899 248.5C308.899 267.748 316.05 285.269 328.133 298.595C318.269 305.011 306.68 308.96 293.858 308.96C281.035 308.96 269.446 305.011 259.583 298.595ZM386.573 308.96C373.997 308.96 362.161 305.258 352.298 298.595C364.134 285.269 371.531 267.748 371.531 248.5C371.531 229.252 364.38 211.731 352.298 198.405C362.161 191.989 373.751 188.04 386.573 188.04C420.355 188.04 447.972 215.185 447.972 248.5C447.972 281.814 420.355 308.96 386.573 308.96Z" fill="black"/>
</svg>
