<svg width="495" height="495" viewBox="0 0 495 495" fill="none" xmlns="http://www.w3.org/2000/svg">
<g clip-path="url(#clip0_41_38)">
<path fill-rule="evenodd" clip-rule="evenodd" d="M317.811 113.175C366.052 138.543 399 189.122 399 247.421C399 305.721 366.052 356.457 317.811 381.668V364.335C336.256 353.306 351.863 337.864 363.214 319.587L317.811 301.151V273.105L367.628 312.023C378.033 292.8 383.866 270.899 383.866 247.421C383.866 197.945 357.381 154.457 317.811 130.507V113.175ZM247.658 96C272.881 96 296.686 102.145 317.811 113.175V130.507C298.42 118.847 275.719 111.914 251.757 111.126L269.098 235.131L317.811 273.105V301.151L247.342 272.632L177.347 301.309V273.42L226.375 235.131L243.559 111.126C219.281 111.914 196.737 118.847 177.347 130.507V113.175C198.314 102.145 222.276 96 247.658 96ZM317.811 381.668C296.686 392.697 272.881 399 247.658 399C222.276 399 198.314 392.697 177.347 381.825V364.335C197.841 376.783 221.961 383.874 247.658 383.874C273.197 383.874 297.159 376.783 317.811 364.335V381.668ZM177.347 381.825C128.948 356.457 96 305.721 96 247.421C96 189.122 128.948 138.543 177.347 113.175V130.507C137.619 154.457 111.134 197.788 111.134 247.421C111.134 270.899 117.125 293.115 127.53 312.339L177.347 273.42V301.309L132.101 319.902C143.452 338.022 158.902 353.306 177.347 364.335V381.825Z" fill="#73797C"/>
</g>
<defs>
<clipPath id="clip0_41_38">
<rect width="495" height="495" fill="white"/>
</clipPath>
</defs>
</svg>
