<svg width="495" height="495" viewBox="0 0 495 495" fill="none" xmlns="http://www.w3.org/2000/svg">
<path d="M336.481 248C336.481 297.451 296.452 337.481 247 337.481V248H336.481ZM247 158.518V248H157.519C157.519 198.548 197.548 158.518 247 158.518Z" fill="#0166B1"/>
<path d="M247 158.518C296.452 158.518 336.482 198.548 336.482 248H247V158.518ZM157.519 248H247V337.481C197.548 337.481 157.519 297.452 157.519 248Z" fill="white"/>
<path d="M247 158.519V163.425C293.63 163.425 331.575 201.361 331.575 248H336.481C336.481 198.584 296.416 158.519 247 158.519ZM247 332.575C200.37 332.575 162.425 294.639 162.425 248H157.519C157.519 297.416 197.584 337.481 247 337.481M247 97C163.607 97 96 164.607 96 248C96 331.393 163.607 399 247 399C330.393 399 398 331.393 398 248C398 164.607 330.393 97 247 97ZM388.181 248C388.181 325.968 324.977 389.181 247 389.181C169.023 389.181 105.819 325.968 105.819 248C105.819 170.032 169.032 106.819 247 106.819C324.968 106.819 388.181 170.032 388.181 248Z" fill="#6F6F6F"/>
<path d="M182.471 175.154C187.296 170.107 190.028 164.275 185.203 158.708C182.577 155.687 178.169 155.026 174.515 156.515L174.151 156.656L174.266 156.339C174.807 154.903 175.153 150.322 171.224 147.16C169.308 145.618 166.904 145.046 164.474 145.292C159.941 145.75 156.455 148.825 146.964 159.334C144.099 162.505 139.931 167.508 137.429 170.75L163.498 195.309C172.137 185.813 175.659 182.281 182.471 175.154ZM148.455 169.147C153.706 162.769 159.285 156.982 161.813 154.691C162.611 153.969 163.48 153.247 164.536 152.965C166.248 152.498 168.013 153.705 168.412 155.449C168.811 157.202 167.702 158.867 166.469 160.241C163.693 163.351 153.51 173.93 153.51 173.93L148.455 169.147ZM158.664 178.766C158.664 178.766 168.581 168.354 171.818 165.024C173.104 163.703 173.929 162.901 174.816 162.47C175.96 161.915 177.211 161.8 178.329 162.54C179.429 163.271 179.934 164.531 179.659 165.782C179.331 167.271 178.107 168.689 177.096 169.772C175.73 171.226 163.968 183.725 163.95 183.743L158.664 178.766ZM249.98 145.865L258.327 127.296L258.859 125.649L258.708 127.366L259.586 152.181C262.514 152.454 265.538 152.859 268.519 153.353L267.161 116.602C262.993 116.144 258.841 115.818 254.69 115.642L246.468 135.911L246.175 137.417L245.882 135.911L237.669 115.642C233.518 115.818 229.366 116.144 225.198 116.602L223.84 153.353C226.821 152.859 229.845 152.463 232.773 152.181L233.651 127.366L233.5 125.649L234.032 127.296L242.379 145.865H249.98ZM319.299 184.28C321.348 186.465 324.302 189.989 325.96 192.129L356.509 172.873C354.983 170.891 352.553 167.878 350.734 165.755L331.389 178.458L330.067 179.585L331.052 178.158L339.594 161.228L333.553 155.229L316.496 163.712L315.059 164.69L316.203 163.377L329.003 144.174C326.75 142.271 324.586 140.527 321.827 138.413L302.437 168.724C304.894 170.6 308.132 173.357 310.199 175.234L328.453 165.826L329.624 164.971L328.763 166.134L319.299 184.28Z" fill="#6F6F6F"/>
</svg>
