<svg width="495" height="495" viewBox="0 0 495 495" fill="none" xmlns="http://www.w3.org/2000/svg">
<path d="M247.497 290.782C247.27 290.782 246.926 290.782 246.35 290.438C223.704 276.914 200.597 256.065 195.885 231.77C194.276 222.603 197.726 220.884 203.472 218.824C213.816 215.041 237.613 207.708 247.497 207.708C257.385 207.708 281.183 215.041 291.526 218.824C297.275 220.884 300.724 222.603 299.115 231.77C294.402 256.065 271.292 276.914 248.648 290.438C248.073 290.782 247.728 290.782 247.497 290.782Z" fill="white"/>
<path d="M247.497 297.996C247.845 297.996 248.417 297.886 248.879 297.651C276.698 283.789 289.686 271.071 306.012 244.717C312.107 234.637 315.551 229.479 330.383 227.299C353.602 223.977 458.439 216.646 479.134 213.782C487.984 212.522 490.4 211.146 494.537 206.79C495.229 206.101 495.229 205.531 493.962 205.643C491.319 205.876 386.71 210.342 323.944 212.634C308.537 213.435 303.942 213.095 291.067 208.853C271.985 203.01 254.739 199 247.497 199C240.255 199 223.011 203.01 203.931 208.853C191.057 213.094 186.457 213.435 171.054 212.634C108.289 210.341 3.6811 205.875 1.0383 205.642C-0.22791 205.53 -0.22791 206.101 0.459644 206.789C4.60081 211.146 7.01394 212.522 15.866 213.781C36.559 216.646 141.398 223.977 164.617 227.298C179.443 229.479 182.894 234.636 188.986 244.716C205.309 271.071 218.302 283.789 246.119 297.651C246.581 297.886 247.156 297.996 247.497 297.996ZM213.932 286.311C215.198 286.538 215.198 285.966 214.506 285.394C198.183 272.449 192.666 262.937 180.136 243.455C176.342 237.499 171.743 234.746 161.629 233.485C156.111 232.8 37.8212 221.8 14.6018 219.739C13.3356 219.622 13.3356 220.084 14.0281 220.769C18.2826 225.01 22.992 229.02 26.5546 231.656C38.7434 240.933 47.8247 243.228 62.6504 243.799C75.1819 244.261 151.628 247.927 160.592 248.615C167.029 249.07 168.984 250.104 170.71 252.164C171.513 253.08 171.63 253.883 170.48 253.883C162.892 253.883 115.873 253.425 77.1351 252.508C76.7906 252.508 76.6773 252.736 77.0233 252.853C104.727 262.017 126.913 267.75 149.444 267.632C160.825 267.519 172.088 267.405 176.572 267.405C181.402 267.405 183.354 267.859 185.195 270.154C185.882 271.071 185.769 271.643 184.16 271.76C177.377 272.331 167.722 273.02 156.341 273.706C155.307 273.82 155.307 274.047 156.224 274.278C182.089 280.466 195.769 283.327 213.932 286.311ZM247.497 290.782C247.27 290.782 246.922 290.782 246.35 290.438C223.704 276.914 200.596 256.061 195.883 231.77C194.274 222.606 197.724 220.887 203.47 218.824C213.817 215.041 237.613 207.707 247.497 207.707C257.385 207.707 281.179 215.041 291.528 218.824C297.274 220.887 300.723 222.607 299.111 231.77C294.398 256.061 271.292 276.914 248.648 290.438C248.073 290.782 247.731 290.782 247.497 290.782ZM281.067 286.311C299.229 283.327 312.909 280.466 338.771 274.279C339.691 274.047 339.691 273.82 338.658 273.706C327.279 273.021 317.618 272.332 310.839 271.76C309.23 271.643 309.113 271.071 309.805 270.155C311.645 267.86 313.598 267.406 318.428 267.406C322.91 267.406 334.176 267.519 345.555 267.633C368.089 267.75 390.272 262.017 417.977 252.854C418.322 252.737 418.208 252.509 417.86 252.509C379.124 253.426 332.106 253.884 324.52 253.884C323.369 253.884 323.483 253.081 324.292 252.164C326.012 250.104 327.968 249.071 334.404 248.616C343.371 247.927 419.814 244.261 432.347 243.8C447.178 243.228 456.256 240.933 468.441 231.656C472.007 229.021 476.72 225.01 480.974 220.77C481.663 220.084 481.663 219.623 480.399 219.74C457.179 221.8 338.886 232.8 333.37 233.486C323.255 234.747 318.656 237.499 314.863 243.456C302.333 262.938 296.818 272.45 280.491 285.395C279.802 285.966 279.802 286.538 281.067 286.311Z" fill="black"/>
<path d="M213.927 235.508L215.2 236.041C215.563 236.193 215.72 236.382 215.72 236.82V239.728C215.172 240.01 214.442 240.262 213.624 240.231C211.133 240.134 209.313 238.136 209.313 235.225C209.313 232.224 210.95 230.033 213.775 230.033C214.475 230.033 216.024 230.192 217.632 231.501L218.206 229.376C216.294 228.566 215.172 228.38 213.715 228.314C209.675 228.221 206.306 230.474 206.306 235.256C206.306 239.541 209.313 241.981 213.257 241.981C216.175 241.981 217.935 241.016 218.363 240.668V234.756H214.23L213.927 235.508ZM242.726 237.509L235.715 228.655H235.288H232.948L232.618 229.44L233.189 229.723C233.617 229.94 233.71 230.157 233.71 230.564V241.702H235.773V233.258L242.484 241.702H244.793V228.655H242.726V237.509ZM257.436 230.316L256.978 228.656H247.686L247.383 229.441L247.962 229.724C248.359 229.91 248.445 230.158 248.445 230.599V241.703H257.436V240.011H251.332V235.76H256.616V234.134H251.332V230.317L257.436 230.316ZM271.014 229.44L271.589 229.723C272.016 229.94 272.102 230.157 272.102 230.598V241.702H274.99V228.655H271.344L271.014 229.44ZM265.626 234.098C264.016 233.258 262.318 232.789 262.318 231.314C262.318 230.598 263.018 229.999 264.382 229.999C265.777 229.999 267.114 230.505 268.268 231.001L268.633 229.062C267.541 228.689 266.142 228.379 264.596 228.379C261.223 228.379 259.48 229.875 259.48 231.942C259.48 233.946 260.834 235.035 262.831 235.975C264.595 236.792 266.066 237.319 266.066 238.604C266.066 239.576 265.308 240.199 263.82 240.199C262.425 240.199 260.933 239.7 259.783 239.197L259.569 241.45C260.116 241.609 262.27 241.981 263.913 241.981C266.614 241.981 269.042 240.668 269.042 238.291C269.043 236.007 267.328 235.008 265.626 234.098ZM230.646 230.316L230.189 228.656H220.898L220.598 229.441L221.173 229.724C221.568 229.91 221.659 230.158 221.659 230.599V241.703H230.645V240.011H224.542V235.76H229.827V234.134H224.542V230.317L230.646 230.316ZM284.343 234.098C282.734 233.258 281.032 232.789 281.032 231.314C281.032 230.598 281.731 229.999 283.096 229.999C284.494 229.999 285.831 230.505 286.985 231.001L287.346 229.062C286.254 228.689 284.855 228.379 283.309 228.379C279.939 228.379 278.086 229.875 278.086 231.942C278.086 233.946 279.543 235.035 281.548 235.975C283.309 236.792 284.78 237.319 284.78 238.604C284.78 239.576 284.018 240.199 282.533 240.199C281.138 240.199 279.65 239.7 278.496 239.197L278.282 241.45C278.827 241.609 280.987 241.981 282.623 241.981C285.324 241.981 287.753 240.668 287.753 238.291C287.753 236.007 286.041 235.008 284.343 234.098Z" fill="black"/>
</svg>
