<svg width="495" height="495" viewBox="0 0 495 495" fill="none" xmlns="http://www.w3.org/2000/svg">
<path fill-rule="evenodd" clip-rule="evenodd" d="M287.804 270.794C290.735 285.942 282.795 298.525 276.198 310.739C268.87 322.102 256.775 331.869 242.238 330.408C209.617 329.919 177.735 324.91 148.168 315.989C146.826 315.624 145.483 314.766 144.748 313.547C144.137 311.835 144.995 310.246 146.214 309.15C173.215 287.281 205.343 277.145 237.107 266.512C248.955 263.092 261.542 259.426 274.855 261.138C280.348 261.873 285.845 265.662 287.804 270.794ZM399.096 206.048C414.245 218.508 427.928 235.492 423.285 256.014C415.71 286.312 382.728 302.438 356.462 312.697C342.167 317.463 327.753 322.353 312.116 323.818C311.139 323.695 309.55 323.937 309.303 322.472L309.669 320.764C331.903 295.717 348.76 267.624 363.548 239.158C370.387 226.328 376.742 213.138 382.605 200.185C383.459 199.208 384.317 198.72 385.294 198.354C390.787 198.839 394.699 203.117 399.096 206.048ZM185.913 173.796L185.424 175.627C153.296 212.153 132.161 254.545 112.127 296.69C108.219 300.356 104.429 295.467 100.887 293.878C83.0488 282.153 66.9229 263.215 71.5661 240.738C79.0173 211.422 109.192 195.785 134.362 185.16C149.264 179.54 164.782 175.02 181.15 172.454C182.862 172.45 185.059 172.207 185.913 173.796ZM345.344 179.659C347.175 180.636 349.376 181.001 350.476 182.832C351.453 184.909 349.499 186.252 348.399 187.598C323.11 207.386 294.159 218.385 264.592 228.036C249.562 231.702 234.413 238.3 217.68 234.634C213.768 233.656 210.229 231.091 208.028 227.301C203.874 215.819 209.494 203.847 214.379 193.83C220.853 181.247 232.34 166.464 248.22 166.222C282.426 165.976 314.677 171.107 345.344 179.659ZM387.613 180.636C413.514 194.807 442.834 219.727 439.78 252.956C436.237 283.742 407.528 305.242 381.874 318.194C306.984 353.989 201.8 355.085 124.468 323.814C98.3207 312.943 69.0002 294.252 58.002 266.15C49.5737 243.062 59.833 218.996 77.0632 202.994C113.1 170.253 159.035 159.017 206.316 152.539C257.629 146.307 311.623 151.804 357.558 167.564C367.821 171.354 377.961 175.508 387.613 180.636Z" fill="#003984"/>
</svg>
