<svg width="495" height="495" viewBox="0 0 495 495" fill="none" xmlns="http://www.w3.org/2000/svg">
<path d="M287.17 301.05C287.17 302.172 287.466 302.822 288.012 302.822C288.472 302.822 288.854 302.528 289.2 302.231L443.477 182.724C446.083 180.549 449.206 179.431 452.385 179.533H486.289C491.486 179.533 495 183.668 495 189.871V267.14C495 276.474 493.268 281.909 486.338 286.871L445.209 316.409C444.798 316.749 444.313 317 443.823 317C443.333 317 442.833 316.527 442.833 314.814V224.667C442.833 223.603 442.586 222.895 441.991 222.895C441.557 222.895 441.145 223.16 440.803 223.486L328.053 310.917C325.479 312.984 322.459 314.108 319.391 314.048H244.653C239.406 314.048 235.942 309.914 235.942 303.651V192.296C235.942 191.469 235.645 190.702 235.05 190.702C234.617 190.702 234.207 190.972 233.862 191.293L159.473 244.575C158.73 245.167 158.533 245.58 158.533 245.994C158.533 246.348 158.682 246.702 159.176 247.353L212.333 310.739C213.026 311.566 213.522 312.217 213.522 312.925C213.522 313.516 212.73 313.989 211.79 313.989H163.779C160.016 313.989 157.096 313.338 155.067 310.917L122.846 272.519C122.599 272.166 122.244 271.927 121.856 271.927C121.507 271.927 121.167 272.069 120.867 272.281L67.0166 310.917C63.7499 313.281 61.5224 313.93 58.3054 313.93H8.76094C3.4655 313.989 0 309.795 0 303.592V227.799C0 218.406 1.73201 213.03 8.71124 208.068L50.0896 178.413C50.4112 178.152 50.7896 178.009 51.1785 178C51.8216 178 52.168 178.768 52.168 180.481V281.97C52.168 283.035 52.3654 283.506 53.0099 283.506C53.4484 283.506 53.8518 283.211 54.2479 282.914L194.022 182.546C196.696 180.36 199.962 179.298 203.229 179.474H278.461C283.659 179.474 287.173 183.609 287.173 189.812L287.123 301.05H287.17Z" fill="#131E29"/>
</svg>
