<svg width="495" height="495" viewBox="0 0 495 495" fill="none" xmlns="http://www.w3.org/2000/svg">
<path d="M269.41 347.65C277.503 341.928 283.523 342.412 290.739 335.212C297.42 328.559 288.321 320.734 281.525 315.687C274.207 310.271 278.687 309.315 287.952 307.505C314.142 302.382 349.164 293.817 363.735 289.764C400.132 279.671 432.278 253.863 431.998 224.219C431.807 204.133 417.605 186.775 402.69 174.617C387.775 162.446 371.816 155.398 366.777 153.945C356.253 150.899 361.801 157.909 361.801 157.909C361.801 157.909 371.231 161.273 391.109 176.134C405.732 187.068 419.578 203.777 419.743 221.823C420.214 268.723 356.278 282.844 356.278 282.844C356.278 282.844 414.22 265.639 413.8 221.887C413.622 203.216 393.96 178.937 367.324 161.312C347.675 148.312 324.895 141.06 320.034 140.27C306.328 138.053 312.907 144.744 312.907 144.744C312.907 144.744 330.902 149.268 354.191 165.199C373.242 178.236 391.338 199.163 391.567 223.658C391.886 255.035 360.427 271.399 346.632 278.32C325.468 288.936 302.663 294.187 302.663 294.187C302.663 294.187 328.764 287.305 349.457 274.127C368.342 262.083 384.861 241.768 384.683 223.735C384.352 190.204 349.164 163.491 319.716 148.121C304.126 139.977 290 135.211 283.866 133.885C276.969 132.381 267.093 132.012 278.751 139.276C287.43 144.667 299.583 152.556 309.84 162.025C328.433 179.218 345.015 203.254 345.219 225.06C345.486 252.984 326.575 274.79 305.374 283.494C286.183 291.358 267.233 293.537 261.303 294.748C252.395 296.557 252.942 303.924 254.367 305.632C258.885 311.061 270.377 315.203 270.377 324.621C270.377 340.87 248.628 342.744 245.994 342.744C243.385 342.744 221.623 340.87 221.623 324.621C221.623 315.203 233.128 311.061 237.633 305.632C239.058 303.924 239.605 296.557 230.697 294.748C224.767 293.537 205.817 291.358 186.626 283.494C165.412 274.79 146.501 252.984 146.781 225.06C146.985 203.254 163.567 179.218 182.172 162.025C192.417 152.556 204.57 144.667 213.249 139.276C224.919 132.012 215.044 132.381 208.134 133.885C202 135.211 187.874 139.977 172.271 148.121C142.836 163.491 107.648 190.204 107.317 223.735C107.139 241.768 123.658 262.083 142.543 274.127C163.236 287.305 189.337 294.187 189.337 294.187C189.337 294.187 166.519 288.936 145.381 278.32C131.573 271.399 100.114 255.035 100.42 223.658C100.662 199.163 118.758 178.236 137.796 165.199C161.085 149.268 179.093 144.744 179.093 144.744C179.093 144.744 185.672 138.053 171.966 140.27C167.105 141.06 144.338 148.312 124.689 161.312C98.0401 178.937 78.3783 203.216 78.2001 221.887C77.7674 265.639 135.722 282.844 135.722 282.844C135.722 282.844 71.7989 268.723 72.2443 221.823C72.4225 203.777 86.2685 187.068 100.891 176.134C120.769 161.273 130.199 157.909 130.199 157.909C130.199 157.909 135.748 150.899 125.223 153.945C120.184 155.398 104.225 162.446 89.31 174.617C74.395 186.775 60.2054 204.133 60.0018 224.219C59.7218 253.863 91.868 279.671 128.265 289.764C142.836 293.817 177.858 302.382 204.036 307.505C213.313 309.315 217.793 310.271 210.475 315.687C203.667 320.734 194.58 328.559 201.249 335.212C208.477 342.412 214.509 341.928 222.59 347.65C230.684 353.373 233.675 360 246.108 360C258.529 360 261.316 353.373 269.41 347.65Z" fill="black"/>
</svg>
