<svg width="495" height="495" viewBox="0 0 495 495" fill="none" xmlns="http://www.w3.org/2000/svg">
<path d="M246.605 396L288.048 161.43C327.551 161.43 340.011 165.789 341.81 183.583C341.81 183.583 368.31 173.639 381.675 153.443C329.52 129.121 277.115 128.024 277.115 128.024L246.536 165.507L246.605 165.502L216.027 128.018C216.027 128.018 163.621 129.116 111.473 153.439C124.826 173.634 151.336 183.578 151.336 183.578C153.146 165.783 165.591 161.424 204.828 161.396L246.605 396Z" fill="#E82127"/>
<path d="M246.574 117.341C288.822 117.014 337.179 123.954 386.683 145.785C393.299 133.735 395 128.41 395 128.41C340.885 106.747 290.208 99.3334 246.568 99.1475C202.93 99.3334 152.255 106.748 98.1475 128.41C98.1475 128.41 100.561 134.97 106.459 145.785C155.953 123.954 204.319 117.014 246.568 117.341H246.574Z" fill="#E82127"/>
</svg>
